<svg
  xmlns="http://www.w3.org/2000/svg"
  xmlns:xlink="http://www.w3.org/1999/xlink"
  viewBox="0 0 162.78 56.39"
><defs><style
    >.cls-1{isolation:isolate;}.cls-10,.cls-11,.cls-12,.cls-13,.cls-14,.cls-2,.cls-3,.cls-4,.cls-5,.cls-6,.cls-7,.cls-8,.cls-9{fill-rule:evenodd;}.cls-2{fill:url(#linear-gradient);}.cls-3{fill:#141233;}.cls-4{fill:url(#linear-gradient-2);}.cls-5{fill:url(#linear-gradient-3);}.cls-6{fill:url(#linear-gradient-4);}.cls-7{fill:url(#linear-gradient-5);}.cls-8{fill:url(#Degradado_sin_nombre_2074);}.cls-9{fill:url(#Degradado_sin_nombre_2074-2);}.cls-10{fill:url(#Degradado_sin_nombre_2074-3);}.cls-11{fill:url(#Degradado_sin_nombre_2074-4);}.cls-12{fill:url(#Degradado_sin_nombre_2074-5);}.cls-13{fill:url(#Degradado_sin_nombre_2074-6);}.cls-14{fill:#55c6ff;mix-blend-mode:screen;}</style><linearGradient
      id="linear-gradient"
      x1="1.97"
      y1="38.37"
      x2="1.97"
      y2="27.26"
      gradientUnits="userSpaceOnUse"
    ><stop offset="0" stop-color="#273f5e" /><stop
        offset="1"
        stop-color="#4e6880"
      /></linearGradient><linearGradient
      id="linear-gradient-2"
      x1="1.97"
      y1="27.26"
      x2="1.97"
      y2="16.16"
      gradientUnits="userSpaceOnUse"
    ><stop offset="0" stop-color="#4e7699" /><stop
        offset="1"
        stop-color="#80a8e8"
      /></linearGradient><linearGradient
      id="linear-gradient-3"
      x1="159.01"
      y1="38.37"
      x2="159.01"
      y2="27.26"
      xlink:href="#linear-gradient"
    /><linearGradient
      id="linear-gradient-4"
      x1="158.05"
      y1="37.28"
      x2="158.05"
      y2="27.26"
      gradientUnits="userSpaceOnUse"
    ><stop offset="0" stop-color="#304d73" /><stop
        offset="1"
        stop-color="#5b7996"
      /></linearGradient><linearGradient
      id="linear-gradient-5"
      x1="159.01"
      y1="27.26"
      x2="159.01"
      y2="16.16"
      xlink:href="#linear-gradient-2"
    /><linearGradient
      id="Degradado_sin_nombre_2074"
      x1="80.49"
      y1="4.08"
      x2="80.49"
      y2="1.56"
      gradientUnits="userSpaceOnUse"
    ><stop offset="0" stop-color="#cb01ff" /><stop
        offset="1"
        stop-color="#00ff57"
      /></linearGradient><linearGradient
      id="Degradado_sin_nombre_2074-2"
      x1="80.49"
      y1="52.96"
      x2="80.49"
      y2="50.44"
      xlink:href="#Degradado_sin_nombre_2074"
    /><linearGradient
      id="Degradado_sin_nombre_2074-3"
      x1="8.46"
      y1="52.96"
      x2="8.46"
      y2="27.26"
      xlink:href="#Degradado_sin_nombre_2074"
    /><linearGradient
      id="Degradado_sin_nombre_2074-4"
      x1="8.46"
      y1="27.26"
      x2="8.46"
      y2="1.56"
      xlink:href="#Degradado_sin_nombre_2074"
    /><linearGradient
      id="Degradado_sin_nombre_2074-5"
      x1="152.52"
      y1="52.96"
      x2="152.52"
      y2="27.26"
      xlink:href="#Degradado_sin_nombre_2074"
    /><linearGradient
      id="Degradado_sin_nombre_2074-6"
      x1="152.52"
      y1="27.26"
      x2="152.52"
      y2="1.56"
      xlink:href="#Degradado_sin_nombre_2074"
    /></defs><g class="cls-1"><g id="Layer_1" data-name="Layer 1"><polygon
        class="cls-2"
        points="3.36 34.63 0.81 27.26 -0.34 27.26 2.21 34.63 3.51 38.37 4.28 37.28 3.36 34.63 3.36 34.63"
      /><polygon
        class="cls-3"
        points="0.81 27.26 3.36 34.63 4.28 37.28 5.06 36.19 4.51 34.63 1.96 27.26 0.81 27.26 0.81 27.26"
      /><polygon
        class="cls-4"
        points="0.81 27.26 3.36 19.89 4.28 17.24 3.51 16.16 2.21 19.89 -0.34 27.26 0.81 27.26 0.81 27.26"
      /><polygon
        class="cls-3"
        points="4.28 17.24 3.36 19.89 0.81 27.26 1.96 27.26 4.51 19.89 5.06 18.33 4.28 17.24 4.28 17.24"
      /><polygon
        class="cls-5"
        points="157.62 34.63 160.18 27.26 161.33 27.26 158.77 34.63 157.47 38.37 156.7 37.28 157.62 34.63 157.62 34.63"
      /><polygon
        class="cls-6"
        points="160.18 27.26 157.62 34.63 156.7 37.28 155.92 36.19 156.47 34.63 159.02 27.26 160.18 27.26 160.18 27.26"
      /><polygon
        class="cls-7"
        points="160.18 27.26 157.62 19.89 156.7 17.24 157.47 16.16 158.77 19.89 161.33 27.26 160.18 27.26 160.18 27.26"
      /><polygon
        class="cls-3"
        points="156.7 17.24 157.62 19.89 160.18 27.26 159.02 27.26 156.47 19.89 155.92 18.33 156.7 17.24 156.7 17.24"
      /><polygon
        class="cls-8"
        points="13.82 4.08 147.16 4.08 148.95 1.56 12.03 1.56 13.82 4.08 13.82 4.08"
      /><polygon
        class="cls-9"
        points="147.16 50.44 13.82 50.44 12.03 52.96 148.95 52.96 147.16 50.44 147.16 50.44"
      /><polygon
        class="cls-10"
        points="11.69 44.31 5.77 27.26 3.11 27.26 9.03 44.31 12.03 52.96 13.82 50.44 11.69 44.31 11.69 44.31"
      /><polygon
        class="cls-11"
        points="5.77 27.26 11.69 10.21 13.82 4.08 12.03 1.56 9.03 10.21 3.11 27.26 5.77 27.26 5.77 27.26"
      /><polygon
        class="cls-12"
        points="149.29 44.31 155.21 27.26 157.87 27.26 151.96 44.31 148.95 52.96 147.16 50.44 149.29 44.31 149.29 44.31"
      /><polygon
        class="cls-13"
        points="155.21 27.26 149.29 10.21 147.16 4.08 148.95 1.56 151.96 10.21 157.87 27.26 155.21 27.26 155.21 27.26"
      /><path
        class="cls-14"
        d="M80.49,49.71c21.73,0,42.28.26,60.55.73H19.94c18.27-.47,38.82-.73,60.55-.73Z"
      /></g></g></svg>
