<svg id="Layer_1" data-name="Layer 1" xmlns="http://www.w3.org/2000/svg" xmlns:xlink="http://www.w3.org/1999/xlink" viewBox="0 0 553.76 77.29"><defs><style>.cls-1,.cls-10,.cls-11,.cls-12,.cls-13,.cls-14,.cls-15,.cls-16,.cls-17,.cls-2,.cls-3,.cls-4,.cls-5,.cls-6,.cls-7,.cls-8,.cls-9{fill:none;stroke-miterlimit:10;stroke-width:2px;}.cls-1{stroke:url(#Degradado_sin_nombre_2);}.cls-2{stroke:url(#Degradado_sin_nombre_2-2);}.cls-3{stroke:url(#Degradado_sin_nombre_2-3);}.cls-4{stroke:url(#Degradado_sin_nombre_2-4);}.cls-5{stroke:url(#Degradado_sin_nombre_2-5);}.cls-6{stroke:url(#Degradado_sin_nombre_2-6);}.cls-7{stroke:url(#Degradado_sin_nombre_2-7);}.cls-8{stroke:url(#Degradado_sin_nombre_2-8);}.cls-9{stroke:url(#Degradado_sin_nombre_2-9);}.cls-10{stroke:url(#Degradado_sin_nombre_2-10);}.cls-11{stroke:url(#Degradado_sin_nombre_2-11);}.cls-12{stroke:url(#Degradado_sin_nombre_2-12);}.cls-13{stroke:url(#Degradado_sin_nombre_2-13);}.cls-14{stroke:url(#Degradado_sin_nombre_2-14);}.cls-15{stroke:url(#Degradado_sin_nombre_2-15);}.cls-16{stroke:url(#Degradado_sin_nombre_2-16);}.cls-17{stroke:url(#Degradado_sin_nombre_2-17);}</style><linearGradient id="Degradado_sin_nombre_2" x1="3.2" y1="38.65" x2="41.24" y2="38.65" gradientUnits="userSpaceOnUse"><stop offset="0" stop-color="#c901fd"/><stop offset="1" stop-color="#00ff57"/></linearGradient><linearGradient id="Degradado_sin_nombre_2-2" x1="47" y1="38.65" x2="60.41" y2="38.65" xlink:href="#Degradado_sin_nombre_2"/><linearGradient id="Degradado_sin_nombre_2-3" x1="62.41" y1="38.65" x2="96.79" y2="38.65" xlink:href="#Degradado_sin_nombre_2"/><linearGradient id="Degradado_sin_nombre_2-4" x1="97.41" y1="38.65" x2="137.15" y2="38.65" xlink:href="#Degradado_sin_nombre_2"/><linearGradient id="Degradado_sin_nombre_2-5" x1="140.83" y1="38.65" x2="172.66" y2="38.65" xlink:href="#Degradado_sin_nombre_2"/><linearGradient id="Degradado_sin_nombre_2-6" x1="178" y1="45.15" x2="200.36" y2="45.15" xlink:href="#Degradado_sin_nombre_2"/><linearGradient id="Degradado_sin_nombre_2-7" x1="201.02" y1="45.42" x2="234.22" y2="45.42" xlink:href="#Degradado_sin_nombre_2"/><linearGradient id="Degradado_sin_nombre_2-8" x1="247.21" y1="38.65" x2="291.81" y2="38.65" xlink:href="#Degradado_sin_nombre_2"/><linearGradient id="Degradado_sin_nombre_2-9" x1="292.83" y1="38.65" x2="305.56" y2="38.65" xlink:href="#Degradado_sin_nombre_2"/><linearGradient id="Degradado_sin_nombre_2-10" x1="311.4" y1="38.65" x2="324.13" y2="38.65" xlink:href="#Degradado_sin_nombre_2"/><linearGradient id="Degradado_sin_nombre_2-11" x1="328.37" y1="45.42" x2="361.57" y2="45.42" xlink:href="#Degradado_sin_nombre_2"/><linearGradient id="Degradado_sin_nombre_2-12" x1="364.21" y1="45.42" x2="396.62" y2="45.42" xlink:href="#Degradado_sin_nombre_2"/><linearGradient id="Degradado_sin_nombre_2-13" x1="399.18" y1="45.4" x2="432.88" y2="45.4" xlink:href="#Degradado_sin_nombre_2"/><linearGradient id="Degradado_sin_nombre_2-14" x1="434.87" y1="39.71" x2="459.16" y2="39.71" xlink:href="#Degradado_sin_nombre_2"/><linearGradient id="Degradado_sin_nombre_2-15" x1="461.31" y1="38.51" x2="474.19" y2="38.51" xlink:href="#Degradado_sin_nombre_2"/><linearGradient id="Degradado_sin_nombre_2-16" x1="478.36" y1="45.42" x2="511.56" y2="45.42" xlink:href="#Degradado_sin_nombre_2"/><linearGradient id="Degradado_sin_nombre_2-17" x1="515.83" y1="45.02" x2="547.66" y2="45.02" xlink:href="#Degradado_sin_nombre_2"/></defs><path class="cls-1" d="M4.2,12.68H21.93a33.73,33.73,0,0,1,9.42,1A9.83,9.83,0,0,1,36.68,18a15.2,15.2,0,0,1,2.15,8.34q0,8.72-7.42,11.18,8.82,3.12,8.83,12.75a14.69,14.69,0,0,1-2.4,8.54,11.51,11.51,0,0,1-5.92,4.64,33.09,33.09,0,0,1-10,1.17H4.2Zm11,21h3.69c3.68,0,6-.66,7-2a7.55,7.55,0,0,0,1.42-4.53,6.69,6.69,0,0,0-1.42-4.21c-1-1.23-3-1.84-6.11-1.84H15.16Zm0,22.07h5.59q7.89,0,7.88-6.79,0-3.78-2-5.32t-5.92-1.55H15.16Z"/><path class="cls-2" d="M48,12.68H59.41V64.62H48Z"/><path class="cls-3" d="M63.41,12.68H95.79v9.74H85.17v42.2H73.76V22.42H63.41Z"/><path class="cls-4" d="M125.54,45.71l10.54.64q-.57,8.44-5.36,13.76a16.28,16.28,0,0,1-12.67,5.3q-9.6,0-14.62-7.11t-5-19.6q0-12.59,5-19.71t14.8-7.11q16.24,0,17.69,20.09l-10.43.76q-.4-11.56-7.22-11.57c-2.39,0-4.28,1.25-5.69,3.73s-2.11,7.31-2.11,14.46q0,9.59,1.94,13.18a6.24,6.24,0,0,0,5.82,3.6Q124.44,56.13,125.54,45.71Z"/><path class="cls-5" d="M141.83,12.68h10.73V30.26q2.88-4.87,9.43-4.87a9.6,9.6,0,0,1,6.18,1.82,8,8,0,0,1,2.88,4.63,41.19,41.19,0,0,1,.61,8.12V64.62H160.93V39.93c0-2.51-.24-4.18-.71-5s-1.44-1.24-2.91-1.24a5,5,0,0,0-3.46,1.18q-1.29,1.19-1.29,5.37V64.62H141.83Z"/><path class="cls-6" d="M179,26.19h9.44v9.28q2.53-9.78,9.09-9.78a10,10,0,0,1,1.83.19V36.34a15.61,15.61,0,0,0-1.79-.15q-7.84,0-7.84,11.87V64.62H179Z"/><path class="cls-7" d="M233.22,45.4q0,20-15.58,20T202,45.4q0-20,15.62-20T233.22,45.4Zm-11.07,0q0-7.35-1-10a3.68,3.68,0,0,0-7-.13q-1.07,2.46-1.06,10.08,0,7,.91,9.79a3.73,3.73,0,0,0,7.2,0C221.83,53.42,222.15,50.14,222.15,45.42Z"/><path class="cls-8" d="M264.15,12.68h11.49l14.84,51.94H278.81l-2.59-10.74H261.59L259,64.62H248.55ZM274.07,45,268.82,23.7l-5,21.28Z"/><path class="cls-9" d="M293.83,12.68h10.73V64.62H293.83Z"/><path class="cls-10" d="M312.4,12.68h10.73V64.62H312.4Z"/><path class="cls-11" d="M360.57,45.4q0,20-15.58,20t-15.62-20q0-20,15.62-20T360.57,45.4Zm-11.07,0q0-7.35-1-10a3.68,3.68,0,0,0-7-.13q-1.06,2.46-1.06,10.08,0,7,.91,9.79a3.73,3.73,0,0,0,7.2,0C349.18,53.42,349.5,50.14,349.5,45.42Z"/><path class="cls-12" d="M395.53,40.34l-10,.38a14.38,14.38,0,0,0-1.15-5.34,3.16,3.16,0,0,0-3.08-1.81q-5.4,0-5.4,11.34,0,6.57,1.31,9.2a4.19,4.19,0,0,0,3.9,2.63q4,0,4.42-7.12l10,.65q-1.32,15.15-15,15.14-7.41,0-11.35-5t-3.93-14.9q0-9.81,4.12-14.95t11.57-5.14Q394.36,25.42,395.53,40.34Z"/><path class="cls-13" d="M411.63,38.4l-10.16-1a12.43,12.43,0,0,1,4.93-8.9A17.28,17.28,0,0,1,417,25.39a16,16,0,0,1,8.68,2.07,9.11,9.11,0,0,1,4.13,4.81,30.9,30.9,0,0,1,.85,8.49V56.09q0,7.15.65,8.53h-10a21.66,21.66,0,0,1-.53-5.9q-3.54,6.69-10.52,6.69A10.1,10.1,0,0,1,403,62.73c-1.88-1.79-2.81-4.39-2.81-7.82q0-6.42,4.25-9.95t15.49-4.2V39.31a12.75,12.75,0,0,0-.77-5.32,3.08,3.08,0,0,0-3-1.49Q412,32.5,411.63,38.4Zm8.29,7.88q-4.68.53-6.67,2.06c-1.34,1-2,2.75-2,5.18q0,4.86,3.58,4.86a4.42,4.42,0,0,0,3.52-2.19q1.57-2.17,1.57-8Z"/><path class="cls-14" d="M440.13,14.39l10.42-.34V26.19h7.08v8.44h-7.08V48.75a46.71,46.71,0,0,0,.17,5.08,3,3,0,0,0,1.14,1.94,5.29,5.29,0,0,0,3.26.78c.81,0,1.82,0,3-.08v8.15a30.26,30.26,0,0,1-6.54.79q-4.87,0-7.46-1.86a8.18,8.18,0,0,1-3.31-4.68,39.74,39.74,0,0,1-.72-8.94V34.63h-4.26V26.19h4.26Z"/><path class="cls-15" d="M473.19,23H462.31V12.41h10.88Zm-10.8,3.16h10.72V64.62H462.39Z"/><path class="cls-16" d="M510.56,45.4q0,20-15.58,20t-15.62-20q0-20,15.62-20T510.56,45.4Zm-11.08,0q0-7.35-1-10a3.68,3.68,0,0,0-7-.13q-1.07,2.46-1.06,10.08,0,7,.91,9.79a3.73,3.73,0,0,0,7.2,0C499.17,53.42,499.48,50.14,499.48,45.42Z"/><path class="cls-17" d="M516.83,26.19H527v5.25q2.67-6,9.63-6a10.71,10.71,0,0,1,6.22,1.7A7.45,7.45,0,0,1,546,31.44a34.08,34.08,0,0,1,.68,8V64.62H535.93V39.43q0-3.88-1-4.8a3.75,3.75,0,0,0-2.66-.91c-1.93,0-3.19.59-3.8,1.77s-.92,3.38-.92,6.6V64.62H516.83Z"/></svg>