<svg id="Layer_1" data-name="Layer 1" xmlns="http://www.w3.org/2000/svg" xmlns:xlink="http://www.w3.org/1999/xlink" viewBox="0 0 553.76 361.99"><defs><style>.cls-1,.cls-20{fill:none;}.cls-2{fill:#5e17eb;}.cls-3{fill:#3c32dd;}.cls-4{fill:#1a3eca;}.cls-5{fill:#0044b5;}.cls-6{fill:#002c6d;}.cls-7{fill:#6849a5;}.cls-8{fill:#a04ba1;}.cls-9{fill:#ca5394;}.cls-10{clip-path:url(#clip-path);}.cls-11{fill:url(#linear-gradient);}.cls-12{clip-path:url(#clip-path-2);}.cls-13{fill:url(#linear-gradient-2);}.cls-14{clip-path:url(#clip-path-3);}.cls-15{fill:url(#linear-gradient-3);}.cls-16{clip-path:url(#clip-path-4);}.cls-17{fill:url(#linear-gradient-4);}.cls-18{clip-path:url(#clip-path-5);}.cls-19{fill:url(#linear-gradient-5);}.cls-20{stroke:#fff;stroke-miterlimit:10;}.cls-21{font-size:16.08px;fill:#fff;font-family:FranklinGothic-Demi, Franklin Gothic Demi;font-weight:300;}</style><clipPath id="clip-path"><path class="cls-1" d="M221.24,165.66a7.77,7.77,0,0,0,10.95,5.3.81.81,0,0,1,1.08.15q4.53,4.42,9.09,8.81a.92.92,0,0,1,.23,1.22,7.49,7.49,0,0,0,0,6,1.08,1.08,0,0,1-.32,1.48q-4.46,4.24-8.85,8.55c-.48.47-.84.4-1.39.17a7.71,7.71,0,0,0-10.89,7.29,8.1,8.1,0,0,0,1.63,4.5A7.75,7.75,0,0,0,236,201.43a1,1,0,0,1,.24-1.38c3-2.85,5.95-5.73,8.9-8.61a1,1,0,0,1,1.32-.25,7.29,7.29,0,0,0,6.5,0,1.11,1.11,0,0,1,1.45.3q4.31,4.22,8.66,8.37a1.28,1.28,0,0,1,.35,1.67,7.76,7.76,0,1,0,4-4.15,1.07,1.07,0,0,1-1.39-.25q-4.43-4.33-8.9-8.62a1,1,0,0,1-.28-1.28,7.31,7.31,0,0,0,0-6,1.05,1.05,0,0,1,.27-1.38q4.5-4.34,8.95-8.7a.87.87,0,0,1,1.15-.21,7.69,7.69,0,0,0,9.63-2.42,7.86,7.86,0,0,0,0-9.1,7.77,7.77,0,0,0-9.52-2.39,7.68,7.68,0,0,0-3.86,9.93c.19.5.3.88-.17,1.33-3.05,2.91-6.07,5.86-9.12,8.77a1.11,1.11,0,0,1-1,.17,7.73,7.73,0,0,0-6.83,0,.81.81,0,0,1-1.09-.19q-4.53-4.41-9.1-8.8a.91.91,0,0,1-.22-1.16,7.68,7.68,0,0,0-5.31-10.59,7.13,7.13,0,0,0-1.81-.23,7.83,7.83,0,0,0-7.56,9.37"/></clipPath><linearGradient id="linear-gradient" x1="-588.45" y1="591.63" x2="-587.45" y2="591.63" gradientTransform="matrix(57.26, 0, 0, -57.26, 33913.81, 34059.18)" gradientUnits="userSpaceOnUse"><stop offset="0" stop-color="#cb01ff"/><stop offset="1" stop-color="#00ff57"/></linearGradient><clipPath id="clip-path-2"><path class="cls-1" d="M268.58,136.36A7.74,7.74,0,0,0,263.49,147a1,1,0,0,1-.23,1.32q-4.41,4.35-8.77,8.75a.83.83,0,0,1-1.15.18,7.43,7.43,0,0,0-7.13-.07,1,1,0,0,1-1.44-.23q-4.29-4.35-8.64-8.63a1,1,0,0,1-.26-1.3,7.68,7.68,0,0,0-7.06-10.86l-.92.07c-4.51.3-8,5.51-6.48,9.76,1.67,4.8,6,6.75,10.78,4.86a1,1,0,0,1,.91.16q4.6,4.53,9.14,9.13a1.27,1.27,0,0,1,.2,1.06,8.56,8.56,0,0,0-.29,4.54c1,4.24,5.5,7,9.47,5.78,4.66-1.41,7-5.9,5.27-10.29a.86.86,0,0,1,.19-1.09q4.59-4.53,9.17-9.1a.8.8,0,0,1,1.08-.19,7.46,7.46,0,0,0,5.68.34,7.72,7.72,0,0,0,5-9.5,7.83,7.83,0,0,0-7.41-5.58,7.59,7.59,0,0,0-2,.28"/></clipPath><linearGradient id="linear-gradient-2" x1="-588.45" y1="591.63" x2="-587.45" y2="591.63" gradientTransform="matrix(57.24, 0, 0, -57.24, 33903.4, 34018.65)" xlink:href="#linear-gradient"/><clipPath id="clip-path-3"><path class="cls-1" d="M247.87,196.91a7.75,7.75,0,0,0-5.2,10.81,1,1,0,0,1-.1.89q-4.5,4.57-9.07,9.07a1.09,1.09,0,0,1-.89.13c-.39-.11-.77-.24-1.16-.37a7.86,7.86,0,0,0-9.74,4.14,7.68,7.68,0,0,0-.06,5.85A7.73,7.73,0,0,0,236.12,222a1.41,1.41,0,0,1,.28-1.52q4.44-4.38,8.84-8.81c.48-.49.83-.53,1.59-.09a6,6,0,0,0,6.11-.19c.84-.52,1.2-.41,1.73.13,2.59,2.62,5.17,5.26,7.84,7.79a2.35,2.35,0,0,1,.73,2.93,7.68,7.68,0,0,0,7.85,10,7.73,7.73,0,1,0-3.64-14.78,1.19,1.19,0,0,1-1.31-.22q-4.5-4.51-9-9a1,1,0,0,1-.22-1.1,7.31,7.31,0,0,0-1.46-8,7.19,7.19,0,0,0-5.53-2.57,9,9,0,0,0-2,.24"/></clipPath><linearGradient id="linear-gradient-3" x1="-588.44" y1="591.63" x2="-587.44" y2="591.63" gradientTransform="matrix(57.21, 0, 0, -57.21, 33885.36, 34061.4)" xlink:href="#linear-gradient"/><clipPath id="clip-path-4"><path class="cls-1" d="M204.26,157.24a7.72,7.72,0,0,0,7,13.78.93.93,0,0,1,1.07.18c3,3.06,6.09,6.09,9.11,9.16a1,1,0,0,1,.19,1,7.6,7.6,0,0,0,0,5.59,1.14,1.14,0,0,1-.22,1.23q-4.5,4.44-8.95,8.94a1,1,0,0,1-1.3.26,7.76,7.76,0,0,0-9.73,2.85,7.84,7.84,0,0,0-.67,6.9l.13.33a7.73,7.73,0,0,0,10.14,4,7.63,7.63,0,0,0,4-10.34c-.26-.59-.14-.89.6-1.43l6.4-6.53c2.23-2.28,2.23-2.65,3.3-2.13a7.43,7.43,0,0,0,8.51-.95c4.5-3.7,3.77-11.61-3.47-13.59a6.76,6.76,0,0,0-5.08.86.82.82,0,0,1-1.19-.14q-4.42-4.45-8.88-8.89a.81.81,0,0,1-.2-1.07,7.39,7.39,0,0,0-1.25-8.39,7.46,7.46,0,0,0-5.71-2.57,8.08,8.08,0,0,0-3.74.92"/></clipPath><linearGradient id="linear-gradient-4" x1="-582.57" y1="592.96" x2="-581.57" y2="592.96" gradientTransform="matrix(36.38, 0, 0, -36.38, 21391.52, 21754.27)" xlink:href="#linear-gradient"/><clipPath id="clip-path-5"><path class="cls-1" d="M288,157.14a7.68,7.68,0,0,0-3.63,9.87c.22.53.35.91-.16,1.4q-4.44,4.38-8.81,8.83a.77.77,0,0,1-1.13.15,7.73,7.73,0,0,0-10,11.2,7.68,7.68,0,0,0,9.41,2.71,1.18,1.18,0,0,1,1.54.29q4.32,4.38,8.7,8.69a1.17,1.17,0,0,1,.35,1.45,7.74,7.74,0,0,0,7.17,10.4,7.6,7.6,0,0,0,5.83-2.55,7.72,7.72,0,0,0-9.27-12,1,1,0,0,1-1.35-.23q-4.31-4.34-8.65-8.62a1,1,0,0,1-.28-1.37,7.23,7.23,0,0,0,.16-5.85,1,1,0,0,1,.27-1.23q4.51-4.49,9-9a.86.86,0,0,1,1.15-.2,7.38,7.38,0,0,0,5.93.22,7.73,7.73,0,0,0-2.72-15,7.61,7.61,0,0,0-3.48.85"/></clipPath><linearGradient id="linear-gradient-5" x1="-582.55" y1="592.98" x2="-581.55" y2="592.98" gradientTransform="matrix(36.33, 0, 0, -36.33, 21424.29, 21724.84)" xlink:href="#linear-gradient"/></defs><path class="cls-2" d="M248.78,62a123.85,123.85,0,0,1,77.6,27.38l-38.8,48.14a62,62,0,0,0-28.36-12.8,62,62,0,0,0-10.44-.88Z"/><path class="cls-3" d="M321.47,85.64A123.58,123.58,0,0,1,361,133.72a122.45,122.45,0,0,1,7.16,19.68l-59.68,16.14a62.56,62.56,0,0,0-3.58-9.84,63.4,63.4,0,0,0-5.19-9.1,62.07,62.07,0,0,0-14.58-14.94Z"/><path class="cls-4" d="M366.39,147.47a124.07,124.07,0,0,1,5.9,44.4l-61.76-3.09a61.23,61.23,0,0,0-2.95-22.2Z"/><path class="cls-5" d="M372.44,185.69c0,2.55-.08,5.11-.24,7.66s-.39,5.1-.71,7.64-.71,5.06-1.18,7.58-1,5-1.66,7.48-1.33,4.94-2.11,7.38-1.63,4.84-2.56,7.23-1.94,4.73-3,7.05-2.23,4.6-3.44,6.85-2.51,4.46-3.86,6.63-2.78,4.3-4.27,6.38-3,4.11-4.65,6.1-3.28,3.91-5,5.8-3.53,3.7-5.37,5.47-3.75,3.49-5.7,5.14-3.95,3.24-6,4.77-4.14,3-6.28,4.39l-33.8-51.78a62.08,62.08,0,0,0,6.15-4.58,62.87,62.87,0,0,0,5.53-5.3,64,64,0,0,0,4.83-6,61.56,61.56,0,0,0,4.06-6.51,60.86,60.86,0,0,0,3.23-7,61.94,61.94,0,0,0,3.76-14.83,63.09,63.09,0,0,0,.47-7.65Z"/><path class="cls-6" d="M321.47,285.73c-2.07,1.5-4.19,2.94-6.34,4.31s-4.36,2.68-6.6,3.92-4.52,2.4-6.83,3.49-4.65,2.12-7,3.07-4.78,1.82-7.2,2.62-4.89,1.53-7.36,2.17-5,1.22-7.48,1.72-5,.9-7.56,1.24-5.08.6-7.63.77-5.11.28-7.67.3-5.11,0-7.67-.17-5.1-.36-7.64-.65-5.07-.68-7.58-1.13-5-1-7.51-1.59-4.94-1.29-7.39-2.05-4.85-1.6-7.24-2.51l22-57.78a62.1,62.1,0,0,0,14.86,3.64,59.39,59.39,0,0,0,7.66.41,60.91,60.91,0,0,0,7.64-.53,61.71,61.71,0,0,0,14.81-3.88,62.17,62.17,0,0,0,13.39-7.39Z"/><path class="cls-7" d="M210.57,303.3q-4.81-1.57-9.47-3.51T192,295.52q-4.48-2.32-8.77-5t-8.33-5.71q-4-3-7.84-6.36t-7.3-7q-3.5-3.63-6.7-7.55T147,255.85q-2.87-4.15-5.38-8.54t-4.67-8.95q-2.16-4.58-3.93-9.3t-3.15-9.6q-1.38-4.86-2.36-9.81c-.65-3.31-1.17-6.63-1.55-10s-.62-6.7-.73-10.07-.08-6.73.09-10.09L187,182.6c-.09,1.68-.1,3.36-.05,5s.18,3.37.37,5,.44,3.34.77,5,.72,3.29,1.18,4.91,1,3.21,1.58,4.79,1.24,3.13,2,4.65,1.49,3,2.33,4.48,1.74,2.88,2.69,4.27,2,2.73,3,4,2.18,2.57,3.35,3.78,2.38,2.38,3.64,3.49,2.57,2.17,3.92,3.18,2.74,2,4.17,2.85,2.89,1.73,4.39,2.5,3,1.49,4.57,2.14,3.13,1.23,4.73,1.75Z"/><path class="cls-8" d="M125.12,185.69q0-3,.15-6.07t.45-6.06q.28-3,.74-6c.3-2,.64-4,1-6s.83-4,1.33-5.92,1-3.92,1.62-5.85,1.22-3.86,1.9-5.76,1.41-3.8,2.18-5.67,1.6-3.72,2.46-5.55,1.78-3.63,2.73-5.42,1.95-3.54,3-5.28,2.13-3.44,3.25-5.13,2.29-3.33,3.5-5,2.45-3.22,3.73-4.78,2.61-3.1,4-4.6,2.76-3,4.19-4.4,2.89-2.82,4.39-4.18,3-2.68,4.6-4,3.16-2.52,4.78-3.73,3.28-2.37,5-3.49,3.39-2.21,5.12-3.25,3.5-2,5.28-3,3.59-1.87,5.42-2.73,3.68-1.69,5.55-2.46,3.76-1.51,5.66-2.19,3.83-1.31,5.77-1.9,3.88-1.13,5.85-1.62,3.93-.93,5.92-1.33,4-.74,6-1,4-.54,6-.74,4-.35,6-.45,4-.15,6.07-.15v61.84q-3,0-6.06.29t-6,.89c-2,.4-4,.89-5.88,1.48s-3.85,1.27-5.72,2-3.69,1.64-5.48,2.6a58.15,58.15,0,0,0-5.2,3.12c-1.69,1.12-3.31,2.33-4.88,3.61s-3.06,2.64-4.49,4.07-2.79,2.94-4.08,4.5-2.49,3.19-3.61,4.87A61.89,61.89,0,0,0,191.66,162q-1.17,2.8-2,5.72a59.44,59.44,0,0,0-1.47,5.88c-.4,2-.69,4-.89,6s-.3,4-.3,6.07Z"/><rect class="cls-9" x="248.78" y="62.02" width="0.01" height="61.83"/><g class="cls-10"><rect class="cls-11" x="220.13" y="155.61" width="58.84" height="57.39"/></g><g class="cls-12"><rect class="cls-13" x="219.92" y="136.08" width="59.24" height="36.62"/></g><g class="cls-14"><rect class="cls-15" x="220.86" y="196.67" width="58.09" height="36.65"/></g><g class="cls-16"><rect class="cls-17" x="199.56" y="156.32" width="38.72" height="56.89"/></g><g class="cls-18"><rect class="cls-19" x="262.14" y="156.29" width="38.18" height="55.84"/></g><path class="cls-20" d="M276.09,143.77a5.44,5.44,0,1,1-5.44-5.43A5.44,5.44,0,0,1,276.09,143.77Z"/><path class="cls-20" d="M234.36,143.77a5.44,5.44,0,1,1-5.43-5.43A5.43,5.43,0,0,1,234.36,143.77Z"/><path class="cls-20" d="M255.09,164.22a5.44,5.44,0,1,1-5.27-5.6A5.44,5.44,0,0,1,255.09,164.22Z"/><path class="cls-20" d="M207.89,158.45a5.44,5.44,0,1,1-5.43,5.44A5.44,5.44,0,0,1,207.89,158.45Z"/><path class="cls-20" d="M207.89,199a5.44,5.44,0,1,1-5.43,5.43A5.44,5.44,0,0,1,207.89,199Z"/><path class="cls-20" d="M228.86,199a5.44,5.44,0,1,1-5.44,5.43A5.43,5.43,0,0,1,228.86,199Z"/><circle class="cls-20" cx="228.86" cy="224.65" r="5.44"/><path class="cls-20" d="M249.65,199a5.44,5.44,0,1,1-5.43,5.43A5.44,5.44,0,0,1,249.65,199Z"/><circle class="cls-20" cx="270.57" cy="224.65" r="5.44" transform="translate(-77.7 175.8) rotate(-31.72)"/><path class="cls-20" d="M270.57,199a5.44,5.44,0,1,1-5.44,5.43A5.43,5.43,0,0,1,270.57,199Z"/><path class="cls-20" d="M249.65,178.61a5.44,5.44,0,1,1-5.43,5.44A5.45,5.45,0,0,1,249.65,178.61Z"/><path class="cls-20" d="M270.57,178.61a5.44,5.44,0,1,1-5.44,5.44A5.44,5.44,0,0,1,270.57,178.61Z"/><path class="cls-20" d="M291.34,199a5.44,5.44,0,1,1-5.43,5.43A5.44,5.44,0,0,1,291.34,199Z"/><path class="cls-20" d="M270.57,158.45a5.44,5.44,0,1,1-5.44,5.44A5.43,5.43,0,0,1,270.57,158.45Z"/><path class="cls-20" d="M228.86,158.45a5.44,5.44,0,1,1-5.44,5.44A5.43,5.43,0,0,1,228.86,158.45Z"/><path class="cls-20" d="M291.45,158.45a5.44,5.44,0,1,1-5.43,5.44A5.44,5.44,0,0,1,291.45,158.45Z"/><path class="cls-20" d="M228.86,178.61a5.44,5.44,0,1,1-5.44,5.44A5.44,5.44,0,0,1,228.86,178.61Z"/><text class="cls-21" transform="translate(41.24 77.21)">PUBLIC SALE 3<tspan x="38.68" y="19.3">25%</tspan></text><text class="cls-21" transform="translate(222.09 12.11)">AIRDROP<tspan x="18.02" y="19.3">10%</tspan></text><text class="cls-21" transform="translate(383.92 80.57)">MANAGEMENT TEAM<tspan x="59.62" y="19.3">10%</tspan></text><text class="cls-21" transform="translate(417.07 169.32)">MARKETING<tspan x="33.1" y="19.3">5%</tspan></text><text class="cls-21" transform="translate(383.04 262.61)">PRIVATE INVESTMENT<tspan x="63.19" y="19.3">15%</tspan></text><text class="cls-21" transform="translate(195.11 339.05)">PUBLIC SALE 1<tspan x="38.68" y="19.3">15%</tspan></text><text class="cls-21" transform="translate(14.4 274.72)">PUBLIC SALE 2<tspan x="38.68" y="19.3">20%</tspan></text></svg>