<svg id="Layer_1" data-name="Layer 1" xmlns="http://www.w3.org/2000/svg" xmlns:xlink="http://www.w3.org/1999/xlink" viewBox="0 0 553.76 361.99"><defs><style>.cls-1,.cls-21{fill:none;}.cls-2{font-size:16.08px;fill:#fff;font-family:OpenSans-Bold, OpenSans Bold;font-weight:700;}.cls-3{fill:#5e17eb;}.cls-4{fill:#3c32dd;}.cls-5{fill:#1a3eca;}.cls-6{fill:#0044b5;}.cls-7{fill:#002c6d;}.cls-8{fill:#6849a5;}.cls-9{fill:#a04ba1;}.cls-10{fill:#ca5394;}.cls-11{clip-path:url(#clip-path);}.cls-12{fill:url(#linear-gradient);}.cls-13{clip-path:url(#clip-path-2);}.cls-14{fill:url(#linear-gradient-2);}.cls-15{clip-path:url(#clip-path-3);}.cls-16{fill:url(#linear-gradient-3);}.cls-17{clip-path:url(#clip-path-4);}.cls-18{fill:url(#linear-gradient-4);}.cls-19{clip-path:url(#clip-path-5);}.cls-20{fill:url(#linear-gradient-5);}.cls-21{stroke:#fff;stroke-miterlimit:10;}</style><clipPath id="clip-path"><path class="cls-1" d="M215.16,157.24a7.77,7.77,0,0,0,11,5.3.81.81,0,0,1,1.08.15q4.53,4.42,9.09,8.81a.92.92,0,0,1,.23,1.22,7.49,7.49,0,0,0,0,6,1.08,1.08,0,0,1-.32,1.48q-4.46,4.25-8.85,8.55c-.48.47-.84.4-1.39.17A7.71,7.71,0,0,0,215,196.24a8,8,0,0,0,1.64,4.5A7.74,7.74,0,0,0,229.9,193a1,1,0,0,1,.24-1.38c3-2.85,6-5.73,8.9-8.61a1,1,0,0,1,1.32-.25,7.29,7.29,0,0,0,6.5,0,1.11,1.11,0,0,1,1.45.3q4.31,4.22,8.66,8.37a1.28,1.28,0,0,1,.35,1.67,7.76,7.76,0,1,0,4-4.15,1.07,1.07,0,0,1-1.39-.25q-4.42-4.34-8.9-8.62a1,1,0,0,1-.27-1.28,7.35,7.35,0,0,0,0-6,1.05,1.05,0,0,1,.27-1.38q4.5-4.33,9-8.7a.88.88,0,0,1,1.16-.21,7.68,7.68,0,0,0,9.62-2.42,7.71,7.71,0,0,0-9.55-11.49,7.68,7.68,0,0,0-3.86,9.93c.19.5.3.88-.17,1.33-3.05,2.91-6.07,5.86-9.12,8.77a1.11,1.11,0,0,1-1,.17,7.73,7.73,0,0,0-6.83,0,.81.81,0,0,1-1.09-.19q-4.53-4.41-9.09-8.8a.88.88,0,0,1-.22-1.16,7.69,7.69,0,0,0-5.32-10.59,7.13,7.13,0,0,0-1.81-.23,7.83,7.83,0,0,0-7.56,9.37"/></clipPath><linearGradient id="linear-gradient" x1="-588.56" y1="591.78" x2="-587.56" y2="591.78" gradientTransform="matrix(57.26, 0, 0, -57.26, 33913.81, 34059.18)" gradientUnits="userSpaceOnUse"><stop offset="0" stop-color="#cb01ff"/><stop offset="1" stop-color="#00ff57"/></linearGradient><clipPath id="clip-path-2"><path class="cls-1" d="M262.5,127.94a7.74,7.74,0,0,0-5.09,10.61,1,1,0,0,1-.23,1.32q-4.41,4.35-8.77,8.75a.82.82,0,0,1-1.14.18,7.45,7.45,0,0,0-7.14-.07,1,1,0,0,1-1.44-.23q-4.29-4.35-8.64-8.63a1,1,0,0,1-.26-1.3,7.67,7.67,0,0,0-7.06-10.86l-.92.07c-4.51.3-8,5.51-6.48,9.76,1.67,4.8,6,6.75,10.78,4.86a1,1,0,0,1,.91.16q4.6,4.53,9.14,9.13a1.23,1.23,0,0,1,.2,1.06,8.56,8.56,0,0,0-.29,4.54c1,4.24,5.5,7,9.47,5.78,4.66-1.41,7-5.9,5.28-10.29a.85.85,0,0,1,.18-1.09q4.6-4.53,9.17-9.1a.8.8,0,0,1,1.08-.19,7.46,7.46,0,0,0,5.68.34,7.74,7.74,0,0,0,5-9.5,7.85,7.85,0,0,0-7.42-5.58,7.59,7.59,0,0,0-2,.28"/></clipPath><linearGradient id="linear-gradient-2" x1="-588.56" y1="591.78" x2="-587.56" y2="591.78" gradientTransform="matrix(57.24, 0, 0, -57.24, 33903.4, 34018.65)" xlink:href="#linear-gradient"/><clipPath id="clip-path-3"><path class="cls-1" d="M241.79,188.49a7.75,7.75,0,0,0-5.2,10.81,1,1,0,0,1-.1.89q-4.5,4.58-9.07,9.07a1.09,1.09,0,0,1-.89.13c-.39-.11-.77-.24-1.16-.37a7.86,7.86,0,0,0-9.74,4.14,7.64,7.64,0,0,0,0,5.85A7.72,7.72,0,0,0,230,213.59a1.41,1.41,0,0,1,.28-1.52q4.45-4.38,8.84-8.81c.48-.49.83-.53,1.59-.09a6,6,0,0,0,6.11-.19c.84-.52,1.2-.41,1.73.13,2.59,2.62,5.17,5.26,7.84,7.79a2.35,2.35,0,0,1,.73,2.93,7.68,7.68,0,0,0,7.85,10,7.73,7.73,0,1,0-3.64-14.78,1.19,1.19,0,0,1-1.31-.22q-4.5-4.51-9-9a1,1,0,0,1-.22-1.1,7.31,7.31,0,0,0-1.46-8,7.19,7.19,0,0,0-5.53-2.57,9,9,0,0,0-2,.24"/></clipPath><linearGradient id="linear-gradient-3" x1="-588.55" y1="591.78" x2="-587.55" y2="591.78" gradientTransform="matrix(57.21, 0, 0, -57.21, 33885.36, 34061.4)" xlink:href="#linear-gradient"/><clipPath id="clip-path-4"><path class="cls-1" d="M198.19,148.82a7.72,7.72,0,0,0,7,13.78.93.93,0,0,1,1.07.18c3,3.06,6.09,6.09,9.11,9.16a1.06,1.06,0,0,1,.2,1,7.55,7.55,0,0,0,0,5.59,1.14,1.14,0,0,1-.22,1.23q-4.5,4.44-9,8.94a1,1,0,0,1-1.29.26,7.68,7.68,0,0,0-10.4,9.75c0,.11.08.22.13.33a7.71,7.71,0,0,0,10.13,4,7.63,7.63,0,0,0,4-10.34c-.26-.59-.14-.89.6-1.43l6.4-6.53c2.23-2.28,2.23-2.65,3.3-2.13a7.43,7.43,0,0,0,8.51-.95c4.5-3.7,3.77-11.61-3.46-13.59a6.78,6.78,0,0,0-5.09.86.82.82,0,0,1-1.19-.14c-2.94-3-5.91-5.94-8.88-8.89a.81.81,0,0,1-.2-1.07,7.71,7.71,0,0,0-7-11,8,8,0,0,0-3.73.92"/></clipPath><linearGradient id="linear-gradient-4" x1="-582.73" y1="593.2" x2="-581.73" y2="593.2" gradientTransform="matrix(36.38, 0, 0, -36.38, 21391.52, 21754.27)" xlink:href="#linear-gradient"/><clipPath id="clip-path-5"><path class="cls-1" d="M281.88,148.72a7.67,7.67,0,0,0-3.62,9.87c.21.53.34.91-.16,1.4-3,2.92-5.9,5.87-8.82,8.83a.77.77,0,0,1-1.13.15,7.73,7.73,0,0,0-10,11.2,7.68,7.68,0,0,0,9.41,2.71,1.18,1.18,0,0,1,1.54.29q4.32,4.38,8.7,8.69a1.17,1.17,0,0,1,.35,1.45,7.74,7.74,0,0,0,7.17,10.4,7.6,7.6,0,0,0,5.83-2.55,7.72,7.72,0,0,0-9.27-12,1,1,0,0,1-1.35-.23q-4.31-4.33-8.65-8.62a1,1,0,0,1-.28-1.37,7.23,7.23,0,0,0,.16-5.85,1,1,0,0,1,.27-1.23q4.51-4.48,9-9a.86.86,0,0,1,1.15-.2,7.38,7.38,0,0,0,5.93.22,7.72,7.72,0,0,0-2.72-15,7.61,7.61,0,0,0-3.48.85"/></clipPath><linearGradient id="linear-gradient-5" x1="-582.71" y1="593.22" x2="-581.71" y2="593.22" gradientTransform="matrix(36.33, 0, 0, -36.33, 21424.29, 21724.84)" xlink:href="#linear-gradient"/></defs><text class="cls-2" transform="translate(32.72 60.96)">P</text><text class="cls-2" transform="translate(42.91 60.96)">U</text><text class="cls-2" transform="translate(53.47 60.96)">B</text><text class="cls-2" transform="translate(63.65 60.96)">L</text><text class="cls-2" transform="translate(68.56 60.96)">I</text><text class="cls-2" transform="translate(73.46 60.96)">C</text><text class="cls-2" transform="translate(81.73 60.96)"> </text><text class="cls-2" transform="translate(85.91 60.96)">S</text><text class="cls-2" transform="translate(93.9 60.96)">A</text><text class="cls-2" transform="translate(103.62 60.96)">L</text><text class="cls-2" transform="translate(108.52 60.96)">E</text><text class="cls-2" transform="translate(118.03 60.96)"> </text><text class="cls-2" transform="translate(122.21 60.96)">3</text><text class="cls-2" transform="translate(65.65 83.39)">2</text><text class="cls-2" transform="translate(74.83 83.39)">5</text><text class="cls-2" transform="translate(84.01 83.39)">%</text><text class="cls-2" transform="translate(16.71 264.82)">P</text><text class="cls-2" transform="translate(26.89 264.82)">U</text><text class="cls-2" transform="translate(37.45 264.82)">B</text><text class="cls-2" transform="translate(47.63 264.82)">L</text><text class="cls-2" transform="translate(52.54 264.82)">I</text><text class="cls-2" transform="translate(57.44 264.82)">C</text><text class="cls-2" transform="translate(65.71 264.82)"> </text><text class="cls-2" transform="translate(69.89 264.82)">S</text><text class="cls-2" transform="translate(77.89 264.82)">A</text><text class="cls-2" transform="translate(87.6 264.82)">L</text><text class="cls-2" transform="translate(92.51 264.82)">E</text><text class="cls-2" transform="translate(102.01 264.82)"> </text><text class="cls-2" transform="translate(106.19 264.82)">2</text><text class="cls-2" transform="translate(49.63 287.26)">2</text><text class="cls-2" transform="translate(58.81 287.26)">0</text><text class="cls-2" transform="translate(67.99 287.26)">%</text><text class="cls-2" transform="translate(383.05 243.76)">P</text><text class="cls-2" transform="translate(393.15 243.76)">R</text><text class="cls-2" transform="translate(403.76 243.76)">I</text><text class="cls-2" transform="translate(409.08 243.76)">V</text><text class="cls-2" transform="translate(419.54 243.76)">A</text><text class="cls-2" transform="translate(430.64 243.76)">T</text><text class="cls-2" transform="translate(439.95 243.76)">E</text><text class="cls-2" transform="translate(448.95 243.76)"> </text><text class="cls-2" transform="translate(453.14 243.76)">I</text><text class="cls-2" transform="translate(458.46 243.76)">N</text><text class="cls-2" transform="translate(471.54 243.76)">V</text><text class="cls-2" transform="translate(481.99 243.76)">E</text><text class="cls-2" transform="translate(491 243.76)">S</text><text class="cls-2" transform="translate(499.86 243.76)">T</text><text class="cls-2" transform="translate(509.17 243.76)">M</text><text class="cls-2" transform="translate(524.34 243.76)">E</text><text class="cls-2" transform="translate(533.34 243.76)">N</text><text class="cls-2" transform="translate(546.42 243.76)">T</text><text class="cls-2" transform="translate(452.99 266.19)">1</text><text class="cls-2" transform="translate(462.18 266.19)">5</text><text class="cls-2" transform="translate(471.36 266.19)">%</text><text class="cls-2" transform="translate(218.11 327.77)">P</text><text class="cls-2" transform="translate(228.29 327.77)">U</text><text class="cls-2" transform="translate(238.86 327.77)">B</text><text class="cls-2" transform="translate(249.04 327.77)">L</text><text class="cls-2" transform="translate(253.95 327.77)">I</text><text class="cls-2" transform="translate(258.85 327.77)">C</text><text class="cls-2" transform="translate(267.12 327.77)"> </text><text class="cls-2" transform="translate(271.3 327.77)">S</text><text class="cls-2" transform="translate(279.29 327.77)">A</text><text class="cls-2" transform="translate(289.01 327.77)">L</text><text class="cls-2" transform="translate(293.91 327.77)">E</text><text class="cls-2" transform="translate(303.42 327.77)"> </text><text class="cls-2" transform="translate(307.6 327.77)">1</text><text class="cls-2" transform="translate(251.04 350.21)">1</text><text class="cls-2" transform="translate(260.22 350.21)">5</text><text class="cls-2" transform="translate(269.4 350.21)">%</text><text class="cls-2" transform="translate(255.27 22.55)">A</text><text class="cls-2" transform="translate(266.36 22.55)">I</text><text class="cls-2" transform="translate(271.69 22.55)">R</text><text class="cls-2" transform="translate(282.3 22.55)">D</text><text class="cls-2" transform="translate(294.2 22.55)">R</text><text class="cls-2" transform="translate(304.82 22.55)">O</text><text class="cls-2" transform="translate(317.62 22.55)">P</text><text class="cls-2" transform="translate(275.06 44.98)">1</text><text class="cls-2" transform="translate(284.25 44.98)">0</text><text class="cls-2" transform="translate(293.43 44.98)">%</text><text class="cls-2" transform="translate(370.23 79.74)">M</text><text class="cls-2" transform="translate(385.39 79.74)">A</text><text class="cls-2" transform="translate(396.49 79.74)">N</text><text class="cls-2" transform="translate(409.57 79.74)">A</text><text class="cls-2" transform="translate(420.66 79.74)">G</text><text class="cls-2" transform="translate(432.31 79.74)">E</text><text class="cls-2" transform="translate(441.32 79.74)">M</text><text class="cls-2" transform="translate(456.48 79.74)">E</text><text class="cls-2" transform="translate(465.49 79.74)">N</text><text class="cls-2" transform="translate(478.56 79.74)">T</text><text class="cls-2" transform="translate(487.88 79.74)"> </text><text class="cls-2" transform="translate(492.06 79.74)">T</text><text class="cls-2" transform="translate(501.37 79.74)">E</text><text class="cls-2" transform="translate(510.38 79.74)">A</text><text class="cls-2" transform="translate(521.47 79.74)">M</text><text class="cls-2" transform="translate(437.02 102.18)">1</text><text class="cls-2" transform="translate(446.2 102.18)">0</text><text class="cls-2" transform="translate(455.39 102.18)">%</text><text class="cls-2" transform="translate(398.39 147.66)">M</text><text class="cls-2" transform="translate(413.56 147.66)">A</text><text class="cls-2" transform="translate(424.65 147.66)">R</text><text class="cls-2" transform="translate(435.27 147.66)">K</text><text class="cls-2" transform="translate(445.95 147.66)">E</text><text class="cls-2" transform="translate(454.95 147.66)">T</text><text class="cls-2" transform="translate(464.27 147.66)">I</text><text class="cls-2" transform="translate(469.59 147.66)">N</text><text class="cls-2" transform="translate(482.66 147.66)">G</text><text class="cls-2" transform="translate(434.53 170.09)">5</text><text class="cls-2" transform="translate(443.71 170.09)">%</text><path class="cls-3" d="M242.7,53.6A123.85,123.85,0,0,1,320.3,81l-38.8,48.14a62,62,0,0,0-28.36-12.8,62,62,0,0,0-10.44-.88Z"/><path class="cls-4" d="M315.39,77.22a123.58,123.58,0,0,1,39.52,48.08A122.45,122.45,0,0,1,362.07,145l-59.68,16.14a62.56,62.56,0,0,0-3.58-9.84A61.8,61.8,0,0,0,287,134.09a62.37,62.37,0,0,0-7.93-6.85Z"/><path class="cls-5" d="M360.31,139.05a123.48,123.48,0,0,1,5.9,44.4l-61.75-3.09a61.67,61.67,0,0,0-2.95-22.2Z"/><path class="cls-6" d="M366.36,177.27c0,2.55-.08,5.11-.24,7.66s-.39,5.1-.71,7.64-.71,5.06-1.18,7.58-1,5-1.65,7.48-1.34,4.94-2.12,7.38-1.63,4.84-2.56,7.23-1.94,4.73-3,7-2.23,4.6-3.44,6.85-2.51,4.46-3.86,6.63-2.78,4.3-4.27,6.38-3,4.11-4.64,6.1-3.29,3.91-5,5.8-3.53,3.7-5.37,5.47-3.75,3.49-5.7,5.14-3.95,3.24-6,4.77-4.15,3-6.29,4.39L276.5,229a62.08,62.08,0,0,0,6.15-4.58A61.45,61.45,0,0,0,293,213.21a61.56,61.56,0,0,0,4.06-6.51,60.86,60.86,0,0,0,3.23-6.95,61.94,61.94,0,0,0,3.76-14.83,63.09,63.09,0,0,0,.47-7.65Z"/><path class="cls-7" d="M315.39,277.31c-2.07,1.5-4.19,2.94-6.34,4.31s-4.36,2.68-6.6,3.92-4.52,2.4-6.83,3.49-4.65,2.12-7,3.07-4.77,1.82-7.2,2.62-4.89,1.53-7.36,2.17-5,1.22-7.48,1.72-5,.9-7.56,1.24-5.08.6-7.63.77-5.11.28-7.67.3-5.11,0-7.66-.17-5.11-.36-7.65-.65-5.07-.68-7.58-1.13-5-1-7.51-1.59-4.94-1.29-7.38-2.05-4.86-1.6-7.25-2.51l22-57.78a62.1,62.1,0,0,0,14.86,3.64,59.49,59.49,0,0,0,7.66.41,60.91,60.91,0,0,0,7.64-.53,61.94,61.94,0,0,0,21.74-7.16,63,63,0,0,0,6.46-4.11Z"/><path class="cls-8" d="M204.49,294.88q-4.81-1.58-9.47-3.51t-9.15-4.27q-4.49-2.33-8.77-5t-8.33-5.71q-4.05-3-7.84-6.36t-7.3-7q-3.49-3.63-6.7-7.55t-6.06-8.07q-2.87-4.16-5.38-8.54t-4.67-8.95q-2.16-4.58-3.93-9.3t-3.15-9.6q-1.38-4.86-2.36-9.81c-.65-3.31-1.17-6.63-1.55-10s-.62-6.7-.73-10.07-.07-6.73.09-10.09L181,174.18c-.09,1.68-.1,3.36,0,5s.18,3.37.37,5,.45,3.34.77,5,.72,3.29,1.18,4.91,1,3.21,1.58,4.79,1.24,3.13,2,4.65,1.49,3,2.33,4.48,1.74,2.88,2.7,4.27,2,2.73,3,4,2.18,2.57,3.35,3.78,2.38,2.38,3.65,3.49,2.56,2.17,3.92,3.18,2.73,2,4.16,2.85,2.89,1.73,4.39,2.5,3,1.49,4.57,2.14,3.13,1.23,4.73,1.75Z"/><path class="cls-9" d="M119,177.27q0-3,.15-6.07t.45-6.06q.28-3,.74-6c.3-2,.64-4,1-6s.84-4,1.33-5.92,1-3.92,1.62-5.85,1.22-3.86,1.9-5.76,1.41-3.8,2.19-5.67,1.59-3.72,2.45-5.55,1.78-3.63,2.73-5.42,2-3.54,3-5.28,2.12-3.44,3.24-5.13,2.29-3.33,3.5-5,2.45-3.22,3.73-4.78,2.61-3.1,4-4.6,2.75-3,4.18-4.4,2.9-2.82,4.4-4.18,3-2.68,4.59-4,3.16-2.52,4.79-3.73,3.27-2.37,5-3.49,3.39-2.21,5.12-3.25,3.5-2,5.28-3,3.6-1.87,5.43-2.73,3.67-1.69,5.54-2.46,3.76-1.51,5.67-2.19,3.82-1.31,5.76-1.9,3.88-1.13,5.85-1.62,3.93-.93,5.92-1.33,4-.74,6-1,4-.54,6-.74,4-.35,6.05-.45,4-.15,6.07-.15v61.84q-3,0-6.06.29t-6,.89q-3,.6-5.88,1.48t-5.71,2c-1.88.78-3.7,1.64-5.49,2.6a58.15,58.15,0,0,0-5.2,3.12c-1.69,1.12-3.31,2.33-4.88,3.61s-3.06,2.64-4.49,4.07-2.79,2.94-4.08,4.5-2.49,3.19-3.61,4.87a59.77,59.77,0,0,0-3.12,5.21c-.95,1.79-1.82,3.61-2.59,5.48s-1.46,3.78-2.05,5.72a59.44,59.44,0,0,0-1.47,5.88c-.4,2-.69,4-.89,6s-.3,4-.3,6.07Z"/><rect class="cls-10" x="242.7" y="53.6" width="0.01" height="61.83"/><g class="cls-11"><rect class="cls-12" x="214.05" y="147.19" width="58.84" height="57.39"/></g><g class="cls-13"><rect class="cls-14" x="213.84" y="127.66" width="59.24" height="36.62"/></g><g class="cls-15"><rect class="cls-16" x="214.78" y="188.25" width="58.09" height="36.65"/></g><g class="cls-17"><rect class="cls-18" x="193.48" y="147.9" width="38.72" height="56.89"/></g><g class="cls-19"><rect class="cls-20" x="256.06" y="147.87" width="38.18" height="55.84"/></g><path class="cls-21" d="M270,135.35a5.44,5.44,0,1,1-5.44-5.43A5.43,5.43,0,0,1,270,135.35Z"/><path class="cls-21" d="M228.28,135.35a5.44,5.44,0,1,1-5.43-5.43A5.43,5.43,0,0,1,228.28,135.35Z"/><path class="cls-21" d="M249,155.8a5.44,5.44,0,1,1-5.27-5.6A5.44,5.44,0,0,1,249,155.8Z"/><path class="cls-21" d="M201.81,150a5.44,5.44,0,1,1-5.43,5.44A5.43,5.43,0,0,1,201.81,150Z"/><path class="cls-21" d="M201.81,190.58a5.44,5.44,0,1,1-5.43,5.43A5.43,5.43,0,0,1,201.81,190.58Z"/><path class="cls-21" d="M222.78,190.58a5.44,5.44,0,1,1-5.44,5.43A5.43,5.43,0,0,1,222.78,190.58Z"/><circle class="cls-21" cx="222.78" cy="216.23" r="5.44"/><path class="cls-21" d="M243.57,190.58a5.44,5.44,0,1,1-5.43,5.43A5.44,5.44,0,0,1,243.57,190.58Z"/><circle class="cls-21" cx="264.49" cy="216.23" r="5.44" transform="translate(-74.18 171.34) rotate(-31.72)"/><path class="cls-21" d="M264.49,190.58a5.44,5.44,0,1,1-5.44,5.43A5.43,5.43,0,0,1,264.49,190.58Z"/><path class="cls-21" d="M243.57,170.19a5.44,5.44,0,1,1-5.43,5.44A5.45,5.45,0,0,1,243.57,170.19Z"/><path class="cls-21" d="M264.49,170.19a5.44,5.44,0,1,1-5.44,5.44A5.44,5.44,0,0,1,264.49,170.19Z"/><path class="cls-21" d="M285.26,190.58a5.44,5.44,0,1,1-5.43,5.43A5.44,5.44,0,0,1,285.26,190.58Z"/><path class="cls-21" d="M264.49,150a5.44,5.44,0,1,1-5.44,5.44A5.43,5.43,0,0,1,264.49,150Z"/><path class="cls-21" d="M222.78,150a5.44,5.44,0,1,1-5.44,5.44A5.43,5.43,0,0,1,222.78,150Z"/><path class="cls-21" d="M285.37,150a5.44,5.44,0,1,1-5.43,5.44A5.43,5.43,0,0,1,285.37,150Z"/><path class="cls-21" d="M222.78,170.19a5.44,5.44,0,1,1-5.44,5.44A5.44,5.44,0,0,1,222.78,170.19Z"/></svg>