<svg id="Layer_1" data-name="Layer 1" xmlns="http://www.w3.org/2000/svg" xmlns:xlink="http://www.w3.org/1999/xlink" viewBox="0 0 541.06 77.29"><defs><style>.cls-1,.cls-10,.cls-11,.cls-12,.cls-13,.cls-14,.cls-15,.cls-16,.cls-17,.cls-2,.cls-3,.cls-4,.cls-5,.cls-6,.cls-7,.cls-8,.cls-9{fill:none;stroke-miterlimit:10;stroke-width:2px;}.cls-1{stroke:url(#linear-gradient);}.cls-2{stroke:url(#linear-gradient-2);}.cls-3{stroke:url(#linear-gradient-3);}.cls-4{stroke:url(#linear-gradient-4);}.cls-5{stroke:url(#linear-gradient-5);}.cls-6{stroke:url(#linear-gradient-6);}.cls-7{stroke:url(#linear-gradient-7);}.cls-8{stroke:url(#linear-gradient-8);}.cls-9{stroke:url(#linear-gradient-9);}.cls-10{stroke:url(#linear-gradient-10);}.cls-11{stroke:url(#linear-gradient-11);}.cls-12{stroke:url(#linear-gradient-12);}.cls-13{stroke:url(#linear-gradient-13);}.cls-14{stroke:url(#linear-gradient-14);}.cls-15{stroke:url(#linear-gradient-15);}.cls-16{stroke:url(#linear-gradient-16);}.cls-17{stroke:url(#linear-gradient-17);}</style><linearGradient id="linear-gradient" x1="6.16" y1="38.38" x2="44.2" y2="38.38" gradientUnits="userSpaceOnUse"><stop offset="0" stop-color="#c901fd"/><stop offset="1" stop-color="#00ff57"/></linearGradient><linearGradient id="linear-gradient-2" x1="48.89" y1="38.25" x2="61.78" y2="38.25" xlink:href="#linear-gradient"/><linearGradient id="linear-gradient-3" x1="64.91" y1="39.45" x2="89.21" y2="39.45" xlink:href="#linear-gradient"/><linearGradient id="linear-gradient-4" x1="89.83" y1="45.15" x2="122.24" y2="45.15" xlink:href="#linear-gradient"/><linearGradient id="linear-gradient-5" x1="125.98" y1="38.38" x2="157.81" y2="38.38" xlink:href="#linear-gradient"/><linearGradient id="linear-gradient-6" x1="163.15" y1="44.89" x2="185.51" y2="44.89" xlink:href="#linear-gradient"/><linearGradient id="linear-gradient-7" x1="186.17" y1="45.15" x2="219.37" y2="45.15" xlink:href="#linear-gradient"/><linearGradient id="linear-gradient-8" x1="232.36" y1="38.38" x2="276.96" y2="38.38" xlink:href="#linear-gradient"/><linearGradient id="linear-gradient-9" x1="277.99" y1="38.38" x2="290.71" y2="38.38" xlink:href="#linear-gradient"/><linearGradient id="linear-gradient-10" x1="296.55" y1="38.38" x2="309.28" y2="38.38" xlink:href="#linear-gradient"/><linearGradient id="linear-gradient-11" x1="313.52" y1="45.15" x2="346.72" y2="45.15" xlink:href="#linear-gradient"/><linearGradient id="linear-gradient-12" x1="349.36" y1="45.15" x2="381.77" y2="45.15" xlink:href="#linear-gradient"/><linearGradient id="linear-gradient-13" x1="384.33" y1="45.13" x2="418.03" y2="45.13" xlink:href="#linear-gradient"/><linearGradient id="linear-gradient-14" x1="420.02" y1="39.45" x2="444.32" y2="39.45" xlink:href="#linear-gradient"/><linearGradient id="linear-gradient-15" x1="446.46" y1="38.25" x2="459.35" y2="38.25" xlink:href="#linear-gradient"/><linearGradient id="linear-gradient-16" x1="463.51" y1="45.15" x2="496.71" y2="45.15" xlink:href="#linear-gradient"/><linearGradient id="linear-gradient-17" x1="500.99" y1="44.75" x2="532.82" y2="44.75" xlink:href="#linear-gradient"/></defs><path class="cls-1" d="M7.16,12.41H24.9a33.65,33.65,0,0,1,9.41,1,9.81,9.81,0,0,1,5.33,4.34,15.15,15.15,0,0,1,2.15,8.33q0,8.71-7.42,11.19Q43.19,40.38,43.2,50a14.7,14.7,0,0,1-2.4,8.55,11.51,11.51,0,0,1-5.92,4.64,33.44,33.44,0,0,1-10,1.16H7.16Zm11,21h3.69q5.52,0,7-2a7.55,7.55,0,0,0,1.42-4.53,6.68,6.68,0,0,0-1.42-4.2q-1.43-1.84-6.11-1.85H18.12Zm0,22.07h5.6q7.88,0,7.87-6.8c0-2.51-.65-4.29-2-5.32s-3.28-1.54-5.91-1.54h-5.6Z"/><path class="cls-2" d="M60.78,22.76H49.89V12.15H60.78ZM50,25.92H60.7V64.35H50Z"/><path class="cls-3" d="M70.17,14.13l10.43-.35V25.92h7.08v8.45H80.6V48.48a46.44,46.44,0,0,0,.17,5.08,2.94,2.94,0,0,0,1.14,1.94,5.26,5.26,0,0,0,3.25.78c.82,0,1.83,0,3-.07v8.14a30.47,30.47,0,0,1-6.55.8c-3.24,0-5.73-.62-7.45-1.87A8.13,8.13,0,0,1,70.9,58.6a38.9,38.9,0,0,1-.73-8.94V34.37H65.91V25.92h4.26Z"/><path class="cls-4" d="M121.16,40.07l-10,.38a14.25,14.25,0,0,0-1.14-5.34A3.18,3.18,0,0,0,107,33.3q-5.41,0-5.41,11.34,0,6.59,1.32,9.21a4.16,4.16,0,0,0,3.9,2.62c2.68,0,4.16-2.37,4.41-7.11l10,.64q-1.34,15.15-15,15.15-7.41,0-11.34-5T90.83,45.25q0-9.82,4.13-14.95t11.57-5.14Q120,25.16,121.16,40.07Z"/><path class="cls-5" d="M127,12.41h10.73V30q2.89-4.87,9.44-4.87A9.56,9.56,0,0,1,153.33,27a7.91,7.91,0,0,1,2.87,4.62,40.42,40.42,0,0,1,.61,8.12V64.35H146.08V39.66c0-2.51-.23-4.18-.7-5s-1.44-1.23-2.91-1.23A5,5,0,0,0,139,34.6q-1.29,1.17-1.29,5.37V64.35H127Z"/><path class="cls-6" d="M164.15,25.92h9.44V35.2q2.55-9.76,9.09-9.77a9.81,9.81,0,0,1,1.83.19V36.08a15.44,15.44,0,0,0-1.79-.15q-7.83,0-7.84,11.87V64.35H164.15Z"/><path class="cls-7" d="M218.37,45.13q0,20-15.58,20t-15.62-20q0-20,15.62-20T218.37,45.13Zm-11.07,0q0-7.35-1-9.94a3.68,3.68,0,0,0-7-.14q-1.06,2.46-1.06,10.08,0,7.05.9,9.8a3.74,3.74,0,0,0,7.2,0Q207.3,52.24,207.3,45.15Z"/><path class="cls-8" d="M249.31,12.41H260.8l14.84,51.94H264l-2.59-10.73H246.74L244.2,64.35H233.71Zm9.91,32.31L254,23.44l-5,21.28Z"/><path class="cls-9" d="M279,12.41h10.72V64.35H279Z"/><path class="cls-10" d="M297.55,12.41h10.73V64.35H297.55Z"/><path class="cls-11" d="M345.72,45.13q0,20-15.58,20t-15.62-20q0-20,15.62-20T345.72,45.13Zm-11.07,0q0-7.35-1-9.94a3.68,3.68,0,0,0-7-.14q-1.07,2.46-1.06,10.08,0,7.05.9,9.8a3.74,3.74,0,0,0,7.2,0Q334.65,52.24,334.65,45.15Z"/><path class="cls-12" d="M380.69,40.07l-10,.38a14.25,14.25,0,0,0-1.14-5.34,3.18,3.18,0,0,0-3.08-1.81q-5.4,0-5.41,11.34,0,6.59,1.32,9.21a4.16,4.16,0,0,0,3.9,2.62q4,0,4.41-7.11l10,.64q-1.33,15.15-15.05,15.15-7.41,0-11.34-5t-3.94-14.89q0-9.82,4.13-14.95t11.57-5.14Q379.52,25.16,380.69,40.07Z"/><path class="cls-13" d="M396.78,38.13l-10.16-1a12.52,12.52,0,0,1,4.93-8.9,17.31,17.31,0,0,1,10.6-3.12,16,16,0,0,1,8.67,2.07A9.12,9.12,0,0,1,415,32a30.69,30.69,0,0,1,.86,8.48V55.83q0,7.16.64,8.52h-10a21.14,21.14,0,0,1-.54-5.9q-3.52,6.7-10.52,6.7a10.18,10.18,0,0,1-7.29-2.68q-2.81-2.69-2.81-7.82,0-6.43,4.25-9.95t15.5-4.21V39.05a12.61,12.61,0,0,0-.78-5.33,3.07,3.07,0,0,0-3-1.48Q397.2,32.24,396.78,38.13Zm8.3,7.88q-4.68.52-6.68,2.07c-1.33,1-2,2.75-2,5.17,0,3.24,1.2,4.86,3.58,4.86a4.42,4.42,0,0,0,3.52-2.18q1.58-2.19,1.58-8Z"/><path class="cls-14" d="M425.28,14.13l10.43-.35V25.92h7.07v8.45h-7.07V48.48a43.9,43.9,0,0,0,.17,5.08A2.94,2.94,0,0,0,437,55.5a5.26,5.26,0,0,0,3.25.78c.81,0,1.83,0,3.05-.07v8.14a30.47,30.47,0,0,1-6.55.8c-3.24,0-5.73-.62-7.45-1.87A8.13,8.13,0,0,1,426,58.6a38.9,38.9,0,0,1-.73-8.94V34.37H421V25.92h4.26Z"/><path class="cls-15" d="M458.35,22.76H447.46V12.15h10.89Zm-10.81,3.16h10.73V64.35H447.54Z"/><path class="cls-16" d="M495.71,45.13q0,20-15.58,20t-15.62-20q0-20,15.62-20T495.71,45.13Zm-11.07,0q0-7.35-1-9.94a3.54,3.54,0,0,0-3.5-2.59,3.61,3.61,0,0,0-3.49,2.45c-.7,1.64-1.06,5-1.06,10.08,0,4.7.31,8,.91,9.8a3.74,3.74,0,0,0,7.2,0Q484.64,52.24,484.64,45.15Z"/><path class="cls-17" d="M502,25.92h10.16v5.25q2.65-6,9.62-6A10.72,10.72,0,0,1,528,26.85a7.43,7.43,0,0,1,3.13,4.32,34,34,0,0,1,.69,8V64.35H521.09V39.16c0-2.59-.33-4.18-1-4.79a3.77,3.77,0,0,0-2.66-.92q-2.9,0-3.81,1.77t-.91,6.6V64.35H502Z"/></svg>