<svg
  xmlns="http://www.w3.org/2000/svg"
  xmlns:xlink="http://www.w3.org/1999/xlink"
  id="Layer_1"
  data-name="Layer 1"
  viewBox="0 0 1727.66 154.57"
><defs><style
    >.cls-1,.cls-10,.cls-11,.cls-12,.cls-13,.cls-14,.cls-15,.cls-16,.cls-2,.cls-3,.cls-4,.cls-5,.cls-6,.cls-7,.cls-8,.cls-9{fill:none;stroke-miterlimit:10;stroke-width:3px;}.cls-1{stroke:url(#Degradado_sin_nombre_2074);}.cls-2{stroke:url(#Degradado_sin_nombre_2074-2);}.cls-3{stroke:url(#Degradado_sin_nombre_2074-3);}.cls-4{stroke:url(#Degradado_sin_nombre_2074-4);}.cls-5{stroke:url(#Degradado_sin_nombre_2074-5);}.cls-6{stroke:url(#Degradado_sin_nombre_2074-6);}.cls-7{stroke:url(#Degradado_sin_nombre_2074-7);}.cls-8{stroke:url(#Degradado_sin_nombre_2074-8);}.cls-9{stroke:url(#Degradado_sin_nombre_2074-9);}.cls-10{stroke:url(#Degradado_sin_nombre_2074-10);}.cls-11{stroke:url(#Degradado_sin_nombre_2074-11);}.cls-12{stroke:url(#Degradado_sin_nombre_2074-12);}.cls-13{stroke:url(#Degradado_sin_nombre_2074-13);}.cls-14{stroke:url(#Degradado_sin_nombre_2074-14);}.cls-15{stroke:url(#Degradado_sin_nombre_2074-15);}.cls-16{stroke:url(#Degradado_sin_nombre_2074-16);}</style><linearGradient
      id="Degradado_sin_nombre_2074"
      x1="763.47"
      y1="79.18"
      x2="876.59"
      y2="79.18"
      gradientUnits="userSpaceOnUse"
    ><stop offset="0" stop-color="#cb01ff" /><stop
        offset="1"
        stop-color="#00ff57"
      /></linearGradient><linearGradient
      id="Degradado_sin_nombre_2074-2"
      x1="902.33"
      y1="79.18"
      x2="1007.16"
      y2="79.18"
      xlink:href="#Degradado_sin_nombre_2074"
    /><linearGradient
      id="Degradado_sin_nombre_2074-3"
      x1="1006.99"
      y1="79.18"
      x2="1115.08"
      y2="79.18"
      xlink:href="#Degradado_sin_nombre_2074"
    /><linearGradient
      id="Degradado_sin_nombre_2074-4"
      x1="1180.14"
      y1="79.18"
      x2="1294.21"
      y2="79.18"
      xlink:href="#Degradado_sin_nombre_2074"
    /><linearGradient
      id="Degradado_sin_nombre_2074-5"
      x1="1299.81"
      y1="97.8"
      x2="1404.12"
      y2="97.8"
      xlink:href="#Degradado_sin_nombre_2074"
    /><linearGradient
      id="Degradado_sin_nombre_2074-6"
      x1="1420.83"
      y1="96.64"
      x2="1480.99"
      y2="96.64"
      xlink:href="#Degradado_sin_nombre_2074"
    /><linearGradient
      id="Degradado_sin_nombre_2074-7"
      x1="1486.91"
      y1="82.22"
      x2="1562.17"
      y2="82.22"
      xlink:href="#Degradado_sin_nombre_2074"
    /><linearGradient
      id="Degradado_sin_nombre_2074-8"
      x1="1570.7"
      y1="97.8"
      x2="1673.04"
      y2="97.8"
      xlink:href="#Degradado_sin_nombre_2074"
    /><linearGradient
      id="Degradado_sin_nombre_2074-9"
      x1="1693.41"
      y1="79.18"
      x2="1727.66"
      y2="79.18"
      xlink:href="#Degradado_sin_nombre_2074"
    /><linearGradient
      id="Degradado_sin_nombre_2074-10"
      x1="11.27"
      y1="79.82"
      x2="130.16"
      y2="79.82"
      xlink:href="#Degradado_sin_nombre_2074"
    /><linearGradient
      id="Degradado_sin_nombre_2074-11"
      x1="148.21"
      y1="79.82"
      x2="183.95"
      y2="79.82"
      xlink:href="#Degradado_sin_nombre_2074"
    /><linearGradient
      id="Degradado_sin_nombre_2074-12"
      x1="195.02"
      y1="79.82"
      x2="300.87"
      y2="79.82"
      xlink:href="#Degradado_sin_nombre_2074"
    /><linearGradient
      id="Degradado_sin_nombre_2074-13"
      x1="304.44"
      y1="79.82"
      x2="427.32"
      y2="79.82"
      xlink:href="#Degradado_sin_nombre_2074"
    /><linearGradient
      id="Degradado_sin_nombre_2074-14"
      x1="441.58"
      y1="79.82"
      x2="533.69"
      y2="79.82"
      xlink:href="#Degradado_sin_nombre_2074"
    /><linearGradient
      id="Degradado_sin_nombre_2074-15"
      x1="555.94"
      y1="96.91"
      x2="614.88"
      y2="96.91"
      xlink:href="#Degradado_sin_nombre_2074"
    /><linearGradient
      id="Degradado_sin_nombre_2074-16"
      x1="622.97"
      y1="98.04"
      x2="725.13"
      y2="98.04"
      xlink:href="#Degradado_sin_nombre_2074"
    /></defs><path
    class="cls-1"
    d="M875.09,7.6V150.76H846.48l-56-96.69c.06,2.44.13,4,.2,4.82a56,56,0,0,1,.42,6.19v85.68H765V7.6h36.14L849.82,92q-.63-6.3-.63-9.54V7.6Z"
  /><path
    class="cls-2"
    d="M1005.66,35.92h-67V68h53V94.76h-53v56H903.83V7.6h101.83Z"
  /><path
    class="cls-3"
    d="M1113.58,7.6V35.92h-35.45V150.76h-34V35.92h-35.66V7.6Z"
  /><path
    class="cls-4"
    d="M1215.73,97.59v53.17h-34.09V7.6h56.43q18.87,0,28.89,4t17.88,14.42q7.88,10.38,7.87,25.49a53.18,53.18,0,0,1-4.2,20.66A37.14,37.14,0,0,1,1276.66,88a43.28,43.28,0,0,1-14.84,7.66q-7.18,1.89-22.49,1.89Zm-1.16-26h21.82q12.48,0,17.51-5.77a19.49,19.49,0,0,0,5-13.21q0-8.72-5.61-13.85t-17-5.14h-21.71Z"
  /><path
    class="cls-5"
    d="M1351.28,42.63q24.2,0,37.77,15.84t13.57,39.64q0,23.49-14.09,39.17T1351.07,153q-22.63,0-36.2-15.52t-13.56-39.85q0-16.89,6.13-28.68a50.75,50.75,0,0,1,16.81-19Q1334.95,42.64,1351.28,42.63Zm.84,20.45q-8.89,0-13.39,6.87t-4.49,27.32q0,18.78,4.28,27t13.39,8.18q8,0,12.86-7t4.92-26.58q0-20.88-4.34-28.32T1352.12,63.08Z"
  /><path
    class="cls-6"
    d="M1452.64,150.76h-30.31V44.84H1451V64.55q6.6-22,22.86-22c1.53,0,3.42.1,5.66.31V73.68q-9.54,0-14.84,2.93T1456,87.15q-3.36,7.6-3.36,20.51Z"
  /><path
    class="cls-7"
    d="M1536.44,69.17V114q0,8.39,2.51,11.22t11.8,2.83q4.27,0,9.92-.42v23.18q-13.64,2.31-19.62,2.31-19.5,0-27.68-7.5t-8.18-27.11V69.17h-16.78V44.84H1507l2.52-31.26,27-2.1V44.84h22.76V69.17Z"
  /><path
    class="cls-8"
    d="M1671,150.76h-30.31a75.37,75.37,0,0,1-1.47-16.57q-8,11.33-15.87,15.05A41.66,41.66,0,0,1,1605.4,153q-14.88,0-24-8.07t-9.17-21.71a33.55,33.55,0,0,1,5.34-18.36q5.34-8.38,17.18-13.16t43.14-7.08V78.5q0-15.42-15.37-15.42-16.42,0-18.3,15.42l-28.84-2.73q2.84-18,17.09-25.59t32.31-7.55a79.38,79.38,0,0,1,20.34,2.52q9.54,2.52,14.89,7.55a26.34,26.34,0,0,1,7.24,10.65q1.89,5.61,1.89,19.55v48Q1669.11,144.78,1671,150.76ZM1637.86,100q-32.73,3.25-32.73,19.82a14.29,14.29,0,0,0,3.45,9.6q3.45,4,9.83,4,8.27,0,13.85-6.87t5.6-16.94Z"
  /><path class="cls-9" d="M1694.91,150.76V7.6h31.25V150.76Z" /><path
    class="cls-10"
    d="M12.77,9.76H78.06q17.55,0,26.38,4.31A38.38,38.38,0,0,1,119,26.38q5.76,8,5.75,19.49,0,23.28-25.25,31.08,14.58,3.28,21.87,13a34.85,34.85,0,0,1,7.28,21.26q0,15.72-11.9,27.18t-38.7,11.45H12.77ZM45.52,34.5V65.19H70.36q13.65,0,17.19-5.39a18.89,18.89,0,0,0,3.54-10.31,14.74,14.74,0,0,0-2.92-9.19,12.52,12.52,0,0,0-6.42-4.83q-3.48-1-13.75-1Zm0,55.64v33.77h25.2q12.9,0,18.23-4.52t5.33-12.62a15.7,15.7,0,0,0-5.13-11.71q-5.12-4.92-17-4.92Z"
  /><path class="cls-11" d="M182.45,9.76V149.88H149.71V9.76Z" /><path
    class="cls-12"
    d="M299.37,9.76V37.48H264.68v112.4H231.42V37.48h-34.9V9.76Z"
  /><path
    class="cls-13"
    d="M425.63,61.91l-34.38,2.15q-.74-29.65-23.15-29.66-25.71,0-25.72,45.68,0,26.37,7,35.77t19.54,9.39q20.37,0,24.89-26.48l31.82,1.95Q422.55,125.87,406.9,139T368.56,152q-27.82,0-45.22-19.19t-17.4-53.07q0-31.72,16.84-51.94t46-20.23Q419.27,7.6,425.63,61.91Z"
  /><path
    class="cls-14"
    d="M472.75,9.76V60.3q8.42-16.26,28-16.25,10.49,0,17.92,4.56a25.25,25.25,0,0,1,10.47,11.76q3,7.18,3,21v68.47H501.6V91.4q0-10.49-.82-14.39A11.8,11.8,0,0,0,497,70.48a10.51,10.51,0,0,0-7.31-2.62q-5.73,0-11.35,4.47T472.75,91.4v58.48H443.08V9.76Z"
  /><path
    class="cls-15"
    d="M587.1,149.88H557.44V46.2h28V65.5q6.46-21.55,22.38-21.56c1.5,0,3.35.11,5.54.31V74.43c-6.22,0-11.07,1-14.52,2.87s-6.28,5.36-8.47,10.32-3.29,11.65-3.29,20.07Z"
  /><path
    class="cls-16"
    d="M673.38,44.05q23.68,0,37,15.5t13.28,38.8q0,23-13.79,38.34T673.18,152q-22.15,0-35.43-15.19t-13.28-39q0-16.53,6-28.08a49.76,49.76,0,0,1,16.46-18.63Q657.39,44.05,673.38,44.05Zm.82,20q-8.7,0-13.1,6.73t-4.4,26.74q0,18.38,4.2,26.38t13.1,8q7.77,0,12.59-6.83t4.81-26q0-20.43-4.25-27.72T674.2,64.06Z"
  /></svg>
