<svg xmlns="http://www.w3.org/2000/svg" xmlns:xlink="http://www.w3.org/1999/xlink" id="Layer_1" data-name="Layer 1" viewBox="0 0 91.34 92"><defs><style>.cls-1{fill:url(#linear-gradient);}.cls-2{fill:#fff;}</style><linearGradient id="linear-gradient" x1="1.55" y1="46.52" x2="89.79" y2="46.52" gradientUnits="userSpaceOnUse"><stop offset="0" stop-color="#c901fd"/><stop offset="1" stop-color="#00ff57"/></linearGradient></defs><circle class="cls-1" cx="45.67" cy="46.52" r="44.12"/><path class="cls-2" d="M63.63,46.56V62.88a4.47,4.47,0,0,1-3.36,4.45,5.14,5.14,0,0,1-1.3.15H32.37a4.48,4.48,0,0,1-4.66-4.65V30.24a4.49,4.49,0,0,1,4.69-4.67H59a4.48,4.48,0,0,1,4.67,4.68Zm-3,0V30.39c0-1.28-.54-1.83-1.81-1.83H32.51c-1.24,0-1.8.56-1.8,1.79V62.7c0,1.22.56,1.78,1.76,1.78H58.84c1.25,0,1.8-.54,1.8-1.78Z"/><path class="cls-2" d="M45.66,45h5.09a1.5,1.5,0,1,1,0,3H40.6a1.5,1.5,0,1,1,0-3Z"/><path class="cls-2" d="M45.62,39h-5a1.5,1.5,0,1,1,0-3H50.8a1.5,1.5,0,1,1,0,3Z"/><path class="cls-2" d="M45.66,57h-5a1.51,1.51,0,1,1,0-3H50.76a1.5,1.5,0,1,1,0,3Z"/></svg>