<svg xmlns="http://www.w3.org/2000/svg" xmlns:xlink="http://www.w3.org/1999/xlink" id="Layer_1" data-name="Layer 1" viewBox="0 0 271.97 138.74"><defs><style>.cls-1,.cls-2,.cls-3{fill:none;stroke-miterlimit:10;stroke-width:4px;}.cls-1{stroke:url(#Degradado_sin_nombre_2074);}.cls-2{stroke:url(#Degradado_sin_nombre_2074-2);}.cls-3{stroke:url(#Degradado_sin_nombre_2074-3);}</style><linearGradient id="Degradado_sin_nombre_2074" x1="9.69" y1="60.16" x2="86.77" y2="60.16" gradientUnits="userSpaceOnUse"><stop offset="0" stop-color="#cb01ff"/><stop offset="1" stop-color="#00ff57"/></linearGradient><linearGradient id="Degradado_sin_nombre_2074-2" x1="77.88" y1="60.16" x2="176.3" y2="60.16" xlink:href="#Degradado_sin_nombre_2074"/><linearGradient id="Degradado_sin_nombre_2074-3" x1="174.36" y1="69.98" x2="266.72" y2="69.98" xlink:href="#Degradado_sin_nombre_2074"/></defs><path class="cls-1" d="M84.77,29.11H36.67v23h38V71.33h-38v40.19h-25V8.79H84.77Z"/><path class="cls-2" d="M141.42,8.79l32.16,102.73H147.71l-6.33-21.14H108.17l-6.44,21.14H80.63L113.55,8.79ZM113.94,71.41h21.77l-10.79-36Z"/><path class="cls-3" d="M261.26,131.77a39.29,39.29,0,0,1-8.58,1q-13.77,0-18.44-5.91A27,27,0,0,1,228.82,112a86.24,86.24,0,0,1-9.71.67q-19.5,0-31.12-15.24T176.36,60.12q0-21.52,11.22-37.22t33-15.69q21.52,0,32.81,15.62t11.29,37.52q0,17.61-6.43,29.31t-15.17,16.75q0,7.89,9,7.9c1.76,0,4.79-.25,9.11-.75ZM220.5,26.85q-18.93,0-18.93,33.27,0,33.42,18.86,33.42,19.08,0,19.08-33Q239.51,26.85,220.5,26.85Z"/></svg>