<svg xmlns="http://www.w3.org/2000/svg" xmlns:xlink="http://www.w3.org/1999/xlink" width="38.82" height="38.82" viewBox="0 0 38.82 38.82">
  <defs>
    <linearGradient id="linear-gradient" y1="0.5" x2="1" y2="0.5" gradientUnits="objectBoundingBox">
      <stop offset="0" stop-color="#cb01ff"/>
      <stop offset="1" stop-color="#00ff57"/>
    </linearGradient>
  </defs>
  <g id="Group_54" data-name="Group 54" transform="translate(-1874.93 -15.2)">
    <circle id="Ellipse_4" data-name="Ellipse 4" cx="19.41" cy="19.41" r="19.41" transform="translate(1874.93 15.2)" fill="url(#linear-gradient)"/>
    <g id="Group_53" data-name="Group 53">
      <path id="Path_4" data-name="Path 4" d="M1889.36,26h10.49a5.2,5.2,0,0,1,4.42,3.57,8.7,8.7,0,0,1,.28,1.25V41.16a.988.988,0,0,0,0,.17,5.28,5.28,0,0,1-5.14,4.68h-9.71a5,5,0,0,1-1.52-.26,5.26,5.26,0,0,1-3.65-5.05V31.3a6.052,6.052,0,0,1,0-.61,5.25,5.25,0,0,1,3.71-4.49A4.069,4.069,0,0,1,1889.36,26ZM1901,36V33.08a3.52,3.52,0,0,0-3.59-3.59h-5.82a3.52,3.52,0,0,0-3.59,3.59V38.9a3.52,3.52,0,0,0,3.59,3.59h5.81a3.52,3.52,0,0,0,3.6-3.59Z" fill="#fff"/>
      <path id="Path_5" data-name="Path 5" d="M1899.85,36v2.92a2.36,2.36,0,0,1-2.41,2.41h-5.83a2.36,2.36,0,0,1-2.41-2.4V33.06a2.35,2.35,0,0,1,2.41-2.4h5.85a2.35,2.35,0,0,1,2.39,2.39C1899.86,34,1899.85,35,1899.85,36Zm-5.33,2.94a2.94,2.94,0,1,0-2.93-3,3,3,0,0,0,2.93,2.99Zm3.37-5.72a.59.59,0,1,0-.546-.367.59.59,0,0,0,.546.367Z" fill="#fff"/>
      <path id="Path_6" data-name="Path 6" d="M1896.29,36a1.76,1.76,0,1,1-1.75-1.77,1.76,1.76,0,0,1,1.75,1.77Z" fill="#fff"/>
    </g>
  </g>
</svg>
