<svg
  xmlns="http://www.w3.org/2000/svg"
  xmlns:xlink="http://www.w3.org/1999/xlink"
  id="Layer_1"
  data-name="Layer 1"
  viewBox="0 0 1445.18 84.38"
><defs><style
    >.cls-1,.cls-10,.cls-11,.cls-12,.cls-13,.cls-14,.cls-15,.cls-16,.cls-17,.cls-18,.cls-19,.cls-2,.cls-20,.cls-21,.cls-22,.cls-23,.cls-24,.cls-25,.cls-3,.cls-4,.cls-5,.cls-6,.cls-7,.cls-8,.cls-9{fill:none;stroke-miterlimit:10;stroke-width:2px;}.cls-1{stroke:url(#Degradado_sin_nombre_2074);}.cls-2{stroke:url(#Degradado_sin_nombre_2074-2);}.cls-3{stroke:url(#Degradado_sin_nombre_2074-3);}.cls-4{stroke:url(#Degradado_sin_nombre_2074-4);}.cls-5{stroke:url(#Degradado_sin_nombre_2074-5);}.cls-6{stroke:url(#Degradado_sin_nombre_2074-6);}.cls-7{stroke:url(#Degradado_sin_nombre_2074-7);}.cls-8{stroke:url(#Degradado_sin_nombre_2074-8);}.cls-9{stroke:url(#Degradado_sin_nombre_2074-9);}.cls-10{stroke:url(#Degradado_sin_nombre_2074-10);}.cls-11{stroke:url(#Degradado_sin_nombre_2074-11);}.cls-12{stroke:url(#Degradado_sin_nombre_2074-12);}.cls-13{stroke:url(#Degradado_sin_nombre_2074-13);}.cls-14{stroke:url(#Degradado_sin_nombre_2074-14);}.cls-15{stroke:url(#Degradado_sin_nombre_2074-15);}.cls-16{stroke:url(#Degradado_sin_nombre_2074-16);}.cls-17{stroke:url(#Degradado_sin_nombre_2074-17);}.cls-18{stroke:url(#Degradado_sin_nombre_2074-18);}.cls-19{stroke:url(#Degradado_sin_nombre_2074-19);}.cls-20{stroke:url(#Degradado_sin_nombre_2074-20);}.cls-21{stroke:url(#Degradado_sin_nombre_2074-21);}.cls-22{stroke:url(#Degradado_sin_nombre_2074-22);}.cls-23{stroke:url(#Degradado_sin_nombre_2074-23);}.cls-24{stroke:url(#Degradado_sin_nombre_2074-24);}.cls-25{stroke:url(#Degradado_sin_nombre_2074-25);}</style><linearGradient
      id="Degradado_sin_nombre_2074"
      x1="10.11"
      y1="84.12"
      x2="10.11"
      y2="4.14"
      gradientUnits="userSpaceOnUse"
    ><stop offset="0" stop-color="#cb01ff" /><stop
        offset="1"
        stop-color="#00ff57"
      /></linearGradient><linearGradient
      id="Degradado_sin_nombre_2074-2"
      x1="59.15"
      y1="84.12"
      x2="59.15"
      y2="23.22"
      xlink:href="#Degradado_sin_nombre_2074"
    /><linearGradient
      id="Degradado_sin_nombre_2074-3"
      x1="111"
      y1="85.38"
      x2="111"
      y2="6.18"
      xlink:href="#Degradado_sin_nombre_2074"
    /><linearGradient
      id="Degradado_sin_nombre_2074-4"
      x1="154.98"
      y1="84.12"
      x2="154.98"
      y2="23.16"
      xlink:href="#Degradado_sin_nombre_2074"
    /><linearGradient
      id="Degradado_sin_nombre_2074-5"
      x1="204.31"
      y1="85.32"
      x2="204.31"
      y2="23.22"
      xlink:href="#Degradado_sin_nombre_2074"
    /><linearGradient
      id="Degradado_sin_nombre_2074-6"
      x1="265.61"
      y1="85.32"
      x2="265.61"
      y2="4.14"
      xlink:href="#Degradado_sin_nombre_2074"
    /><linearGradient
      id="Degradado_sin_nombre_2074-7"
      x1="330.42"
      y1="85.32"
      x2="330.42"
      y2="24.42"
      xlink:href="#Degradado_sin_nombre_2074"
    /><linearGradient
      id="Degradado_sin_nombre_2074-8"
      x1="392.87"
      y1="85.32"
      x2="392.87"
      y2="23.22"
      xlink:href="#Degradado_sin_nombre_2074"
    /><linearGradient
      id="Degradado_sin_nombre_2074-9"
      x1="441.7"
      y1="85.38"
      x2="441.7"
      y2="6.18"
      xlink:href="#Degradado_sin_nombre_2074"
    /><linearGradient
      id="Degradado_sin_nombre_2074-10"
      x1="478.63"
      y1="84.12"
      x2="478.63"
      y2="2.54"
      xlink:href="#Degradado_sin_nombre_2074"
    /><linearGradient
      id="Degradado_sin_nombre_2074-11"
      x1="525.42"
      y1="85.32"
      x2="525.42"
      y2="23.22"
      xlink:href="#Degradado_sin_nombre_2074"
    /><linearGradient
      id="Degradado_sin_nombre_2074-12"
      x1="588.83"
      y1="84.12"
      x2="588.83"
      y2="23.22"
      xlink:href="#Degradado_sin_nombre_2074"
    /><linearGradient
      id="Degradado_sin_nombre_2074-13"
      x1="669.92"
      y1="85.38"
      x2="669.92"
      y2="6.18"
      xlink:href="#Degradado_sin_nombre_2074"
    /><linearGradient
      id="Degradado_sin_nombre_2074-14"
      x1="722.16"
      y1="85.32"
      x2="722.16"
      y2="23.22"
      xlink:href="#Degradado_sin_nombre_2074"
    /><linearGradient
      id="Degradado_sin_nombre_2074-15"
      x1="820.53"
      y1="84.12"
      x2="820.53"
      y2="4.14"
      xlink:href="#Degradado_sin_nombre_2074"
    /><linearGradient
      id="Degradado_sin_nombre_2074-16"
      x1="893.91"
      y1="84.12"
      x2="893.91"
      y2="4.14"
      xlink:href="#Degradado_sin_nombre_2074"
    /><linearGradient
      id="Degradado_sin_nombre_2074-17"
      x1="951.81"
      y1="84.12"
      x2="951.81"
      y2="4.14"
      xlink:href="#Degradado_sin_nombre_2074"
    /><linearGradient
      id="Degradado_sin_nombre_2074-18"
      x1="1047.75"
      y1="84.12"
      x2="1047.75"
      y2="4.14"
      xlink:href="#Degradado_sin_nombre_2074"
    /><linearGradient
      id="Degradado_sin_nombre_2074-19"
      x1="1110"
      y1="85.32"
      x2="1110"
      y2="23.22"
      xlink:href="#Degradado_sin_nombre_2074"
    /><linearGradient
      id="Degradado_sin_nombre_2074-20"
      x1="1158.26"
      y1="84.12"
      x2="1158.26"
      y2="4.14"
      xlink:href="#Degradado_sin_nombre_2074"
    /><linearGradient
      id="Degradado_sin_nombre_2074-21"
      x1="1193.48"
      y1="85.38"
      x2="1193.48"
      y2="6.18"
      xlink:href="#Degradado_sin_nombre_2074"
    /><linearGradient
      id="Degradado_sin_nombre_2074-22"
      x1="1233.95"
      y1="84.12"
      x2="1233.95"
      y2="1"
      xlink:href="#Degradado_sin_nombre_2074"
    /><linearGradient
      id="Degradado_sin_nombre_2074-23"
      x1="1282.8"
      y1="85.32"
      x2="1282.8"
      y2="23.22"
      xlink:href="#Degradado_sin_nombre_2074"
    /><linearGradient
      id="Degradado_sin_nombre_2074-24"
      x1="1336.69"
      y1="84.12"
      x2="1336.69"
      y2="23.16"
      xlink:href="#Degradado_sin_nombre_2074"
    /><linearGradient
      id="Degradado_sin_nombre_2074-25"
      x1="1402.96"
      y1="84.12"
      x2="1402.96"
      y2="23.22"
      xlink:href="#Degradado_sin_nombre_2074"
    /></defs><path class="cls-1" d="M19.22,5.14v78H1v-78Z" /><path
    class="cls-2"
    d="M84.23,83.12h-17V50.73a45.85,45.85,0,0,0-.46-8.06A6.51,6.51,0,0,0,64.52,39a6.6,6.6,0,0,0-4.45-1.52q-9,0-9,13.26V83.12h-17V25.42H49.9v9.77c2.63-4.65,5.22-7.63,7.77-9a17.64,17.64,0,0,1,8.28-2c5.49,0,9.9,1.48,13.26,4.43s5,8.75,5,17.39Z"
  /><path
    class="cls-3"
    d="M117.48,38.67v24.4c0,3.05.45,5.08,1.36,6.11s3.06,1.54,6.43,1.54c1.56,0,3.36-.07,5.41-.23V83.12A73.14,73.14,0,0,1,120,84.38q-10.62,0-15.08-4.09t-4.45-14.77V38.67H91.32V25.42h10.11l1.37-17,14.68-1.14V25.42h12.4V38.67Z"
  /><path
    class="cls-4"
    d="M155.93,83.12H139.42V25.42H155V36.16q3.6-12,12.46-12c.83,0,1.86.06,3.08.18V41.13a16.88,16.88,0,0,0-8.08,1.6,11.57,11.57,0,0,0-4.72,5.74q-1.83,4.14-1.82,11.17Z"
  /><path
    class="cls-5"
    d="M203.94,24.22q13.19,0,20.57,8.63t7.39,21.59q0,12.8-7.67,21.34t-20.4,8.54q-12.33,0-19.72-8.46t-7.39-21.7q0-9.21,3.34-15.63a27.75,27.75,0,0,1,9.16-10.37Q195,24.23,203.94,24.22Zm.46,11.14a8.14,8.14,0,0,0-7.29,3.74q-2.46,3.75-2.45,14.88,0,10.23,2.33,14.69a7.71,7.71,0,0,0,7.29,4.45,8.2,8.2,0,0,0,7-3.8Q214,65.53,214,54.84q0-11.37-2.37-15.42A7.77,7.77,0,0,0,204.4,35.36Z"
  /><path
    class="cls-6"
    d="M291.71,5.14v78H276v-9q-5.85,10.23-15.91,10.23A17.51,17.51,0,0,1,245,76.52q-5.52-7.8-5.52-21.62,0-14.4,5.52-22.54t16-8.14q9.21,0,14.19,7.26V5.14Zm-16.5,44.45Q275.21,36,267,36q-9.85,0-9.85,19.19,0,17.08,9.22,17.08a8,8,0,0,0,6.22-3.08q2.67-3.09,2.67-8.8Z"
  /><path
    class="cls-7"
    d="M355.07,25.42v57.7H339.3V73.29q-4.46,11-17,11-6.51,0-10-2.43a13.41,13.41,0,0,1-5-6.63q-1.51-4.19-1.51-12.14V25.42h16.51v37.7q0,7.77,6.4,7.77A8.94,8.94,0,0,0,334.33,69a8.32,8.32,0,0,0,3.06-4,28,28,0,0,0,.65-7.26V25.42Z"
  /><path
    class="cls-8"
    d="M419.85,61.47A24.32,24.32,0,0,1,411.77,78q-7.12,6.3-18.37,6.31-12.22,0-19.91-8.08t-7.68-21.63q0-13.53,7.85-22t21-8.43q10.56,0,17.51,6.34a23.24,23.24,0,0,1,7.68,15.88L404,47.36q-.81-10.39-9-10.4-10.11,0-10.11,16.57,0,11,2.83,14a9.14,9.14,0,0,0,6.88,3q7.89,0,9.43-10Z"
  /><path
    class="cls-9"
    d="M448.18,38.67v24.4c0,3.05.46,5.08,1.37,6.11s3.05,1.54,6.43,1.54c1.55,0,3.35-.07,5.4-.23V83.12a72.9,72.9,0,0,1-10.68,1.26q-10.63,0-15.08-4.09t-4.46-14.77V38.67H422V25.42h10.11l1.37-17,14.68-1.14V25.42h12.4V38.67Z"
  /><path
    class="cls-10"
    d="M487.14,3.54v17h-17v-17Zm0,21.88v57.7h-17V25.42Z"
  /><path
    class="cls-11"
    d="M525.05,24.22q13.17,0,20.57,8.63T553,54.44q0,12.8-7.68,21.34t-20.4,8.54q-12.33,0-19.71-8.46t-7.39-21.7q0-9.21,3.33-15.63a27.84,27.84,0,0,1,9.16-10.37Q516.14,24.23,525.05,24.22Zm.45,11.14a8.17,8.17,0,0,0-7.29,3.74q-2.44,3.75-2.45,14.88,0,10.23,2.34,14.69a7.7,7.7,0,0,0,7.29,4.45,8.21,8.21,0,0,0,7-3.8q2.67-3.79,2.67-14.48,0-11.37-2.36-15.42A7.79,7.79,0,0,0,525.5,35.36Z"
  /><path
    class="cls-12"
    d="M613.91,83.12h-17V50.73a47.2,47.2,0,0,0-.45-8.06,6.6,6.6,0,0,0-6.69-5.2q-9,0-9,13.26V83.12h-17V25.42h15.82v9.77c2.63-4.65,5.22-7.63,7.77-9a17.68,17.68,0,0,1,8.29-2q8.22,0,13.25,4.43t5,17.39Z"
  /><path
    class="cls-13"
    d="M676.4,38.67v24.4c0,3.05.46,5.08,1.37,6.11s3.05,1.54,6.42,1.54c1.56,0,3.36-.07,5.41-.23V83.12a72.9,72.9,0,0,1-10.68,1.26q-10.63,0-15.09-4.09t-4.45-14.77V38.67h-9.14V25.42h10.11l1.37-17L676.4,7.26V25.42h12.4V38.67Z"
  /><path
    class="cls-14"
    d="M721.79,24.22q13.19,0,20.57,8.63t7.39,21.59q0,12.8-7.67,21.34t-20.4,8.54q-12.33,0-19.72-8.46t-7.39-21.7q0-9.21,3.34-15.63a27.72,27.72,0,0,1,9.15-10.37Q712.9,24.23,721.79,24.22Zm.46,11.14A8.17,8.17,0,0,0,715,39.1q-2.44,3.75-2.44,14.88,0,10.23,2.33,14.69a7.71,7.71,0,0,0,7.29,4.45,8.2,8.2,0,0,0,7-3.8q2.67-3.79,2.67-14.48,0-11.37-2.36-15.42A7.79,7.79,0,0,0,722.25,35.36Z"
  /><path
    class="cls-15"
    d="M850.52,5.14v78H834.94L804.42,30.45c0,1.33.08,2.21.12,2.63a30.67,30.67,0,0,1,.22,3.37V83.12H790.54v-78h19.69l26.52,46c-.22-2.29-.34-4-.34-5.2V5.14Z"
  /><path
    class="cls-16"
    d="M921.64,20.57h-36.5V38.05H914V52.61H885.14V83.12h-19v-78h55.47Z"
  /><path
    class="cls-17"
    d="M980.43,5.14V20.57H961.12V83.12H942.61V20.57H923.19V5.14Z"
  /><path
    class="cls-18"
    d="M1036.07,54.16v29H1017.5v-78h30.74q10.27,0,15.73,2.2a23.22,23.22,0,0,1,9.74,7.86A22.28,22.28,0,0,1,1078,29.08a28.87,28.87,0,0,1-2.29,11.25,20.25,20.25,0,0,1-6.45,8.63,23.79,23.79,0,0,1-8.09,4.17q-3.9,1-12.25,1ZM1035.44,40h11.88q6.79,0,9.54-3.14a10.64,10.64,0,0,0,2.74-7.2,9.74,9.74,0,0,0-3-7.54q-3.06-2.8-9.29-2.8h-11.82Z"
  /><path
    class="cls-19"
    d="M1136.72,83.12h-16.51a41.33,41.33,0,0,1-.8-9q-4.34,6.18-8.64,8.2a22.71,22.71,0,0,1-9.78,2q-8.1,0-13.09-4.4t-5-11.82a18.26,18.26,0,0,1,2.91-10q2.91-4.58,9.35-7.17t23.5-3.86V43.76q0-8.4-8.37-8.4-8.94,0-10,8.4l-15.71-1.49q1.55-9.83,9.32-13.93a36.92,36.92,0,0,1,17.59-4.12,43.46,43.46,0,0,1,11.08,1.37,18.61,18.61,0,0,1,8.12,4.12,14.37,14.37,0,0,1,3.94,5.79c.68,2,1,5.59,1,10.66V72.32Q1135.7,79.86,1136.72,83.12Zm-18-27.65q-17.82,1.77-17.82,10.8a7.72,7.72,0,0,0,1.88,5.22,6.64,6.64,0,0,0,5.35,2.2,9.37,9.37,0,0,0,7.55-3.74,14.13,14.13,0,0,0,3-9.22Z"
  /><path class="cls-20" d="M1149.75,83.12v-78h17v78Z" /><path
    class="cls-21"
    d="M1200,38.67v24.4c0,3.05.46,5.08,1.37,6.11s3.05,1.54,6.42,1.54c1.56,0,3.36-.07,5.41-.23V83.12a72.9,72.9,0,0,1-10.68,1.26q-10.63,0-15.09-4.09t-4.45-14.77V38.67h-9.14V25.42h10.11l1.37-17L1200,7.26V25.42h12.4V38.67Z"
  /><path
    class="cls-22"
    d="M1239.67,38.67V83.12H1223.1V38.67h-6.69V25.42h6.69q.11-8.91,1.28-13t6-7.26Q1235.27,2,1243.61,2a57.08,57.08,0,0,1,7.88.63V15.77q-3.66-.29-6-.29-3.5,0-4.63,1.83t-1.14,5.94v2.17h10.45V38.67Z"
  /><path
    class="cls-23"
    d="M1282.42,24.22q13.18,0,20.58,8.63t7.39,21.59q0,12.8-7.68,21.34t-20.4,8.54q-12.33,0-19.72-8.46t-7.39-21.7a33.64,33.64,0,0,1,3.34-15.63,27.84,27.84,0,0,1,9.16-10.37Q1273.52,24.23,1282.42,24.22Zm.46,11.14a8.14,8.14,0,0,0-7.29,3.74q-2.44,3.75-2.45,14.88,0,10.23,2.34,14.69a7.69,7.69,0,0,0,7.29,4.45,8.18,8.18,0,0,0,7-3.8q2.68-3.79,2.68-14.48,0-11.37-2.36-15.42A7.79,7.79,0,0,0,1282.88,35.36Z"
  /><path
    class="cls-24"
    d="M1337.64,83.12h-16.51V25.42h15.59V36.16q3.6-12,12.46-12c.83,0,1.86.06,3.08.18V41.13a16.88,16.88,0,0,0-8.08,1.6,11.57,11.57,0,0,0-4.72,5.74q-1.82,4.14-1.82,11.17Z"
  /><path
    class="cls-25"
    d="M1444.18,83.12h-17V51.19a57.8,57.8,0,0,0-.4-8.77,5.55,5.55,0,0,0-2.08-3.37A7.28,7.28,0,0,0,1420,37.7a10.12,10.12,0,0,0-5.71,2c-1.94,1.34-2.91,5.16-2.91,11.49V83.12h-17V51.19q0-6.91-.63-8.94a6.23,6.23,0,0,0-2.37-3.29,7.34,7.34,0,0,0-4.42-1.26c-2.94,0-5.12.93-6.54,2.77s-2.15,5.42-2.15,10.72V83.12h-16.51V25.42h16v8.8q4.07-10,16.25-10,11,0,16,10,4.8-10,16.74-10a19.56,19.56,0,0,1,9.83,2.34,13.78,13.78,0,0,1,5.88,6.12q1.78,3.76,1.78,13Z"
  /></svg>
