<svg xmlns="http://www.w3.org/2000/svg" xmlns:xlink="http://www.w3.org/1999/xlink" width="216.009" height="44.55" viewBox="0 0 216.009 44.55">
  <defs>
    <linearGradient id="linear-gradient" y1="0.5" x2="0.998" y2="0.5" gradientUnits="objectBoundingBox">
      <stop offset="0" stop-color="#cb01ff"/>
      <stop offset="1" stop-color="#00ff57"/>
    </linearGradient>
    <linearGradient id="linear-gradient-2" y1="0.5" x2="1" y2="0.5" xlink:href="#linear-gradient"/>
    <linearGradient id="linear-gradient-4" y1="0.5" x2="1" y2="0.5" xlink:href="#linear-gradient"/>
    <linearGradient id="linear-gradient-5" x1="0.001" y1="0.5" x2="1" y2="0.5" xlink:href="#linear-gradient"/>
    <linearGradient id="linear-gradient-6" y1="0.5" x2="1" y2="0.5" xlink:href="#linear-gradient"/>
    <linearGradient id="linear-gradient-7" x1="0.001" y1="0.5" x2="1" y2="0.5" xlink:href="#linear-gradient"/>
    <linearGradient id="linear-gradient-8" x1="-0.001" y1="0.498" x2="0.999" y2="0.498" xlink:href="#linear-gradient"/>
    <linearGradient id="linear-gradient-9" x1="-0.003" y1="0.502" x2="1.001" y2="0.502" xlink:href="#linear-gradient"/>
    <linearGradient id="linear-gradient-10" x1="0.002" y1="0.494" x2="1.003" y2="0.494" xlink:href="#linear-gradient"/>
    <linearGradient id="linear-gradient-11" x1="-0.001" y1="0.501" x2="0.994" y2="0.501" xlink:href="#linear-gradient"/>
    <linearGradient id="linear-gradient-12" x1="0.003" y1="0.497" x2="1.001" y2="0.497" xlink:href="#linear-gradient"/>
  </defs>
  <g id="Group_55" data-name="Group 55" transform="translate(-38.505 -17)">
    <path id="Path_96" data-name="Path 96" d="M98.1,33.9q3.38-2.64,3.37-5.59,0-4.51-2.72-6.64a10.78,10.78,0,0,0-5.74-2V13H90.43v6.59H87V13H84.39v6.59H79V50.92h5.39v6.63H87V50.92h3.45v6.63H93V50.89a11.62,11.62,0,0,0,7-2.44,8.28,8.28,0,0,0,3-6.76,8.27,8.27,0,0,0-4.9-7.79ZM85,24.53h5.47a6.11,6.11,0,0,1,3.5.88,3.44,3.44,0,0,1,1.22,3,3.24,3.24,0,0,1-1.57,2.93,7.76,7.76,0,0,1-4.19,1H85ZM95.29,44.88A6.15,6.15,0,0,1,91.41,46H85V37.17h6.87a5.11,5.11,0,0,1,3.58,1.2,4.36,4.36,0,0,1,1.31,3.37,3.72,3.72,0,0,1-1.47,3.14Z" transform="translate(3.153 4)" fill="url(#linear-gradient)"/>
    <rect id="Rectangle_10" data-name="Rectangle 10" width="5.95" height="31.37" transform="translate(110.803 23.55)" fill="url(#linear-gradient-2)"/>
    <path id="Path_97" data-name="Path 97" d="M144.32,24.26H133.57V50.92h-6.04V24.26h-9.55V19.55h25.37Z" transform="translate(3.153 4)" fill="url(#linear-gradient-2)"/>
    <path id="Path_98" data-name="Path 98" d="M179.44,50.92h-4l.1-3a9.25,9.25,0,0,1,1.76-.37c.8-.1,1.51-.17,2.13-.2l1.24,3.57Zm0-26.65v-.83a4.29,4.29,0,0,1-2.28-.6,2.07,2.07,0,0,1-1.09-1.63,4.669,4.669,0,0,1-.08-.52,1.33,1.33,0,0,1,.08-.57l8.4-.57-.31,3.84v.52Zm0-1.09,4.72.21V50.92h-4.72Zm3.42,27.74,1.3-3.57c.58.07,1.12.14,1.61.23a6.66,6.66,0,0,1,1.24.34l.05,3h-4.2Zm2.68-20.53a10.26,10.26,0,0,1,2.92-1.94,8.28,8.28,0,0,1,3.39-.75,9.9,9.9,0,0,1,3.18.49,6.56,6.56,0,0,1,2.54,1.53,7.54,7.54,0,0,1,1.68,2.59,10.151,10.151,0,0,1,.62,3.73V50.92h-4.72V37A6.22,6.22,0,0,0,194,33.09a4.55,4.55,0,0,0-3.79-1.45,5.71,5.71,0,0,0-2.44.59,8.71,8.71,0,0,0-2.24,1.53Zm9.61,20.53h-2.8l.05-3a9.251,9.251,0,0,1,1.22-.31c.5-.11,1-.19,1.53-.26l1.3,3.57Zm3.44,0,1.23-3.57a18.025,18.025,0,0,1,2.12.2,9.39,9.39,0,0,1,1.77.37l.1,3Z" transform="translate(3.153 4)" fill="url(#linear-gradient-4)"/>
    <path id="Path_99" data-name="Path 99" d="M210.8,50.88h-4l.11-3a8.37,8.37,0,0,1,1.75-.36c.79-.11,1.5-.17,2.12-.21l1.29,3.57Zm0-18.45v-.52a3.85,3.85,0,0,1-2.2-.62,2.19,2.19,0,0,1-1-1.65,2.35,2.35,0,0,1,.05-1.09l7.85-.83V32Zm0-1.14,4.7.21V50.88h-4.7Zm3.41,19.59,1.29-3.57a11.64,11.64,0,0,1,1.17.08l1.39.15,1.29.16a3.86,3.86,0,0,1,.86.18l.1,3h-6.1Zm9.67-19.23a2.33,2.33,0,0,0-.7-.31,4.49,4.49,0,0,0-2.82.31,7,7,0,0,0-1.5,1A9,9,0,0,0,217.67,34c-.34.47-.63.89-.87,1.27V30.93c.2-.24.48-.55.82-.93a7.26,7.26,0,0,1,1.24-1.06,7.59,7.59,0,0,1,1.76-.85,7.21,7.21,0,0,1,2.38-.37,6.51,6.51,0,0,1,1.88.29,2.71,2.71,0,0,1,1.53,1.16Zm2.53-2.48-.57,4.7a4,4,0,0,1-1,0c-1.79-.13-2.64-1.65-2.53-4.54Z" transform="translate(3.153 4)" fill="url(#linear-gradient-5)"/>
    <path id="Path_100" data-name="Path 100" d="M239.07,50.88a12.47,12.47,0,0,1-4.65-.94,11,11,0,0,1-3.54-2.37A10.7,10.7,0,0,1,228.61,44a12.1,12.1,0,0,1-.81-4.48,12.77,12.77,0,0,1,.83-4.65A11.52,11.52,0,0,1,231,31.21a10.83,10.83,0,0,1,3.56-2.47,12.52,12.52,0,0,1,4.55-1v3.34a6,6,0,0,0-4.34,2.41,9.19,9.19,0,0,0-1.67,5.8A9.72,9.72,0,0,0,234.7,45a5.65,5.65,0,0,0,4.37,2.51Zm1.32-3.34a5.54,5.54,0,0,0,2.27-.81A6.73,6.73,0,0,0,244.53,45a8.64,8.64,0,0,0,1.27-2.54,10.75,10.75,0,0,0,.45-3.22,9.07,9.07,0,0,0-1.64-5.7,6.3,6.3,0,0,0-4.22-2.46V27.72a11.62,11.62,0,0,1,4.4.94,10.49,10.49,0,0,1,3.48,2.43,11.1,11.1,0,0,1,2.27,3.56,11.61,11.61,0,0,1,.82,4.35,12.14,12.14,0,0,1-.85,4.62,11.16,11.16,0,0,1-2.32,3.64,11.56,11.56,0,0,1-3.48,2.48,12.88,12.88,0,0,1-4.32,1.14Z" transform="translate(3.153 4)" fill="url(#linear-gradient-6)"/>
    <path id="Path_101" data-name="Path 101" d="M170.88,45.88a14.4,14.4,0,1,1,0-21.22,12.183,12.183,0,0,1,.88.88l.89-.89c-.28-.3-.58-.6-.89-.88a15.66,15.66,0,1,0,0,23,12.321,12.321,0,0,0,.89-.88l-.89-.89A12.321,12.321,0,0,1,170.88,45.88ZM169.1,28.2a9.141,9.141,0,0,0-.88-.88,10.64,10.64,0,1,0,0,15.9,10.438,10.438,0,0,0,.88-.88l-.89-.89L162,35.27l6.17-6.18Zm-8.83,7.07,7.06,7.06a9.39,9.39,0,1,1,0-14.13Zm9.72-8,.89-.88a12.449,12.449,0,0,0-.89-.89A13.16,13.16,0,1,0,170,45a12.321,12.321,0,0,0,.89-.88l-.89-.89a12.322,12.322,0,0,1-.88.89,11.9,11.9,0,1,1,0-17.68,12.177,12.177,0,0,1,.88.87Z" transform="translate(3.153 4)" fill="url(#linear-gradient-7)"/>
    <path id="Path_102" data-name="Path 102" d="M43.48,43.21a3,3,0,0,1,4.24-2.84c.21.09.36.12.54-.07,1.14-1.12,2.29-2.22,3.45-3.33a.44.44,0,0,0,.13-.58,2.89,2.89,0,0,1,0-2.34.36.36,0,0,0-.09-.48l-3.54-3.43a.31.31,0,0,0-.42-.06,3,3,0,1,1,1.45-1.5.35.35,0,0,0,.09.45c1.18,1.14,2.37,2.28,3.54,3.43a.34.34,0,0,0,.43.08,3,3,0,0,1,2.66,0,.43.43,0,0,0,.38-.07c1.19-1.13,2.36-2.28,3.55-3.42.18-.17.14-.32.07-.51a3.014,3.014,0,0,1,5.21-2.94,3.06,3.06,0,0,1,0,3.55,3,3,0,0,1-3.75.94.34.34,0,0,0-.45.08l-3.48,3.39a.41.41,0,0,0-.11.54,2.81,2.81,0,0,1,0,2.34.38.38,0,0,0,.11.5L61,40.29a.42.42,0,0,0,.54.1A3,3,0,1,1,60,42a.5.5,0,0,0-.14-.65q-1.7-1.62-3.37-3.26a.45.45,0,0,0-.57-.12,2.85,2.85,0,0,1-2.53,0,.39.39,0,0,0-.51.1l-3.47,3.35a.4.4,0,0,0-.09.54,3,3,0,0,1-5.16,3,3.13,3.13,0,0,1-.68-1.75Z" transform="translate(3.153 4)" fill="url(#linear-gradient-8)"/>
    <path id="Path_103" data-name="Path 103" d="M46.48,16.51a3,3,0,0,1,2.75,4.23.39.39,0,0,0,.1.51c1.13,1.11,2.26,2.23,3.37,3.36a.39.39,0,0,0,.56.09,2.89,2.89,0,0,1,2.78,0,.31.31,0,0,0,.44-.07l3.42-3.41a.39.39,0,0,0,.09-.51,3,3,0,1,1,3.71,1.63,2.92,2.92,0,0,1-2.21-.13.31.31,0,0,0-.42.07l-3.58,3.55a.33.33,0,0,0-.07.42A3.009,3.009,0,1,1,51.68,28a3.33,3.33,0,0,1,.11-1.77.48.48,0,0,0-.08-.42c-1.17-1.19-2.36-2.38-3.56-3.55a.43.43,0,0,0-.35-.07,3,3,0,1,1-1.68-5.69Z" transform="translate(3.153 4)" fill="url(#linear-gradient-9)"/>
    <path id="Path_104" data-name="Path 104" d="M43.72,49.8a3.05,3.05,0,0,1,3.79-1.61l.45.14a.42.42,0,0,0,.35,0c1.19-1.17,2.36-2.35,3.53-3.53a.39.39,0,0,0,0-.35,3,3,0,1,1,5.51-.21.4.4,0,0,0,.08.43q1.77,1.74,3.52,3.5a.46.46,0,0,0,.51.08,3,3,0,1,1-1.64,1.85.91.91,0,0,0-.28-1.14c-1-1-2-2-3.06-3-.2-.21-.34-.25-.67-.05a2.34,2.34,0,0,1-2.38.08c-.3-.17-.43-.16-.62,0-1.14,1.15-2.29,2.3-3.44,3.43a.55.55,0,0,0-.11.6,3.006,3.006,0,0,1-5.63,2.11A2.91,2.91,0,0,1,43.72,49.8Z" transform="translate(3.153 4)" fill="url(#linear-gradient-10)"/>
    <path id="Path_105" data-name="Path 105" d="M35.55,44.17a3,3,0,0,1,4.05-3.8.37.37,0,0,0,.5-.1q1.74-1.76,3.49-3.48a.47.47,0,0,0,.09-.48,2.89,2.89,0,0,1,0-2.18.43.43,0,0,0-.08-.39l-3.55-3.57a.38.38,0,0,0-.42-.07,3,3,0,1,1,1-4.72,2.87,2.87,0,0,1,.49,3.27.3.3,0,0,0,.08.41l3.46,3.47a.32.32,0,0,0,.46,0,2.61,2.61,0,0,1,2-.33,3,3,0,0,1,1.35,5.29,2.89,2.89,0,0,1-3.32.37c-.41-.2-.41-.06-1.28.83l-2.49,2.54c-.29.21-.34.33-.24.56A3.041,3.041,0,0,1,35.6,44.3a.69.69,0,0,1-.05-.13Z" transform="translate(3.153 4)" fill="url(#linear-gradient-11)"/>
    <path id="Path_106" data-name="Path 106" d="M70.85,46.12a3,3,0,0,1-2.8-4,.46.46,0,0,0-.13-.57q-1.71-1.68-3.39-3.38a.47.47,0,0,0-.6-.12,3,3,0,1,1,.24-5.36.31.31,0,0,0,.44-.06c1.14-1.15,2.28-2.3,3.44-3.44.19-.19.15-.34.06-.55a3,3,0,1,1,3.83,1.65,2.86,2.86,0,0,1-2.31-.08.33.33,0,0,0-.45.08L65.67,33.7a.38.38,0,0,0-.11.48,2.77,2.77,0,0,1-.06,2.27.41.41,0,0,0,.11.54L69,40.34a.36.36,0,0,0,.53.09,3,3,0,1,1,1.34,5.69Z" transform="translate(3.153 4)" fill="url(#linear-gradient-12)"/>
    <circle id="Ellipse_14" data-name="Ellipse 14" cx="2.12" cy="2.12" r="2.12" transform="translate(55.633 29.27)" fill="none" stroke="#fff" stroke-miterlimit="10" stroke-width="1"/>
    <circle id="Ellipse_17" data-name="Ellipse 17" cx="2.12" cy="2.12" r="2.12" transform="translate(47.533 45)" fill="none" stroke="#fff" stroke-miterlimit="10" stroke-width="1"/>
    <circle id="Ellipse_18" data-name="Ellipse 18" cx="2.12" cy="2.12" r="2.12" transform="translate(47.533 52.88)" fill="none" stroke="#fff" stroke-miterlimit="10" stroke-width="1"/>
    <circle id="Ellipse_19" data-name="Ellipse 19" cx="2.12" cy="2.12" r="2.12" transform="translate(55.633 45)" fill="none" stroke="#fff" stroke-miterlimit="10" stroke-width="1"/>
    <circle id="Ellipse_20" data-name="Ellipse 20" cx="2.12" cy="2.12" r="2.12" transform="translate(63.783 52.88)" fill="none" stroke="#fff" stroke-miterlimit="10" stroke-width="1"/>
    <circle id="Ellipse_21" data-name="Ellipse 21" cx="2.12" cy="2.12" r="2.12" transform="translate(63.783 45)" fill="none" stroke="#fff" stroke-miterlimit="10" stroke-width="1"/>
    <circle id="Ellipse_22" data-name="Ellipse 22" cx="2.12" cy="2.12" r="2.12" transform="translate(55.633 37.06)" fill="none" stroke="#fff" stroke-miterlimit="10" stroke-width="1"/>
    <circle id="Ellipse_23" data-name="Ellipse 23" cx="2.12" cy="2.12" r="2.12" transform="translate(63.783 37.06)" fill="none" stroke="#fff" stroke-miterlimit="10" stroke-width="1"/>
    <circle id="Ellipse_24" data-name="Ellipse 24" cx="2.12" cy="2.12" r="2.12" transform="translate(71.873 45)" fill="none" stroke="#fff" stroke-miterlimit="10" stroke-width="1"/>
    <circle id="Ellipse_25" data-name="Ellipse 25" cx="2.12" cy="2.12" r="2.12" transform="translate(63.783 29.21)" fill="none" stroke="#fff" stroke-miterlimit="10" stroke-width="1"/>
    <circle id="Ellipse_26" data-name="Ellipse 26" cx="2.12" cy="2.12" r="2.12" transform="translate(47.533 29.21)" fill="none" stroke="#fff" stroke-miterlimit="10" stroke-width="1"/>
    <circle id="Ellipse_27" data-name="Ellipse 27" cx="2.12" cy="2.12" r="2.12" transform="translate(71.913 29.21)" fill="none" stroke="#fff" stroke-miterlimit="10" stroke-width="1"/>
    <circle id="Ellipse_28" data-name="Ellipse 28" cx="2.12" cy="2.12" r="2.12" transform="translate(47.533 37.06)" fill="none" stroke="#fff" stroke-miterlimit="10" stroke-width="1"/>
  </g>
</svg>
