<svg
  xmlns="http://www.w3.org/2000/svg"
  xmlns:xlink="http://www.w3.org/1999/xlink"
  id="Layer_1"
  data-name="Layer 1"
  viewBox="0 0 309 56.39"
><defs><style
    >.cls-1,.cls-2,.cls-3{fill:none;stroke-miterlimit:10;}.cls-1{stroke:url(#Degradado_sin_nombre_2074);}.cls-2{stroke:url(#Degradado_sin_nombre_2074-2);}.cls-3{stroke:url(#Degradado_sin_nombre_2074-3);}.cls-4{fill:url(#Degradado_sin_nombre_2074-4);}.cls-5{fill:url(#Degradado_sin_nombre_2074-5);}.cls-6{fill:url(#Degradado_sin_nombre_2074-6);}.cls-7{fill:url(#Degradado_sin_nombre_2074-7);}.cls-8{fill:url(#Degradado_sin_nombre_2074-8);}.cls-9{fill:url(#Degradado_sin_nombre_2074-9);}</style><linearGradient
      id="Degradado_sin_nombre_2074"
      x1="5.34"
      y1="29.09"
      x2="42.51"
      y2="29.09"
      gradientUnits="userSpaceOnUse"
    ><stop offset="0" stop-color="#cb01ff" /><stop
        offset="1"
        stop-color="#00ff57"
      /></linearGradient><linearGradient
      id="Degradado_sin_nombre_2074-2"
      x1="52.38"
      y1="29.09"
      x2="79.33"
      y2="29.09"
      xlink:href="#Degradado_sin_nombre_2074"
    /><linearGradient
      id="Degradado_sin_nombre_2074-3"
      x1="81.69"
      y1="29.09"
      x2="118.36"
      y2="29.09"
      xlink:href="#Degradado_sin_nombre_2074"
    /><linearGradient
      id="Degradado_sin_nombre_2074-4"
      x1="138.38"
      y1="28.91"
      x2="168.05"
      y2="28.91"
      xlink:href="#Degradado_sin_nombre_2074"
    /><linearGradient
      id="Degradado_sin_nombre_2074-5"
      x1="171.91"
      y1="35.88"
      x2="205.72"
      y2="35.88"
      xlink:href="#Degradado_sin_nombre_2074"
    /><linearGradient
      id="Degradado_sin_nombre_2074-6"
      x1="213.37"
      y1="35.49"
      x2="230.74"
      y2="35.49"
      xlink:href="#Degradado_sin_nombre_2074"
    /><linearGradient
      id="Degradado_sin_nombre_2074-7"
      x1="234.82"
      y1="31.27"
      x2="255.33"
      y2="31.27"
      xlink:href="#Degradado_sin_nombre_2074"
    /><linearGradient
      id="Degradado_sin_nombre_2074-8"
      x1="259.7"
      y1="35.88"
      x2="287.29"
      y2="35.88"
      xlink:href="#Degradado_sin_nombre_2074"
    /><linearGradient
      id="Degradado_sin_nombre_2074-9"
      x1="296.87"
      y1="27.8"
      x2="303.16"
      y2="27.8"
      xlink:href="#Degradado_sin_nombre_2074"
    /></defs><path
    class="cls-1"
    d="M5.84,53.18V5h6.79L28.07,29.37A136.36,136.36,0,0,1,36.72,45l.15-.07c-.58-6.44-.72-12.3-.72-19.8V5H42V53.18H35.72L20.42,28.73a153.37,153.37,0,0,1-9-16.08l-.22.07c.36,6.07.5,11.86.5,19.87V53.18Z"
  /><path
    class="cls-2"
    d="M52.88,5H78.83v5.22H59.1v16H77.33v5.15H59.1v21.8H52.88Z"
  /><path
    class="cls-3"
    d="M96.85,10.29H82.19V5h35.67v5.29H103.14V53.18H96.85Z"
  /><path
    class="cls-4"
    d="M138.38,5.57a72.06,72.06,0,0,1,11.94-.93c6.15,0,10.65,1.43,13.51,4a13,13,0,0,1,4.22,10.08c0,4.36-1.29,7.79-3.72,10.3-3.29,3.5-8.65,5.29-14.73,5.29a21.22,21.22,0,0,1-5-.43v19.3h-6.22ZM144.6,28.8a20.73,20.73,0,0,0,5.15.5c7.5,0,12.08-3.64,12.08-10.29,0-6.36-4.51-9.44-11.37-9.44a26.41,26.41,0,0,0-5.86.5Z"
  /><path
    class="cls-5"
    d="M205.72,35.59c0,12.8-8.86,18.38-17.23,18.38-9.36,0-16.58-6.87-16.58-17.8,0-11.59,7.58-18.38,17.16-18.38C199,17.79,205.72,25,205.72,35.59ZM178.27,36c0,7.58,4.36,13.3,10.51,13.3,6,0,10.51-5.65,10.51-13.44,0-5.86-2.93-13.3-10.37-13.3S178.27,29.37,178.27,36Z"
  /><path
    class="cls-6"
    d="M213.66,29.37c0-4.07-.07-7.57-.29-10.79h5.51l.21,6.79h.29c1.57-4.65,5.36-7.58,9.58-7.58a6.47,6.47,0,0,1,1.78.22v5.93a9.57,9.57,0,0,0-2.14-.21c-4.43,0-7.58,3.36-8.44,8.07a18.13,18.13,0,0,0-.28,2.94V53.18h-6.22Z"
  /><path
    class="cls-7"
    d="M246.33,8.64v9.94h9v4.79h-9V42c0,4.29,1.21,6.72,4.72,6.72a14.12,14.12,0,0,0,3.64-.43L255,53a15.48,15.48,0,0,1-5.58.85,8.73,8.73,0,0,1-6.79-2.64c-1.79-1.86-2.43-4.93-2.43-9V23.37h-5.36V18.58h5.36V10.29Z"
  /><path
    class="cls-8"
    d="M281.57,53.18l-.5-4.36h-.21A12.91,12.91,0,0,1,270.28,54c-7,0-10.58-4.94-10.58-9.94,0-8.37,7.43-12.94,20.8-12.87v-.71c0-2.86-.79-8-7.86-8a17.26,17.26,0,0,0-9,2.57l-1.43-4.14a21.44,21.44,0,0,1,11.36-3.08c10.58,0,13.16,7.22,13.16,14.16V44.89a48.61,48.61,0,0,0,.57,8.29Zm-.93-17.66c-6.86-.14-14.65,1.07-14.65,7.79,0,4.08,2.71,6,5.93,6a8.61,8.61,0,0,0,8.36-5.79,6.45,6.45,0,0,0,.36-2Z"
  /><path class="cls-9" d="M296.87,2.42h6.29V53.18h-6.29Z" /></svg>
