<svg id="Layer_1" data-name="Layer 1" xmlns="http://www.w3.org/2000/svg" xmlns:xlink="http://www.w3.org/1999/xlink" viewBox="0 0 610.94 77.29"><defs><style>.cls-1,.cls-10,.cls-11,.cls-12,.cls-13,.cls-14,.cls-15,.cls-16,.cls-17,.cls-18,.cls-2,.cls-3,.cls-4,.cls-5,.cls-6,.cls-7,.cls-8,.cls-9{fill:none;stroke-miterlimit:10;stroke-width:2px;}.cls-1{stroke:url(#Degradado_sin_nombre_2);}.cls-2{stroke:url(#Degradado_sin_nombre_2-2);}.cls-3{stroke:url(#Degradado_sin_nombre_2-3);}.cls-4{stroke:url(#Degradado_sin_nombre_2-4);}.cls-5{stroke:url(#Degradado_sin_nombre_2-5);}.cls-6{stroke:url(#Degradado_sin_nombre_2-6);}.cls-7{stroke:url(#Degradado_sin_nombre_2-7);}.cls-8{stroke:url(#Degradado_sin_nombre_2-8);}.cls-9{stroke:url(#Degradado_sin_nombre_2-9);}.cls-10{stroke:url(#Degradado_sin_nombre_2-10);}.cls-11{stroke:url(#Degradado_sin_nombre_2-11);}.cls-12{stroke:url(#Degradado_sin_nombre_2-12);}.cls-13{stroke:url(#Degradado_sin_nombre_2-13);}.cls-14{stroke:url(#Degradado_sin_nombre_2-14);}.cls-15{stroke:url(#Degradado_sin_nombre_2-15);}.cls-16{stroke:url(#Degradado_sin_nombre_2-16);}.cls-17{stroke:url(#Degradado_sin_nombre_2-17);}.cls-18{stroke:url(#Degradado_sin_nombre_2-18);}</style><linearGradient id="Degradado_sin_nombre_2" x1="-1" y1="35.47" x2="39.62" y2="35.47" gradientUnits="userSpaceOnUse"><stop offset="0" stop-color="#c901fd"/><stop offset="1" stop-color="#00ff57"/></linearGradient><linearGradient id="Degradado_sin_nombre_2-2" x1="45.53" y1="42.95" x2="75.21" y2="42.95" xlink:href="#Degradado_sin_nombre_2"/><linearGradient id="Degradado_sin_nombre_2-3" x1="82.93" y1="42.04" x2="103.59" y2="42.04" xlink:href="#Degradado_sin_nombre_2"/><linearGradient id="Degradado_sin_nombre_2-4" x1="113.79" y1="35.47" x2="148.62" y2="35.47" xlink:href="#Degradado_sin_nombre_2"/><linearGradient id="Degradado_sin_nombre_2-5" x1="147.41" y1="42.04" x2="168.07" y2="42.04" xlink:href="#Degradado_sin_nombre_2"/><linearGradient id="Degradado_sin_nombre_2-6" x1="169.1" y1="42.95" x2="198.78" y2="42.95" xlink:href="#Degradado_sin_nombre_2"/><linearGradient id="Degradado_sin_nombre_2-7" x1="202.87" y1="42.48" x2="233.89" y2="42.48" xlink:href="#Degradado_sin_nombre_2"/><linearGradient id="Degradado_sin_nombre_2-8" x1="234.45" y1="37.37" x2="258.57" y2="37.37" xlink:href="#Degradado_sin_nombre_2"/><linearGradient id="Degradado_sin_nombre_2-9" x1="259.21" y1="42.48" x2="292.09" y2="42.48" xlink:href="#Degradado_sin_nombre_2"/><linearGradient id="Degradado_sin_nombre_2-10" x1="294.92" y1="35.82" x2="327.74" y2="35.82" xlink:href="#Degradado_sin_nombre_2"/><linearGradient id="Degradado_sin_nombre_2-11" x1="350.7" y1="35.47" x2="385.77" y2="35.47" xlink:href="#Degradado_sin_nombre_2"/><linearGradient id="Degradado_sin_nombre_2-12" x1="387.86" y1="42.48" x2="420.7" y2="42.48" xlink:href="#Degradado_sin_nombre_2"/><linearGradient id="Degradado_sin_nombre_2-13" x1="426.91" y1="42.04" x2="447.57" y2="42.04" xlink:href="#Degradado_sin_nombre_2"/><linearGradient id="Degradado_sin_nombre_2-14" x1="447.81" y1="37.37" x2="471.94" y2="37.37" xlink:href="#Degradado_sin_nombre_2"/><linearGradient id="Degradado_sin_nombre_2-15" x1="480.25" y1="41.99" x2="509.92" y2="41.99" xlink:href="#Degradado_sin_nombre_2"/><linearGradient id="Degradado_sin_nombre_2-16" x1="515.36" y1="42.48" x2="548.24" y2="42.48" xlink:href="#Degradado_sin_nombre_2"/><linearGradient id="Degradado_sin_nombre_2-17" x1="553.04" y1="42.04" x2="573.7" y2="42.04" xlink:href="#Degradado_sin_nombre_2"/><linearGradient id="Degradado_sin_nombre_2-18" x1="573.38" y1="42.48" x2="604.4" y2="42.48" xlink:href="#Degradado_sin_nombre_2"/></defs><path class="cls-1" d="M38.62,35.45q0,13.78-4.92,20.83t-14.29,7Q10,63.32,5,56.3T0,35.45q0-13.7,5-20.77T19.37,7.62q9.33,0,14.29,7T38.62,35.45Zm-9.33,0q0-9.57-2.23-15.07t-7.77-5.5q-5.55,0-7.76,5.52t-2.2,15c0,6.25.72,11.25,2.16,15S15.58,56,19.41,56Q24.8,56,27,50.62T29.29,35.47Z"/><path class="cls-2" d="M46.53,22.58h8.19V47.85c0,3.52.29,5.87.87,7.07s1.85,1.79,3.83,1.79a5.2,5.2,0,0,0,5.14-3.19Q66,50.33,66,41.71V22.58h8.19V62.34H66.65v-6q-3.18,7-10.1,7a10.38,10.38,0,0,1-5.8-1.49,8.33,8.33,0,0,1-3.24-4.26q-1-2.74-1-9.56Z"/><path class="cls-3" d="M83.93,22.58h7.2v8.9q3.32-9.74,10-9.73a11.2,11.2,0,0,1,1.5.12v8.54a15.08,15.08,0,0,0-1.66-.12q-8.82,0-8.81,11.81V62.34H83.93Z"/><path class="cls-4" d="M114.79,8.6h32.83v7.56h-12V62.34h-8.9V16.16H114.79Z"/><path class="cls-5" d="M148.41,22.58h7.2v8.9q3.33-9.74,10-9.73a11.2,11.2,0,0,1,1.5.12v8.54a15.08,15.08,0,0,0-1.66-.12q-8.81,0-8.81,11.81V62.34h-8.19Z"/><path class="cls-6" d="M170.1,22.58h8.19V47.85c0,3.52.29,5.87.87,7.07S181,56.71,183,56.71a5.2,5.2,0,0,0,5.14-3.19q1.45-3.19,1.46-11.81V22.58h8.19V62.34h-7.56v-6q-3.18,7-10.1,7a10.38,10.38,0,0,1-5.8-1.49,8.33,8.33,0,0,1-3.24-4.26q-1-2.74-1-9.56Z"/><path class="cls-7" d="M231.43,31.87,225,33.6q-1.77-6-6.73-6A5,5,0,0,0,214.6,29a4.82,4.82,0,0,0-1.39,3.51A4.12,4.12,0,0,0,214.62,36c.95.74,3.11,1.66,6.5,2.76q6.25,2.09,9,4.7a9.59,9.59,0,0,1,2.76,7.3A11.67,11.67,0,0,1,229,59.68q-3.93,3.65-10.63,3.64-12.63,0-14.32-11.57l7-1.3q1.35,6.86,7.6,6.85a6.38,6.38,0,0,0,4.74-1.58A5.12,5.12,0,0,0,224.86,52a5.07,5.07,0,0,0-1.06-3q-1.06-1.47-6-3a42.32,42.32,0,0,1-7.06-2.79,10.52,10.52,0,0,1-3.92-3.76,10.34,10.34,0,0,1-1.54-5.57A11.56,11.56,0,0,1,209,25.2a13.22,13.22,0,0,1,9.57-3.57Q228.56,21.63,231.43,31.87Z"/><path class="cls-8" d="M241.28,12.22l7.4-.7V22.58h7.59v6.61h-7.59V46.72a52.06,52.06,0,0,0,.23,6.16,3.84,3.84,0,0,0,1.42,2.47,6.31,6.31,0,0,0,3.94,1,23,23,0,0,0,3.3-.27v6.57a29.55,29.55,0,0,1-6.14.71c-3.07,0-5.42-.59-7-1.79a7.84,7.84,0,0,1-3.11-4.86,47.58,47.58,0,0,1-.67-9.37V29.19h-5.16V22.58h5.39Z"/><path class="cls-9" d="M291.07,43.68H268.6q0,8,2.17,10.73a6.76,6.76,0,0,0,5.48,2.69q5.5,0,6.95-7.4l7.52,1q-3,12.63-14.72,12.63a14.18,14.18,0,0,1-11.5-5.16q-4.29-5.14-4.29-15.11,0-10.23,4.33-15.83a13.92,13.92,0,0,1,11.57-5.59,13.15,13.15,0,0,1,8.55,2.8,14.88,14.88,0,0,1,4.88,7.34A43.29,43.29,0,0,1,291.07,43.68Zm-8.38-5.55q0-10.51-6.85-10.51-6.42,0-7,10.51Z"/><path class="cls-10" d="M318.55,8.6h8.19V62.34h-7.56v-6q-2.87,6.73-9.85,6.74a11,11,0,0,1-10.06-5.63q-3.36-5.62-3.35-14.76,0-9.81,3.7-15.28a11.39,11.39,0,0,1,9.87-5.47c4.31,0,7.34,1.76,9.06,5.27Zm0,30.34q0-6.13-2.31-8.59a6.62,6.62,0,0,0-4.77-2.46q-6.81,0-6.82,14,0,14.94,6.89,14.94a6.37,6.37,0,0,0,4.84-2.48q2.17-2.48,2.17-8.61Z"/><path class="cls-11" d="M351.7,8.6H365a36.8,36.8,0,0,1,10.36,1.2,12.29,12.29,0,0,1,6.69,5.32,17.56,17.56,0,0,1,2.72,9.9,18,18,0,0,1-2.21,9.13,12.89,12.89,0,0,1-5.92,5.51q-3.72,1.7-11.44,1.7h-4.61v21H351.7Zm8.89,6.89V34.23H365q5.91,0,8.17-2.2t2.27-7.17a10.82,10.82,0,0,0-1.5-6A6.28,6.28,0,0,0,370.65,16a21.82,21.82,0,0,0-5.65-.53Z"/><path class="cls-12" d="M398.23,33.84l-7.91-1a11.82,11.82,0,0,1,4.89-8.26,16.81,16.81,0,0,1,10.08-3,15.12,15.12,0,0,1,8.55,2.15,9.16,9.16,0,0,1,4,5.1,35.61,35.61,0,0,1,.83,8.93V51.36c0,5.48.23,9.14.71,11h-7.76a31.42,31.42,0,0,1-.51-6.62q-3.74,7.61-11.16,7.6a10.84,10.84,0,0,1-8.08-3.09,11.44,11.44,0,0,1-3-8.4,12.78,12.78,0,0,1,4.46-10.28q4.46-3.78,15.46-3.78l1.73,0V36.2a12.9,12.9,0,0,0-1.28-6.42q-1.28-2.16-4.57-2.16Q399.29,27.62,398.23,33.84ZM410.51,43c-1.05-.1-1.84-.16-2.39-.16q-10.68,0-10.68,8.39,0,6.11,5.3,6.1,3.11,0,5.43-3.31t2.34-9.09Z"/><path class="cls-13" d="M427.91,22.58h7.2v8.9q3.33-9.74,10-9.73a11.2,11.2,0,0,1,1.5.12v8.54a15.08,15.08,0,0,0-1.66-.12q-8.81,0-8.81,11.81V62.34h-8.19Z"/><path class="cls-14" d="M454.64,12.22l7.4-.7V22.58h7.6v6.61H462V46.72a49.19,49.19,0,0,0,.24,6.16,3.83,3.83,0,0,0,1.41,2.47,6.31,6.31,0,0,0,3.94,1,23.28,23.28,0,0,0,3.31-.27v6.57a29.63,29.63,0,0,1-6.14.71c-3.07,0-5.42-.59-7.05-1.79a7.89,7.89,0,0,1-3.11-4.86A47.58,47.58,0,0,1,454,47.3V29.19h-5.16V22.58h5.4Z"/><path class="cls-15" d="M481.25,22.58h7.56v6.14q2.76-7.08,9.86-7.09a10.29,10.29,0,0,1,6.49,1.93,8.28,8.28,0,0,1,3.11,4.63,39.58,39.58,0,0,1,.65,8.52V62.34h-8.19V37.17q0-5.19-.9-7.06T496,28.25a5.59,5.59,0,0,0-4.81,2.38q-1.71,2.37-1.71,9.45V62.34h-8.19Z"/><path class="cls-16" d="M547.23,43.68H524.75q0,8,2.18,10.73a6.74,6.74,0,0,0,5.47,2.69q5.51,0,7-7.4l7.52,1q-3,12.63-14.72,12.63a14.2,14.2,0,0,1-11.5-5.16q-4.29-5.14-4.29-15.11,0-10.23,4.33-15.83a13.93,13.93,0,0,1,11.58-5.59,13.14,13.14,0,0,1,8.54,2.8,14.81,14.81,0,0,1,4.88,7.34A43.24,43.24,0,0,1,547.23,43.68Zm-8.39-5.55q0-10.51-6.85-10.51-6.42,0-7,10.51Z"/><path class="cls-17" d="M554,22.58h7.2v8.9q3.32-9.74,10-9.73a11.2,11.2,0,0,1,1.5.12v8.54a15.08,15.08,0,0,0-1.66-.12q-8.82,0-8.82,11.81V62.34H554Z"/><path class="cls-18" d="M602,31.87l-6.42,1.73q-1.77-6-6.73-6A4.94,4.94,0,0,0,585.12,29a4.79,4.79,0,0,0-1.4,3.51A4.09,4.09,0,0,0,585.14,36c.94.74,3.11,1.66,6.49,2.76q6.25,2.09,9,4.7a9.62,9.62,0,0,1,2.75,7.3,11.69,11.69,0,0,1-3.93,8.92q-3.94,3.65-10.63,3.64-12.65,0-14.33-11.57l7-1.3q1.35,6.86,7.6,6.85a6.42,6.42,0,0,0,4.75-1.58A5.15,5.15,0,0,0,595.37,52a5.07,5.07,0,0,0-1.06-3q-1.06-1.47-5.95-3a42.69,42.69,0,0,1-7.06-2.79,10.52,10.52,0,0,1-3.92-3.76,10.34,10.34,0,0,1-1.53-5.57,11.52,11.52,0,0,1,3.7-8.64,13.18,13.18,0,0,1,9.56-3.57Q599.07,21.63,602,31.87Z"/></svg>