<svg
  xmlns="http://www.w3.org/2000/svg"
  xmlns:xlink="http://www.w3.org/1999/xlink"
  id="Layer_1"
  data-name="Layer 1"
  viewBox="0 0 501.82 119.66"
><defs><style
    >.cls-1,.cls-2,.cls-3,.cls-4,.cls-5,.cls-6,.cls-7{fill:none;stroke-miterlimit:10;stroke-width:3px;}.cls-1{stroke:url(#Degradado_sin_nombre_2);}.cls-2{stroke:url(#Degradado_sin_nombre_2-2);}.cls-3{stroke:url(#Degradado_sin_nombre_2-3);}.cls-4{stroke:url(#Degradado_sin_nombre_2-4);}.cls-5{stroke:url(#Degradado_sin_nombre_2-5);}.cls-6{stroke:url(#Degradado_sin_nombre_2-6);}.cls-7{stroke:url(#Degradado_sin_nombre_2-7);}</style><linearGradient
      id="Degradado_sin_nombre_2"
      y1="48.14"
      x2="69.3"
      y2="48.14"
      gradientUnits="userSpaceOnUse"
    ><stop offset="0" stop-color="#c901fd" /><stop
        offset="1"
        stop-color="#00ff57"
      /></linearGradient><linearGradient
      id="Degradado_sin_nombre_2-2"
      x1="70.8"
      y1="60.31"
      x2="129.84"
      y2="60.31"
      xlink:href="#Degradado_sin_nombre_2"
    /><linearGradient
      id="Degradado_sin_nombre_2-3"
      x1="136"
      y1="60.27"
      x2="195.77"
      y2="60.27"
      xlink:href="#Degradado_sin_nombre_2"
    /><linearGradient
      id="Degradado_sin_nombre_2-4"
      x1="201.95"
      y1="48.62"
      x2="260.58"
      y2="48.62"
      xlink:href="#Degradado_sin_nombre_2"
    /><linearGradient
      id="Degradado_sin_nombre_2-5"
      x1="273.36"
      y1="48.14"
      x2="363.64"
      y2="48.14"
      xlink:href="#Degradado_sin_nombre_2"
    /><linearGradient
      id="Degradado_sin_nombre_2-6"
      x1="374.44"
      y1="60.27"
      x2="434.21"
      y2="60.27"
      xlink:href="#Degradado_sin_nombre_2"
    /><linearGradient
      id="Degradado_sin_nombre_2-7"
      x1="443.33"
      y1="71.52"
      x2="501.82"
      y2="71.52"
      xlink:href="#Degradado_sin_nombre_2"
    /></defs><path
    class="cls-1"
    d="M1.5,1.5H30.82a81.43,81.43,0,0,1,13.09.79A21.71,21.71,0,0,1,53.1,6.52,23,23,0,0,1,60.38,16,33.11,33.11,0,0,1,63,29.38Q63,46.88,49.89,54L67,94.79H44.72L32.25,57.88H22V94.79H1.5ZM22,16.6V42.78h9q12,0,12-13.47a14.67,14.67,0,0,0-1.78-7.62,9.56,9.56,0,0,0-4.13-4A17.71,17.71,0,0,0,30.2,16.6Z"
  /><path
    class="cls-2"
    d="M128.34,60.27q0,36-28,35.95T72.3,60.27q0-35.88,28.06-35.88T128.34,60.27Zm-19.89,0q0-13.22-1.8-17.87t-6.29-4.65q-4.36,0-6.27,4.41t-1.9,18.11q0,12.66,1.63,17.59c1.09,3.28,3.27,4.93,6.54,4.93s5.26-1.63,6.39-4.9S108.45,68.79,108.45,60.31Z"
  /><path
    class="cls-3"
    d="M158.07,47.7l-18.25-1.78q1.31-10.38,8.85-16t19-5.6q9.7,0,15.59,3.72c3.91,2.48,6.39,5.36,7.41,8.65s1.54,8.36,1.54,15.24V79.48q0,12.84,1.16,15.31H175.5q-1-2.81-1-10.6-6.34,12-18.9,12-8,0-13.09-4.82t-5.05-14q0-11.55,7.64-17.87T173,51.94v-2.6q0-6.9-1.4-9.57c-.93-1.78-2.73-2.66-5.41-2.66Q158.83,37.11,158.07,47.7ZM173,61.84c-5.61.64-9.6,1.88-12,3.72s-3.59,4.94-3.59,9.3q0,8.72,6.43,8.72,3.48,0,6.32-3.92T173,65.25Z"
  /><path
    class="cls-4"
    d="M240.15,1.5h18.93V94.79H241.17V83.37q-4.36,12.38-15.69,12.37-11.11,0-16.58-9.7t-5.45-25.49q0-18,6.25-26.86t16.71-8.89q9.63,0,13.74,7.39Zm0,53.14q0-10.17-2.16-13.61a7,7,0,0,0-6.28-3.45c-3.25,0-5.46,1.6-6.63,4.78s-1.75,9.78-1.75,19.79q0,11.19,1.93,15.69t6.31,4.51a7.53,7.53,0,0,0,6.14-3q2.43-3,2.44-12.45Z"
  /><path
    class="cls-5"
    d="M274.86,1.5h30.07l13.19,57.61L333,1.5h29.19V94.79H342.93V16.67L323.86,94.79H309L291.54,16.67V94.79H274.86Z"
  /><path
    class="cls-6"
    d="M396.51,47.7l-18.25-1.78q1.31-10.38,8.85-16t19-5.6q9.69,0,15.58,3.72t7.41,8.65q1.55,4.92,1.54,15.24V79.48q0,12.84,1.16,15.31h-17.9q-1-2.81-1-10.6-6.35,12-18.89,12-8.05,0-13.1-4.82t-5.05-14q0-11.55,7.64-17.87t27.83-7.55v-2.6q0-6.9-1.4-9.57c-.93-1.78-2.73-2.66-5.4-2.66Q397.26,37.11,396.51,47.7Zm14.9,14.14c-5.61.64-9.6,1.88-12,3.72s-3.58,4.94-3.58,9.3q0,8.72,6.42,8.72,3.48,0,6.32-3.92t2.84-14.41Z"
  /><path
    class="cls-7"
    d="M444.83,25.76H462.6V36.08q5.65-11.2,15.69-11.21,9.48,0,15.75,8.44t6.28,25.8q0,18.18-6.14,27.41a19.57,19.57,0,0,1-17.26,9.22,16.54,16.54,0,0,1-13.16-6.08v28.5H444.83Zm18.93,40.76q0,9.89,1.6,12.86t6.5,3a6.88,6.88,0,0,0,6.46-4q2.12-4,2.11-19.18,0-12.69-1.84-17.19c-1.22-3-3.29-4.5-6.19-4.5a7.87,7.87,0,0,0-6.12,2.83q-2.52,2.84-2.52,13.13Z"
  /></svg>
