<svg
  xmlns="http://www.w3.org/2000/svg"
  xmlns:xlink="http://www.w3.org/1999/xlink"
  id="Layer_1"
  data-name="Layer 1"
  viewBox="0 0 491.01 52.67"
><defs><style
    >.cls-1,.cls-10,.cls-11,.cls-2,.cls-3,.cls-4,.cls-5,.cls-6,.cls-7,.cls-8,.cls-9{fill:none;stroke-miterlimit:10;}.cls-1{stroke:url(#Degradado_sin_nombre_2);}.cls-2{stroke:url(#Degradado_sin_nombre_2-2);}.cls-3{stroke:url(#Degradado_sin_nombre_2-3);}.cls-4{stroke:url(#Degradado_sin_nombre_2-4);}.cls-5{stroke:url(#Degradado_sin_nombre_2-5);}.cls-6{stroke:url(#Degradado_sin_nombre_2-6);}.cls-7{stroke:url(#Degradado_sin_nombre_2-7);}.cls-8{stroke:url(#Degradado_sin_nombre_2-8);}.cls-9{stroke:url(#Degradado_sin_nombre_2-9);}.cls-10{stroke:url(#Degradado_sin_nombre_2-10);}.cls-11{stroke:url(#Degradado_sin_nombre_2-11);}</style><linearGradient
      id="Degradado_sin_nombre_2"
      y1="26.32"
      x2="55.64"
      y2="26.32"
      gradientUnits="userSpaceOnUse"
    ><stop offset="0" stop-color="#c901fd" /><stop
        offset="1"
        stop-color="#00ff57"
      /></linearGradient><linearGradient
      id="Degradado_sin_nombre_2-2"
      x1="61.98"
      y1="32.83"
      x2="98.39"
      y2="32.83"
      xlink:href="#Degradado_sin_nombre_2"
    /><linearGradient
      id="Degradado_sin_nombre_2-3"
      x1="102.16"
      y1="32.83"
      x2="138.58"
      y2="32.83"
      xlink:href="#Degradado_sin_nombre_2"
    /><linearGradient
      id="Degradado_sin_nombre_2-4"
      x1="140"
      y1="27.38"
      x2="166.28"
      y2="27.38"
      xlink:href="#Degradado_sin_nombre_2"
    /><linearGradient
      id="Degradado_sin_nombre_2-5"
      x1="187.81"
      y1="26.32"
      x2="231.56"
      y2="26.32"
      xlink:href="#Degradado_sin_nombre_2"
    /><linearGradient
      id="Degradado_sin_nombre_2-6"
      x1="237.72"
      y1="33.22"
      x2="270.39"
      y2="33.22"
      xlink:href="#Degradado_sin_nombre_2"
    /><linearGradient
      id="Degradado_sin_nombre_2-7"
      x1="278.42"
      y1="32.43"
      x2="299.42"
      y2="32.43"
      xlink:href="#Degradado_sin_nombre_2"
    /><linearGradient
      id="Degradado_sin_nombre_2-8"
      x1="318.78"
      y1="26.32"
      x2="356.55"
      y2="26.32"
      xlink:href="#Degradado_sin_nombre_2"
    /><linearGradient
      id="Degradado_sin_nombre_2-9"
      x1="354.05"
      y1="32.83"
      x2="390.46"
      y2="32.83"
      xlink:href="#Degradado_sin_nombre_2"
    /><linearGradient
      id="Degradado_sin_nombre_2-10"
      x1="394.12"
      y1="32.83"
      x2="429.87"
      y2="32.83"
      xlink:href="#Degradado_sin_nombre_2"
    /><linearGradient
      id="Degradado_sin_nombre_2-11"
      x1="437.06"
      y1="32.45"
      x2="491.01"
      y2="32.45"
      xlink:href="#Degradado_sin_nombre_2"
    /></defs><path
    class="cls-1"
    d="M22.69,51.36,10.33,10.52V51.36H.5V1.27H18.77l8.79,30,9.25-30H55.14V51.36H43.32V10.52L30.72,51.36Z"
  /><path
    class="cls-2"
    d="M97.89,34.66H74c0,.67,0,1.24,0,1.73,0,2.64.71,4.64,2.11,6a7,7,0,0,0,5,2q5.46,0,6.57-5.84l9.91.74Q93.49,52.13,80.79,52.13a18.64,18.64,0,0,1-9.41-2.22A17.63,17.63,0,0,1,65,43.44a19.79,19.79,0,0,1-2.51-10.21q0-8.83,5.05-14.27a17.83,17.83,0,0,1,25.24-.39Q97.9,23.63,97.89,34.66ZM74,28.32H87.18q-.53-7.63-6.28-7.64Q74.74,20.68,74,28.32Z"
  /><path
    class="cls-3"
    d="M138.08,34.66H114.22c0,.67,0,1.24,0,1.73,0,2.64.7,4.64,2.11,6a7,7,0,0,0,5,2q5.47,0,6.57-5.84l9.91.74Q133.67,52.13,121,52.13a18.65,18.65,0,0,1-9.42-2.22,17.53,17.53,0,0,1-6.38-6.47,19.69,19.69,0,0,1-2.52-10.21q0-8.83,5-14.27A17.85,17.85,0,0,1,133,18.57Q138.07,23.63,138.08,34.66Zm-23.89-6.34h13.17q-.51-7.63-6.28-7.64Q114.93,20.68,114.19,28.32Z"
  /><path
    class="cls-4"
    d="M157.3,22.81V38.48c0,2,.3,3.27.88,3.93s2,1,4.13,1c1,0,2.16,0,3.47-.15v8.11a46.85,46.85,0,0,1-6.86.81q-6.82,0-9.69-2.62t-2.86-9.49V22.81H140.5V14.3H147l.88-10.94,9.43-.73V14.3h8v8.51Z"
  /><path
    class="cls-5"
    d="M209.51,52.13q-10.12,0-15.66-7.59t-5.54-18.39q0-11,5.61-18.31t16-7.34q10.49,0,15.82,7.83a31.09,31.09,0,0,1,5.33,17.93q0,10.9-5.5,18.39T209.51,52.13Zm.33-42.05q-9.24,0-9.23,16.22t9.23,16.25q8.92,0,8.93-16.21T209.84,10.08Z"
  /><path
    class="cls-6"
    d="M269.89,14.3V51.36H259.76V45.05q-2.86,7.08-10.93,7.08a11.21,11.21,0,0,1-6.43-1.56,8.63,8.63,0,0,1-3.21-4.25,24.39,24.39,0,0,1-1-7.8V14.3h10.61V38.52q0,5,4.11,5a5.8,5.8,0,0,0,3.63-1.19,5.34,5.34,0,0,0,2-2.55,17.82,17.82,0,0,0,.42-4.66V14.3Z"
  /><path
    class="cls-7"
    d="M289.52,51.36h-10.6V14.3h10v6.9c1.55-5.14,4.21-7.71,8-7.71.53,0,1.19,0,2,.11V24.39a10.79,10.79,0,0,0-5.2,1,7.39,7.39,0,0,0-3,3.69,17.9,17.9,0,0,0-1.18,7.17Z"
  /><path
    class="cls-8"
    d="M356.05,1.27v9.91h-12.4V51.36H331.76V11.18H319.28V1.27Z"
  /><path
    class="cls-9"
    d="M390,34.66H366.11c0,.67,0,1.24,0,1.73,0,2.64.7,4.64,2.11,6a7,7,0,0,0,5.05,2q5.46,0,6.57-5.84l9.9.74q-4.14,12.84-16.84,12.84a18.64,18.64,0,0,1-9.41-2.22,17.63,17.63,0,0,1-6.39-6.47,19.79,19.79,0,0,1-2.51-10.21q0-8.83,5-14.27a17.85,17.85,0,0,1,25.25-.39Q390,23.63,390,34.66Zm-23.89-6.34h13.18q-.53-7.63-6.28-7.64Q366.81,20.68,366.07,28.32Z"
  /><path
    class="cls-10"
    d="M429.19,51.36H418.58a26.62,26.62,0,0,1-.51-5.8,15.31,15.31,0,0,1-5.55,5.27,14.54,14.54,0,0,1-6.28,1.3,12.25,12.25,0,0,1-8.41-2.82,9.63,9.63,0,0,1-3.21-7.6,11.7,11.7,0,0,1,1.87-6.42,12.31,12.31,0,0,1,6-4.61q4.14-1.66,15.09-2.47V26.08q0-5.4-5.37-5.4-5.75,0-6.41,5.4l-10.09-1q1-6.3,6-8.95A23.83,23.83,0,0,1,413,13.53a27.72,27.72,0,0,1,7.12.88,12,12,0,0,1,5.21,2.64,9.25,9.25,0,0,1,2.53,3.73,24.22,24.22,0,0,1,.66,6.84V44.43A25.52,25.52,0,0,0,429.19,51.36ZM417.59,33.6q-11.44,1.14-11.45,6.94a5,5,0,0,0,1.21,3.35,4.26,4.26,0,0,0,3.44,1.42,6,6,0,0,0,4.85-2.41A9.08,9.08,0,0,0,417.59,37Z"
  /><path
    class="cls-11"
    d="M490.51,51.36H479.57V30.85a37.85,37.85,0,0,0-.25-5.63A3.61,3.61,0,0,0,478,23.05a4.71,4.71,0,0,0-3-.86,6.5,6.5,0,0,0-3.67,1.28q-1.87,1.29-1.87,7.38V51.36H458.51V30.85a24.72,24.72,0,0,0-.4-5.74A4,4,0,0,0,456.58,23a4.7,4.7,0,0,0-2.84-.81,5,5,0,0,0-4.2,1.78q-1.38,1.79-1.38,6.88V51.36h-10.6V14.3h10.27V20q2.61-6.42,10.44-6.42A10.67,10.67,0,0,1,468.53,20q3.08-6.42,10.75-6.42a12.56,12.56,0,0,1,6.31,1.5A8.87,8.87,0,0,1,489.37,19q1.14,2.41,1.14,8.33Z"
  /></svg>
