<svg xmlns="http://www.w3.org/2000/svg" xmlns:xlink="http://www.w3.org/1999/xlink" width="38.82" height="38.82" viewBox="0 0 38.82 38.82">
  <defs>
    <linearGradient id="linear-gradient" y1="0.5" x2="1" y2="0.5" gradientUnits="objectBoundingBox">
      <stop offset="0" stop-color="#cb01ff"/>
      <stop offset="1" stop-color="#00ff57"/>
    </linearGradient>
  </defs>
  <g id="Group_51" data-name="Group 51" transform="translate(-1767.21 -15.2)">
    <circle id="Ellipse_2" data-name="Ellipse 2" cx="19.41" cy="19.41" r="19.41" transform="translate(1767.21 15.2)" fill="url(#linear-gradient)"/>
    <path id="Path_3" data-name="Path 3" d="M1795.6,26.18c-.1.48-.22,1-.32,1.45q-1.26,6.07-2.53,12.16c-.23,1.12-.48,2.23-.69,3.35a.61.61,0,0,1-1,.4c-1.52-1.13-3-2.22-4.57-3.33a.9.9,0,0,0-1.35,0l-2.43,2a.58.58,0,0,1-1-.3q-.9-2.86-1.78-5.73a.36.36,0,0,0-.26-.27l-4.52-1.69a.9.9,0,0,1-.4-.29.55.55,0,0,1,.31-.83c.36-.15.72-.28,1.09-.42l18.56-7.16c.49-.19.71-.11.93.34Zm-14.66,9.71v.25c.33,1.16.67,2.33,1,3.5a.239.239,0,0,0,.28.24c.18-.01.21-.14.23-.29.07-.52.16-1.05.21-1.58a2.17,2.17,0,0,1,.75-1.47c2.44-2.25,4.86-4.51,7.29-6.77a1.8,1.8,0,0,0,.28-.27c0-.05.06-.18,0-.21a.33.33,0,0,0-.22,0,.51.51,0,0,0-.16.09L1784.78,33l-3.31,2A1,1,0,0,0,1780.94,35.89Z" fill="#fff"/>
  </g>
</svg>
