<svg
  xmlns="http://www.w3.org/2000/svg"
  xmlns:xlink="http://www.w3.org/1999/xlink"
  id="Layer_1"
  data-name="Layer 1"
  viewBox="0 0 2672.59 154.44"
><defs><style
    >.cls-1,.cls-10,.cls-11,.cls-12,.cls-13,.cls-14,.cls-15,.cls-16,.cls-17,.cls-18,.cls-19,.cls-2,.cls-20,.cls-21,.cls-22,.cls-23,.cls-24,.cls-25,.cls-3,.cls-4,.cls-5,.cls-6,.cls-7,.cls-8,.cls-9{fill:none;stroke-miterlimit:10;stroke-width:3px;}.cls-1{stroke:url(#Degradado_sin_nombre_2074);}.cls-2{stroke:url(#Degradado_sin_nombre_2074-2);}.cls-3{stroke:url(#Degradado_sin_nombre_2074-3);}.cls-4{stroke:url(#Degradado_sin_nombre_2074-4);}.cls-5{stroke:url(#Degradado_sin_nombre_2074-5);}.cls-6{stroke:url(#Degradado_sin_nombre_2074-6);}.cls-7{stroke:url(#Degradado_sin_nombre_2074-7);}.cls-8{stroke:url(#Degradado_sin_nombre_2074-8);}.cls-9{stroke:url(#Degradado_sin_nombre_2074-9);}.cls-10{stroke:url(#Degradado_sin_nombre_2074-10);}.cls-11{stroke:url(#Degradado_sin_nombre_2074-11);}.cls-12{stroke:url(#Degradado_sin_nombre_2074-12);}.cls-13{stroke:url(#Degradado_sin_nombre_2074-13);}.cls-14{stroke:url(#Degradado_sin_nombre_2074-14);}.cls-15{stroke:url(#Degradado_sin_nombre_2074-15);}.cls-16{stroke:url(#Degradado_sin_nombre_2074-16);}.cls-17{stroke:url(#Degradado_sin_nombre_2074-17);}.cls-18{stroke:url(#Degradado_sin_nombre_2074-18);}.cls-19{stroke:url(#Degradado_sin_nombre_2074-19);}.cls-20{stroke:url(#Degradado_sin_nombre_2074-20);}.cls-21{stroke:url(#Degradado_sin_nombre_2074-21);}.cls-22{stroke:url(#Degradado_sin_nombre_2074-22);}.cls-23{stroke:url(#Degradado_sin_nombre_2074-23);}.cls-24{stroke:url(#Degradado_sin_nombre_2074-24);}.cls-25{stroke:url(#Degradado_sin_nombre_2074-25);}</style><linearGradient
      id="Degradado_sin_nombre_2074"
      x1="17.86"
      y1="152.61"
      x2="17.86"
      y2="5.31"
      gradientUnits="userSpaceOnUse"
    ><stop offset="0" stop-color="#cb01ff" /><stop
        offset="1"
        stop-color="#00ff57"
      /></linearGradient><linearGradient
      id="Degradado_sin_nombre_2074-2"
      x1="108.62"
      y1="152.61"
      x2="108.62"
      y2="40.62"
      xlink:href="#Degradado_sin_nombre_2074"
    /><linearGradient
      id="Degradado_sin_nombre_2074-3"
      x1="204.55"
      y1="154.94"
      x2="204.55"
      y2="9.1"
      xlink:href="#Degradado_sin_nombre_2074"
    /><linearGradient
      id="Degradado_sin_nombre_2074-4"
      x1="285.95"
      y1="152.61"
      x2="285.95"
      y2="40.52"
      xlink:href="#Degradado_sin_nombre_2074"
    /><linearGradient
      id="Degradado_sin_nombre_2074-5"
      x1="377.23"
      y1="154.83"
      x2="377.23"
      y2="40.62"
      xlink:href="#Degradado_sin_nombre_2074"
    /><linearGradient
      id="Degradado_sin_nombre_2074-6"
      x1="490.66"
      y1="154.83"
      x2="490.66"
      y2="5.31"
      xlink:href="#Degradado_sin_nombre_2074"
    /><linearGradient
      id="Degradado_sin_nombre_2074-7"
      x1="610.59"
      y1="154.83"
      x2="610.59"
      y2="42.84"
      xlink:href="#Degradado_sin_nombre_2074"
    /><linearGradient
      id="Degradado_sin_nombre_2074-8"
      x1="726.15"
      y1="154.83"
      x2="726.15"
      y2="40.62"
      xlink:href="#Degradado_sin_nombre_2074"
    /><linearGradient
      id="Degradado_sin_nombre_2074-9"
      x1="816.51"
      y1="154.94"
      x2="816.51"
      y2="9.1"
      xlink:href="#Degradado_sin_nombre_2074"
    /><linearGradient
      id="Degradado_sin_nombre_2074-10"
      x1="884.85"
      y1="152.61"
      x2="884.85"
      y2="2.35"
      xlink:href="#Degradado_sin_nombre_2074"
    /><linearGradient
      id="Degradado_sin_nombre_2074-11"
      x1="971.43"
      y1="154.83"
      x2="971.43"
      y2="40.62"
      xlink:href="#Degradado_sin_nombre_2074"
    /><linearGradient
      id="Degradado_sin_nombre_2074-12"
      x1="1088.77"
      y1="152.61"
      x2="1088.77"
      y2="40.62"
      xlink:href="#Degradado_sin_nombre_2074"
    /><linearGradient
      id="Degradado_sin_nombre_2074-13"
      x1="1238.83"
      y1="154.94"
      x2="1238.83"
      y2="9.1"
      xlink:href="#Degradado_sin_nombre_2074"
    /><linearGradient
      id="Degradado_sin_nombre_2074-14"
      x1="1335.5"
      y1="154.83"
      x2="1335.5"
      y2="40.62"
      xlink:href="#Degradado_sin_nombre_2074"
    /><linearGradient
      id="Degradado_sin_nombre_2074-15"
      x1="1517.54"
      y1="152.61"
      x2="1517.54"
      y2="5.31"
      xlink:href="#Degradado_sin_nombre_2074"
    /><linearGradient
      id="Degradado_sin_nombre_2074-16"
      x1="1653.32"
      y1="152.61"
      x2="1653.32"
      y2="5.31"
      xlink:href="#Degradado_sin_nombre_2074"
    /><linearGradient
      id="Degradado_sin_nombre_2074-17"
      x1="1760.46"
      y1="152.61"
      x2="1760.46"
      y2="5.31"
      xlink:href="#Degradado_sin_nombre_2074"
    /><linearGradient
      id="Degradado_sin_nombre_2074-18"
      x1="1938"
      y1="152.61"
      x2="1938"
      y2="5.31"
      xlink:href="#Degradado_sin_nombre_2074"
    /><linearGradient
      id="Degradado_sin_nombre_2074-19"
      x1="2102.92"
      y1="152.42"
      x2="2102.92"
      y2="38.22"
      xlink:href="#Degradado_sin_nombre_2074"
    /><linearGradient
      id="Degradado_sin_nombre_2074-20"
      x1="2018.82"
      y1="156.14"
      x2="2018.82"
      y2="8.85"
      xlink:href="#Degradado_sin_nombre_2074"
    /><linearGradient
      id="Degradado_sin_nombre_2074-21"
      x1="2207.67"
      y1="154.94"
      x2="2207.67"
      y2="9.1"
      xlink:href="#Degradado_sin_nombre_2074"
    /><linearGradient
      id="Degradado_sin_nombre_2074-22"
      x1="2282.57"
      y1="152.61"
      x2="2282.57"
      y2="-0.5"
      xlink:href="#Degradado_sin_nombre_2074"
    /><linearGradient
      id="Degradado_sin_nombre_2074-23"
      x1="2372.95"
      y1="154.83"
      x2="2372.95"
      y2="40.62"
      xlink:href="#Degradado_sin_nombre_2074"
    /><linearGradient
      id="Degradado_sin_nombre_2074-24"
      x1="2472.69"
      y1="152.61"
      x2="2472.69"
      y2="40.52"
      xlink:href="#Degradado_sin_nombre_2074"
    /><linearGradient
      id="Degradado_sin_nombre_2074-25"
      x1="2595.32"
      y1="152.61"
      x2="2595.32"
      y2="40.62"
      xlink:href="#Degradado_sin_nombre_2074"
    /></defs><path class="cls-1" d="M34.72,6.81v144.3H1V6.81Z" /><path
    class="cls-2"
    d="M155,151.11h-31.5V91.17q0-10.89-.85-14.9a12,12,0,0,0-4.12-6.82,12.21,12.21,0,0,0-8.24-2.8q-16.61,0-16.6,24.52v59.94H62.21V44.34H91.49V62.42q7.29-12.9,14.38-16.6a32.67,32.67,0,0,1,15.32-3.7q15.23,0,24.53,8.19T155,82.5Z"
  /><path
    class="cls-3"
    d="M216.55,68.87V114c0,5.64.84,9.4,2.52,11.31s5.65,2.85,11.9,2.85c2.87,0,6.21-.14,10-.42v23.36q-13.75,2.32-19.77,2.33-19.66,0-27.91-7.56T185,118.55V68.87H168.13V44.34h18.71l2.54-31.5,27.17-2.11V44.34h22.93V68.87Z"
  /><path
    class="cls-4"
    d="M287.69,151.11H257.14V44.34H286V64.22Q292.66,42,309,42c1.55,0,3.46.1,5.71.31V73.41q-9.62,0-15,3T291.07,87q-3.37,7.66-3.38,20.66Z"
  /><path
    class="cls-5"
    d="M376.54,42.12q24.39,0,38.07,16t13.68,40q0,23.68-14.21,39.49t-37.75,15.8q-22.81,0-36.49-15.65T326.17,97.52q0-17,6.18-28.92a51.18,51.18,0,0,1,16.94-19.18Q360.08,42.11,376.54,42.12Zm.85,20.61q-9,0-13.5,6.93T359.36,97.2q0,18.92,4.32,27.16t13.49,8.25q8,0,13-7t4.95-26.8q0-21-4.37-28.54T377.39,62.73Z"
  /><path
    class="cls-6"
    d="M539,6.81v144.3H509.9v-16.7q-10.8,18.92-29.44,18.92-17.68,0-27.9-14.43t-10.21-40q0-26.64,10.21-41.7t29.6-15.07q17,0,26.26,13.43V6.81ZM508.42,89.06q0-25.15-15.27-25.16-18.25,0-18.25,35.52Q474.9,131,492,131q6.57,0,11.5-5.7T508.42,109Z"
  /><path
    class="cls-7"
    d="M656.2,44.34V151.11H627V132.93q-8.24,20.4-31.5,20.4-12,0-18.5-4.49a24.76,24.76,0,0,1-9.25-12.27q-2.81-7.75-2.8-22.46V44.34h30.55v69.77q0,14.39,11.84,14.38a16.62,16.62,0,0,0,10.47-3.44q4.44-3.43,5.65-7.34t1.22-13.43V44.34Z"
  /><path
    class="cls-8"
    d="M776.08,111.05q-1.8,18.92-15,30.6t-34,11.68q-22.62,0-36.84-15t-14.22-40q0-25,14.54-40.65t38.85-15.59q19.56,0,32.4,11.74a42.94,42.94,0,0,1,14.22,29.38l-29.39,1.7Q745.21,65.69,730,65.7q-18.72,0-18.71,30.65,0,20.4,5.23,25.9a16.9,16.9,0,0,0,12.74,5.5q14.58,0,17.44-18.5Z"
  /><path
    class="cls-9"
    d="M828.51,68.87V114c0,5.64.84,9.4,2.53,11.31s5.64,2.85,11.89,2.85q4.32,0,10-.42v23.36q-13.74,2.32-19.77,2.33-19.67,0-27.91-7.56T797,118.55V68.87H780.09V44.34H798.8l2.54-31.5,27.17-2.11V44.34h22.94V68.87Z"
  /><path
    class="cls-10"
    d="M900.6,3.85V35.36H869.1V3.85Zm0,40.49V151.11H869.1V44.34Z"
  /><path
    class="cls-11"
    d="M970.74,42.12q24.4,0,38.07,16t13.68,40q0,23.68-14.2,39.49t-37.75,15.8q-22.81,0-36.49-15.65T920.37,97.52q0-17,6.18-28.92a51.29,51.29,0,0,1,17-19.18Q954.27,42.11,970.74,42.12Zm.85,20.61q-9,0-13.49,6.93T953.57,97.2q0,18.92,4.32,27.16t13.49,8.25q8,0,13-7t5-26.8q0-21-4.38-28.54T971.59,62.73Z"
  /><path
    class="cls-12"
    d="M1135.18,151.11h-31.5V91.17q0-10.89-.85-14.9a12.06,12.06,0,0,0-4.12-6.82,12.26,12.26,0,0,0-8.25-2.8q-16.59,0-16.59,24.52v59.94h-31.51V44.34h29.29V62.42q7.29-12.9,14.37-16.6a32.68,32.68,0,0,1,15.33-3.7q15.23,0,24.53,8.19t9.3,32.19Z"
  /><path
    class="cls-13"
    d="M1250.83,68.87V114c0,5.64.84,9.4,2.52,11.31s5.65,2.85,11.9,2.85c2.87,0,6.21-.14,10-.42v23.36q-13.76,2.32-19.77,2.33-19.67,0-27.91-7.56t-8.24-27.33V68.87h-16.92V44.34h18.71l2.54-31.5,27.17-2.11V44.34h22.94V68.87Z"
  /><path
    class="cls-14"
    d="M1334.81,42.12q24.4,0,38.07,16t13.68,40q0,23.68-14.2,39.49t-37.75,15.8q-22.81,0-36.49-15.65t-13.68-40.16q0-17,6.18-28.92a51.29,51.29,0,0,1,17-19.18Q1318.34,42.11,1334.81,42.12Zm.85,20.61q-9,0-13.49,6.93t-4.53,27.54q0,18.92,4.32,27.16t13.49,8.25q8,0,13-7t5-26.8q0-21-4.38-28.54T1335.66,62.73Z"
  /><path
    class="cls-15"
    d="M1573,6.81v144.3H1544.2l-56.47-97.47c.07,2.47.14,4.09.21,4.87a56.64,56.64,0,0,1,.42,6.23v86.37H1462V6.81h36.43l49.09,85.1c-.42-4.23-.63-7.43-.63-9.62V6.81Z"
  /><path
    class="cls-16"
    d="M1704.65,35.36H1637.1V67.7h53.38v27H1637.1v56.45H1602V6.81h102.65Z"
  /><path
    class="cls-17"
    d="M1813.42,6.81V35.36h-35.73V151.11h-34.25V35.36H1707.5V6.81Z"
  /><path
    class="cls-18"
    d="M1916.39,97.52v53.59H1882V6.81h56.87q19,0,29.13,4.07t18,14.54Q1994,35.89,1994,51.11a53.6,53.6,0,0,1-4.23,20.82,37.47,37.47,0,0,1-11.94,16,43.79,43.79,0,0,1-15,7.72q-7.24,1.9-22.68,1.91Zm-1.17-26.22h22q12.58,0,17.66-5.82a19.66,19.66,0,0,0,5.07-13.32q0-8.76-5.66-13.95T1937.11,33h-21.89Z"
  /><path
    class="cls-19"
    d="M2152.44,148.7h-30.55a75.78,75.78,0,0,1-1.48-16.7q-8,11.42-16,15.17a42,42,0,0,1-18.1,3.75q-15,0-24.22-8.14t-9.24-21.88a33.78,33.78,0,0,1,5.38-18.5q5.39-8.45,17.31-13.26T2119,82V75.87q0-15.54-15.5-15.54-16.54,0-18.44,15.54L2056,73.12q2.85-18.18,17.23-25.79t32.56-7.61a80.21,80.21,0,0,1,20.51,2.53q9.61,2.53,15,7.61a26.65,26.65,0,0,1,7.3,10.73q1.89,5.67,1.9,19.72v48.42Q2150.54,142.68,2152.44,148.7ZM2119,97.54q-33,3.28-33,20a14.38,14.38,0,0,0,3.48,9.67q3.48,4.08,9.91,4.07,8.32,0,14-6.92t5.64-17.07Z"
  /><path class="cls-20" d="M2003.07,154.64V10.35h31.5V154.64Z" /><path
    class="cls-21"
    d="M2219.67,68.87V114c0,5.64.84,9.4,2.53,11.31s5.65,2.85,11.89,2.85q4.32,0,10-.42v23.36q-13.74,2.32-19.77,2.33-19.65,0-27.9-7.56t-8.25-27.33V68.87h-16.91V44.34H2190l2.54-31.5,27.16-2.11V44.34h22.94V68.87Z"
  /><path
    class="cls-22"
    d="M2293.14,68.87v82.24h-30.65V68.87h-12.37V44.34h12.37q.21-16.49,2.38-24.05T2276,6.87Q2285,1,2300.44,1A106.7,106.7,0,0,1,2315,2.16V26.48c-4.52-.35-8.25-.53-11.21-.53q-6.45,0-8.56,3.38t-2.12,11v4h19.35V68.87Z"
  /><path
    class="cls-23"
    d="M2372.27,42.12q24.39,0,38.07,16T2424,98q0,23.68-14.2,39.49t-37.75,15.8q-22.82,0-36.49-15.65T2321.9,97.52q0-17,6.17-28.92A51.29,51.29,0,0,1,2345,49.42Q2355.79,42.11,2372.27,42.12Zm.84,20.61q-9,0-13.49,6.93t-4.53,27.54q0,18.92,4.32,27.16t13.49,8.25q8,0,13-7t5-26.8q0-21-4.37-28.54T2373.11,62.73Z"
  /><path
    class="cls-24"
    d="M2474.44,151.11h-30.55V44.34h28.86V64.22q6.66-22.2,23-22.2,2.33,0,5.71.31V73.41q-9.61,0-15,3T2477.82,87q-3.39,7.66-3.38,20.66Z"
  /><path
    class="cls-25"
    d="M2671.59,151.11h-31.5V92q0-12.48-.74-16.23a10.38,10.38,0,0,0-3.86-6.24q-3.12-2.47-8.62-2.48a18.68,18.68,0,0,0-10.57,3.7q-5.39,3.7-5.39,21.25v59.09h-31.5V92q0-12.8-1.16-16.55a11.6,11.6,0,0,0-4.39-6.08,13.72,13.72,0,0,0-8.19-2.32q-8.15,0-12.11,5.13t-4,19.82v59.09h-30.55V44.34h29.6V60.62q7.51-18.49,30.07-18.5,20.43,0,29.54,18.5,8.88-18.49,31-18.5,10.58,0,18.18,4.34a25.47,25.47,0,0,1,10.89,11.31q3.29,7,3.28,24Z"
  /></svg>
