<svg
  xmlns="http://www.w3.org/2000/svg"
  xmlns:xlink="http://www.w3.org/1999/xlink"
  id="Layer_1"
  data-name="Layer 1"
  viewBox="0 0 1429.46 202.5"
><defs><style
    >.cls-1,.cls-10,.cls-2,.cls-3,.cls-4,.cls-5,.cls-6,.cls-7,.cls-8,.cls-9{fill:none;stroke-miterlimit:10;stroke-width:3px;}.cls-1{stroke:url(#Degradado_sin_nombre_2);}.cls-2{stroke:url(#Degradado_sin_nombre_2-2);}.cls-3{stroke:url(#Degradado_sin_nombre_2-3);}.cls-4{stroke:url(#Degradado_sin_nombre_2-4);}.cls-5{stroke:url(#Degradado_sin_nombre_2-5);}.cls-6{stroke:url(#Degradado_sin_nombre_2-6);}.cls-7{stroke:url(#Degradado_sin_nombre_2-7);}.cls-8{stroke:url(#Degradado_sin_nombre_2-8);}.cls-9{stroke:url(#Degradado_sin_nombre_2-9);}.cls-10{stroke:url(#Degradado_sin_nombre_2-10);}</style><linearGradient
      id="Degradado_sin_nombre_2"
      x1="7.61"
      y1="100.75"
      x2="143.64"
      y2="100.75"
      gradientUnits="userSpaceOnUse"
    ><stop offset="0" stop-color="#c901fd" /><stop
        offset="1"
        stop-color="#00ff57"
      /></linearGradient><linearGradient
      id="Degradado_sin_nombre_2-2"
      x1="135.2"
      y1="124.32"
      x2="266.45"
      y2="124.32"
      xlink:href="#Degradado_sin_nombre_2"
    /><linearGradient
      id="Degradado_sin_nombre_2-3"
      x1="288.41"
      y1="100.75"
      x2="424.55"
      y2="100.75"
      xlink:href="#Degradado_sin_nombre_2"
    /><linearGradient
      id="Degradado_sin_nombre_2-4"
      x1="425.02"
      y1="124.32"
      x2="556.13"
      y2="124.32"
      xlink:href="#Degradado_sin_nombre_2"
    /><linearGradient
      id="Degradado_sin_nombre_2-5"
      x1="578.09"
      y1="122.93"
      x2="697.66"
      y2="122.93"
      xlink:href="#Degradado_sin_nombre_2"
    /><linearGradient
      id="Degradado_sin_nombre_2-6"
      x1="719.62"
      y1="124.32"
      x2="850.87"
      y2="124.32"
      xlink:href="#Degradado_sin_nombre_2"
    /><linearGradient
      id="Degradado_sin_nombre_2-7"
      x1="872.83"
      y1="122.93"
      x2="1067.4"
      y2="122.93"
      xlink:href="#Degradado_sin_nombre_2"
    /><linearGradient
      id="Degradado_sin_nombre_2-8"
      x1="1096.93"
      y1="98.9"
      x2="1139.49"
      y2="98.9"
      xlink:href="#Degradado_sin_nombre_2"
    /><linearGradient
      id="Degradado_sin_nombre_2-9"
      x1="1161.32"
      y1="124.32"
      x2="1290.05"
      y2="124.32"
      xlink:href="#Degradado_sin_nombre_2"
    /><linearGradient
      id="Degradado_sin_nombre_2-10"
      x1="1292.93"
      y1="124.32"
      x2="1417.23"
      y2="124.32"
      xlink:href="#Degradado_sin_nombre_2"
    /></defs><path
    class="cls-1"
    d="M142.14,10.14V46H97.27V191.37h-43V46H9.11V10.14Z"
  /><path
    class="cls-2"
    d="M200,54.49q30.63,0,47.81,20T265,124.72q0,29.75-17.84,49.59T199.7,194.15q-28.65,0-45.83-19.65T136.7,124.05q0-21.36,7.76-36.31a64.39,64.39,0,0,1,21.28-24.09Q179.27,54.49,200,54.49ZM201,80.38q-11.25,0-16.94,8.69t-5.69,34.59q0,23.76,5.42,34.12t16.95,10.35q10.05,0,16.28-8.83t6.22-33.65q0-26.41-5.49-35.85T201,80.38Z"
  /><path
    class="cls-3"
    d="M378.5,102.76l43.64,88.61H378.48l-28-60.75-23.27,26.75v34h-37.3V10.14h37.3v108.6l5.84-7.3q3.7-5,6.23-8.1L378.4,57.28H417Z"
  /><path
    class="cls-4"
    d="M554.63,131H468.34q-.13,3.58-.13,6.24,0,14.34,7.63,21.64a25.47,25.47,0,0,0,18.26,7.3q19.77,0,23.76-21.11l35.85,2.66q-15,46.47-60.94,46.46-20.06,0-34.06-8t-23.1-23.43q-9.09-15.41-9.09-36.91,0-32,18.25-51.64t46.94-19.65q25.89,0,44.41,18.25T554.63,131Zm-86.42-23h47.66Q514,80.38,493.17,80.38,470.87,80.38,468.21,108Z"
  /><path
    class="cls-5"
    d="M696.16,191.37H656.6V116.09q0-13.68-1.07-18.72a15.09,15.09,0,0,0-5.17-8.56A15.38,15.38,0,0,0,640,85.29q-20.85,0-20.84,30.8v75.28H579.59V57.28h36.78V80q9.17-16.2,18.06-20.85a41,41,0,0,1,19.25-4.64q19.11,0,30.8,10.29t11.68,40.42Z"
  /><path
    class="cls-6"
    d="M784.38,54.49q30.63,0,47.81,20t17.18,50.19q0,29.75-17.84,49.59t-47.41,19.84q-28.65,0-45.83-19.65t-17.17-50.45q0-21.36,7.76-36.31a64.39,64.39,0,0,1,21.28-24.09Q763.69,54.49,784.38,54.49Zm1.06,25.89q-11.25,0-16.94,8.69t-5.69,34.59q0,23.76,5.42,34.12t16.95,10.35q10.05,0,16.28-8.83t6.22-33.65q0-26.41-5.49-35.85T785.44,80.38Z"
  /><path
    class="cls-7"
    d="M1065.9,191.37h-39.56V117.15q0-15.66-.93-20.38a13,13,0,0,0-4.85-7.83q-3.91-3.12-10.82-3.12-6.5,0-13.27,4.65t-6.77,26.68v74.22H950.13V117.15q0-16.07-1.46-20.78a14.46,14.46,0,0,0-5.51-7.63,17.12,17.12,0,0,0-10.28-2.92q-10.23,0-15.21,6.44t-5,24.89v74.22H874.33V57.28H911.5V77.72q9.43-23.23,37.77-23.23,25.66,0,37.1,23.23,11.14-23.23,38.9-23.23,13.27,0,22.84,5.44t13.67,14.21q4.13,8.76,4.12,30.13Z"
  /><path
    class="cls-8"
    d="M1138,6.43V46h-39.56V6.43Zm0,50.85V191.37h-39.56V57.28Z"
  /><path
    class="cls-9"
    d="M1288.41,141.05q-2.25,23.76-18.78,38.43t-42.69,14.67q-28.41,0-46.27-18.78t-17.85-50.25q0-31.47,18.25-51.05t48.79-19.58q24.57,0,40.69,14.73t17.86,36.91l-36.91,2.13q-1.86-24.17-21-24.17-23.51,0-23.5,38.5,0,25.64,6.57,32.53a21.25,21.25,0,0,0,16,6.9q18.32,0,21.9-23.23Z"
  /><path
    class="cls-10"
    d="M1410,89.67l-28.81,7.7q-5-18.2-26.15-18.19-19.92,0-19.92,12.11a9.21,9.21,0,0,0,3.65,7.64q3.64,2.86,19,4.84,23,3,34,7a34.9,34.9,0,0,1,17.46,13.41q6.43,9.42,6.44,23.23,0,20.72-15.73,33.72t-44,13q-51.26,0-61.21-39.69l33.33-4.91q4.11,18,29.74,18,9.83,0,16.59-3.53t6.77-9.51q0-9.31-15-11-40.62-5-53.44-15.56T1300,98.56q0-19.11,14.87-31.59t41.69-12.48q21.24,0,34,8.36T1410,89.67Z"
  /></svg>
