<svg
  xmlns="http://www.w3.org/2000/svg"
  xmlns:xlink="http://www.w3.org/1999/xlink"
  id="Layer_1"
  data-name="Layer 1"
  viewBox="0 0 635.4 57.7"
><defs><style
    >.cls-1,.cls-10,.cls-11,.cls-12,.cls-13,.cls-14,.cls-15,.cls-16,.cls-17,.cls-18,.cls-19,.cls-2,.cls-3,.cls-4,.cls-5,.cls-6,.cls-7,.cls-8,.cls-9{fill:none;stroke-miterlimit:10;stroke-width:2px;}.cls-1{stroke:url(#Degradado_sin_nombre_2);}.cls-2{stroke:url(#Degradado_sin_nombre_2-2);}.cls-3{stroke:url(#Degradado_sin_nombre_2-3);}.cls-4{stroke:url(#Degradado_sin_nombre_2-4);}.cls-5{stroke:url(#Degradado_sin_nombre_2-5);}.cls-6{stroke:url(#Degradado_sin_nombre_2-6);}.cls-7{stroke:url(#Degradado_sin_nombre_2-7);}.cls-8{stroke:url(#Degradado_sin_nombre_2-8);}.cls-9{stroke:url(#Degradado_sin_nombre_2-9);}.cls-10{stroke:url(#Degradado_sin_nombre_2-10);}.cls-11{stroke:url(#Degradado_sin_nombre_2-11);}.cls-12{stroke:url(#Degradado_sin_nombre_2-12);}.cls-13{stroke:url(#Degradado_sin_nombre_2-13);}.cls-14{stroke:url(#Degradado_sin_nombre_2-14);}.cls-15{stroke:url(#Degradado_sin_nombre_2-15);}.cls-16{stroke:url(#Degradado_sin_nombre_2-16);}.cls-17{stroke:url(#Degradado_sin_nombre_2-17);}.cls-18{stroke:url(#Degradado_sin_nombre_2-18);}.cls-19{stroke:url(#Degradado_sin_nombre_2-19);}</style><linearGradient
      id="Degradado_sin_nombre_2"
      y1="28.85"
      x2="40.62"
      y2="28.85"
      gradientUnits="userSpaceOnUse"
    ><stop offset="0" stop-color="#c901fd" /><stop
        offset="1"
        stop-color="#00ff57"
      /></linearGradient><linearGradient
      id="Degradado_sin_nombre_2-2"
      x1="46.53"
      y1="36.33"
      x2="76.21"
      y2="36.33"
      xlink:href="#Degradado_sin_nombre_2"
    /><linearGradient
      id="Degradado_sin_nombre_2-3"
      x1="83.93"
      y1="35.43"
      x2="104.59"
      y2="35.43"
      xlink:href="#Degradado_sin_nombre_2"
    /><linearGradient
      id="Degradado_sin_nombre_2-4"
      x1="114.79"
      y1="28.85"
      x2="149.62"
      y2="28.85"
      xlink:href="#Degradado_sin_nombre_2"
    /><linearGradient
      id="Degradado_sin_nombre_2-5"
      x1="148.41"
      y1="35.43"
      x2="169.07"
      y2="35.43"
      xlink:href="#Degradado_sin_nombre_2"
    /><linearGradient
      id="Degradado_sin_nombre_2-6"
      x1="170.1"
      y1="36.33"
      x2="199.78"
      y2="36.33"
      xlink:href="#Degradado_sin_nombre_2"
    /><linearGradient
      id="Degradado_sin_nombre_2-7"
      x1="203.87"
      y1="35.86"
      x2="234.89"
      y2="35.86"
      xlink:href="#Degradado_sin_nombre_2"
    /><linearGradient
      id="Degradado_sin_nombre_2-8"
      x1="235.45"
      y1="30.75"
      x2="259.57"
      y2="30.75"
      xlink:href="#Degradado_sin_nombre_2"
    /><linearGradient
      id="Degradado_sin_nombre_2-9"
      x1="260.21"
      y1="35.86"
      x2="293.09"
      y2="35.86"
      xlink:href="#Degradado_sin_nombre_2"
    /><linearGradient
      id="Degradado_sin_nombre_2-10"
      x1="295.92"
      y1="29.21"
      x2="328.74"
      y2="29.21"
      xlink:href="#Degradado_sin_nombre_2"
    /><linearGradient
      id="Degradado_sin_nombre_2-11"
      x1="351.7"
      y1="28.85"
      x2="386.77"
      y2="28.85"
      xlink:href="#Degradado_sin_nombre_2"
    /><linearGradient
      id="Degradado_sin_nombre_2-12"
      x1="388.86"
      y1="35.86"
      x2="421.7"
      y2="35.86"
      xlink:href="#Degradado_sin_nombre_2"
    /><linearGradient
      id="Degradado_sin_nombre_2-13"
      x1="427.91"
      y1="35.43"
      x2="448.57"
      y2="35.43"
      xlink:href="#Degradado_sin_nombre_2"
    /><linearGradient
      id="Degradado_sin_nombre_2-14"
      x1="448.81"
      y1="30.75"
      x2="472.94"
      y2="30.75"
      xlink:href="#Degradado_sin_nombre_2"
    /><linearGradient
      id="Degradado_sin_nombre_2-15"
      x1="473.58"
      y1="35.86"
      x2="506.45"
      y2="35.86"
      xlink:href="#Degradado_sin_nombre_2"
    /><linearGradient
      id="Degradado_sin_nombre_2-16"
      x1="511.25"
      y1="35.37"
      x2="540.92"
      y2="35.37"
      xlink:href="#Degradado_sin_nombre_2"
    /><linearGradient
      id="Degradado_sin_nombre_2-17"
      x1="546.36"
      y1="35.86"
      x2="579.24"
      y2="35.86"
      xlink:href="#Degradado_sin_nombre_2"
    /><linearGradient
      id="Degradado_sin_nombre_2-18"
      x1="584.04"
      y1="35.43"
      x2="604.7"
      y2="35.43"
      xlink:href="#Degradado_sin_nombre_2"
    /><linearGradient
      id="Degradado_sin_nombre_2-19"
      x1="604.38"
      y1="35.86"
      x2="635.4"
      y2="35.86"
      xlink:href="#Degradado_sin_nombre_2"
    /></defs><path
    class="cls-1"
    d="M39.62,28.83q0,13.79-4.92,20.83t-14.29,7Q11,56.7,6,49.68T1,28.83Q1,15.14,6,8.07T20.37,1Q29.7,1,34.66,8T39.62,28.83Zm-9.33,0q0-9.57-2.23-15.07t-7.77-5.5q-5.55,0-7.76,5.52t-2.2,15.05q0,9.38,2.16,15t7.92,5.59Q25.8,49.42,28,44T30.29,28.85Z"
  /><path
    class="cls-2"
    d="M47.53,16h8.19V41.23c0,3.52.29,5.87.87,7.07s1.85,1.79,3.83,1.79a5.2,5.2,0,0,0,5.14-3.19Q67,43.71,67,35.09V16h8.19V55.72H67.65v-6q-3.18,7-10.1,7a10.38,10.38,0,0,1-5.8-1.49A8.34,8.34,0,0,1,48.51,51q-1-2.76-1-9.57Z"
  /><path
    class="cls-3"
    d="M84.93,16h7.2v8.9q3.32-9.73,10-9.73a11.2,11.2,0,0,1,1.5.12v8.54a15.08,15.08,0,0,0-1.66-.12q-8.82,0-8.81,11.81V55.72H84.93Z"
  /><path
    class="cls-4"
    d="M115.79,2h32.83V9.54h-12V55.72h-8.9V9.54H115.79Z"
  /><path
    class="cls-5"
    d="M149.41,16h7.2v8.9q3.33-9.73,10-9.73a11.2,11.2,0,0,1,1.5.12v8.54a15.08,15.08,0,0,0-1.66-.12q-8.81,0-8.81,11.81V55.72h-8.19Z"
  /><path
    class="cls-6"
    d="M171.1,16h8.19V41.23c0,3.52.29,5.87.87,7.07S182,50.09,184,50.09a5.2,5.2,0,0,0,5.14-3.19q1.45-3.19,1.46-11.81V16h8.19V55.72h-7.56v-6q-3.18,7-10.1,7a10.38,10.38,0,0,1-5.8-1.49A8.34,8.34,0,0,1,172.08,51q-1-2.76-1-9.57Z"
  /><path
    class="cls-7"
    d="M232.43,25.25,226,27q-1.77-6-6.73-6a4.94,4.94,0,0,0-3.69,1.42,4.78,4.78,0,0,0-1.39,3.5,4.12,4.12,0,0,0,1.41,3.46c.95.74,3.11,1.66,6.5,2.76q6.25,2.09,9,4.7a9.59,9.59,0,0,1,2.76,7.3A11.67,11.67,0,0,1,230,53.06Q226,56.71,219.32,56.7q-12.63,0-14.32-11.57l7-1.3q1.35,6.86,7.6,6.85a6.38,6.38,0,0,0,4.74-1.57,5.15,5.15,0,0,0,1.56-3.75,5.07,5.07,0,0,0-1.06-3q-1.06-1.47-6-3a42.32,42.32,0,0,1-7.06-2.79,10.52,10.52,0,0,1-3.92-3.76,10.34,10.34,0,0,1-1.54-5.57,11.56,11.56,0,0,1,3.7-8.64A13.22,13.22,0,0,1,219.6,15Q229.56,15,232.43,25.25Z"
  /><path
    class="cls-8"
    d="M242.28,5.61l7.4-.71V16h7.59v6.61h-7.59V40.1a52.06,52.06,0,0,0,.23,6.16,3.84,3.84,0,0,0,1.42,2.47,6.24,6.24,0,0,0,3.94,1,23.17,23.17,0,0,0,3.3-.28V56a28.89,28.89,0,0,1-6.14.71c-3.07,0-5.42-.59-7-1.79a7.84,7.84,0,0,1-3.11-4.86,47.58,47.58,0,0,1-.67-9.37V22.57h-5.16V16h5.39Z"
  /><path
    class="cls-9"
    d="M292.07,37.06H269.6q0,8,2.17,10.73a6.76,6.76,0,0,0,5.48,2.69q5.5,0,6.95-7.4l7.52,1Q288.77,56.7,277,56.7a14.21,14.21,0,0,1-11.5-5.15q-4.29-5.16-4.29-15.12,0-10.23,4.33-15.83A13.92,13.92,0,0,1,277.11,15a13.2,13.2,0,0,1,8.55,2.8,14.88,14.88,0,0,1,4.88,7.34A43.29,43.29,0,0,1,292.07,37.06Zm-8.38-5.55q0-10.52-6.85-10.51-6.42,0-7,10.51Z"
  /><path
    class="cls-10"
    d="M319.55,2h8.19V55.72h-7.56v-6q-2.87,6.72-9.85,6.73a11,11,0,0,1-10.06-5.63q-3.36-5.62-3.35-14.76,0-9.81,3.7-15.28a11.39,11.39,0,0,1,9.87-5.47c4.31,0,7.34,1.76,9.06,5.28Zm0,30.34q0-6.13-2.31-8.59a6.62,6.62,0,0,0-4.77-2.46q-6.81,0-6.82,14,0,14.94,6.89,14.94a6.37,6.37,0,0,0,4.84-2.48q2.17-2.48,2.17-8.61Z"
  /><path
    class="cls-11"
    d="M352.7,2H366a36.8,36.8,0,0,1,10.36,1.2,12.33,12.33,0,0,1,6.69,5.32,17.56,17.56,0,0,1,2.72,9.9,18,18,0,0,1-2.21,9.13A12.89,12.89,0,0,1,377.64,33q-3.72,1.7-11.44,1.7h-4.61v21H352.7Zm8.89,6.89V27.61H366q5.91,0,8.17-2.2t2.27-7.17a10.82,10.82,0,0,0-1.5-6,6.28,6.28,0,0,0-3.29-2.84A21.82,21.82,0,0,0,366,8.87Z"
  /><path
    class="cls-12"
    d="M399.23,27.22l-7.91-1A11.84,11.84,0,0,1,396.21,18a16.81,16.81,0,0,1,10.08-3,15.12,15.12,0,0,1,8.55,2.15,9.16,9.16,0,0,1,4,5.1,35.66,35.66,0,0,1,.83,8.93V44.74c0,5.48.23,9.14.71,11h-7.76a31.31,31.31,0,0,1-.51-6.61Q408.41,56.7,401,56.7a10.84,10.84,0,0,1-8.08-3.09,11.44,11.44,0,0,1-3-8.4,12.78,12.78,0,0,1,4.46-10.28q4.46-3.78,15.46-3.78l1.73,0V29.58a12.9,12.9,0,0,0-1.28-6.42Q409,21,405.66,21,400.29,21,399.23,27.22Zm12.28,9.13c-1.05-.1-1.84-.16-2.39-.16q-10.68,0-10.68,8.39,0,6.11,5.3,6.1,3.11,0,5.43-3.31t2.34-9.09Z"
  /><path
    class="cls-13"
    d="M428.91,16h7.2v8.9q3.33-9.73,10-9.73a11.2,11.2,0,0,1,1.5.12v8.54a15.08,15.08,0,0,0-1.66-.12q-8.81,0-8.81,11.81V55.72h-8.19Z"
  /><path
    class="cls-14"
    d="M455.64,5.61,463,4.9V16h7.6v6.61H463V40.1a49.19,49.19,0,0,0,.24,6.16,3.83,3.83,0,0,0,1.41,2.47,6.24,6.24,0,0,0,3.94,1,23.42,23.42,0,0,0,3.31-.28V56a29,29,0,0,1-6.14.71c-3.07,0-5.42-.59-7.05-1.79a7.89,7.89,0,0,1-3.11-4.86,47.58,47.58,0,0,1-.67-9.37V22.57h-5.16V16h5.4Z"
  /><path
    class="cls-15"
    d="M505.44,37.06H483q0,8,2.18,10.73a6.75,6.75,0,0,0,5.48,2.69q5.49,0,6.95-7.4l7.51,1Q502.14,56.7,490.36,56.7a14.2,14.2,0,0,1-11.49-5.15q-4.29-5.16-4.29-15.12,0-10.23,4.33-15.83A13.9,13.9,0,0,1,490.48,15a13.19,13.19,0,0,1,8.54,2.8,14.81,14.81,0,0,1,4.88,7.34A43.24,43.24,0,0,1,505.44,37.06Zm-8.39-5.55Q497.05,21,490.2,21q-6.4,0-7,10.51Z"
  /><path
    class="cls-16"
    d="M512.25,16h7.56V22.1Q522.57,15,529.67,15a10.29,10.29,0,0,1,6.49,1.93,8.28,8.28,0,0,1,3.11,4.63,39.58,39.58,0,0,1,.65,8.52V55.72h-8.19V30.55q0-5.19-.9-7c-.61-1.25-1.9-1.87-3.87-1.87A5.59,5.59,0,0,0,522.15,24c-1.14,1.58-1.71,4.74-1.71,9.45V55.72h-8.19Z"
  /><path
    class="cls-17"
    d="M578.23,37.06H555.75q0,8,2.18,10.73a6.74,6.74,0,0,0,5.47,2.69q5.51,0,7-7.4l7.52,1q-3,12.63-14.72,12.63a14.22,14.22,0,0,1-11.5-5.15q-4.29-5.16-4.29-15.12,0-10.23,4.33-15.83A13.93,13.93,0,0,1,563.27,15a13.19,13.19,0,0,1,8.54,2.8,14.81,14.81,0,0,1,4.88,7.34A43.24,43.24,0,0,1,578.23,37.06Zm-8.39-5.55Q569.84,21,563,21q-6.42,0-7,10.51Z"
  /><path
    class="cls-18"
    d="M585,16h7.2v8.9q3.32-9.73,10-9.73a11.2,11.2,0,0,1,1.5.12v8.54a15.08,15.08,0,0,0-1.66-.12q-8.82,0-8.82,11.81V55.72H585Z"
  /><path
    class="cls-19"
    d="M633,25.25,626.53,27q-1.77-6-6.73-6a4.9,4.9,0,0,0-3.68,1.42,4.75,4.75,0,0,0-1.4,3.5,4.09,4.09,0,0,0,1.42,3.46c.94.74,3.11,1.66,6.49,2.76q6.25,2.09,9,4.7a9.62,9.62,0,0,1,2.75,7.3,11.69,11.69,0,0,1-3.93,8.92q-3.94,3.64-10.63,3.64-12.65,0-14.33-11.57l7-1.3q1.35,6.86,7.6,6.85a6.42,6.42,0,0,0,4.75-1.57,5.18,5.18,0,0,0,1.55-3.75,5.07,5.07,0,0,0-1.06-3q-1.06-1.47-5.95-3a42.69,42.69,0,0,1-7.06-2.79,10.52,10.52,0,0,1-3.92-3.76,10.34,10.34,0,0,1-1.53-5.57,11.52,11.52,0,0,1,3.7-8.64A13.18,13.18,0,0,1,620.11,15Q630.07,15,633,25.25Z"
  /></svg>
