<svg xmlns="http://www.w3.org/2000/svg" xmlns:xlink="http://www.w3.org/1999/xlink" width="38.82" height="38.82" viewBox="0 0 38.82 38.82">
  <defs>
    <linearGradient id="linear-gradient" y1="0.5" x2="1" y2="0.5" gradientUnits="objectBoundingBox">
      <stop offset="0" stop-color="#cb01ff"/>
      <stop offset="1" stop-color="#00ff57"/>
    </linearGradient>
  </defs>
  <g id="Group_50" data-name="Group 50" transform="translate(-1716.53 -15.2)">
    <circle id="Ellipse_1" data-name="Ellipse 1" cx="19.41" cy="19.41" r="19.41" transform="translate(1716.53 15.2)" fill="url(#linear-gradient)"/>
    <path id="Path_2" data-name="Path 2" d="M1725.18,42.08a8.54,8.54,0,0,0,6.13-1.74,4.22,4.22,0,0,1-3.06-1.44,3.649,3.649,0,0,1-.81-1.46,4.391,4.391,0,0,0,1.8-.09,4.2,4.2,0,0,1-3.28-4.12c.29.11.58.24.88.33a5.51,5.51,0,0,0,.92.14,4.3,4.3,0,0,1-1.75-3,4,4,0,0,1,.54-2.59,11.92,11.92,0,0,0,8.63,4.36,4.842,4.842,0,0,1,0-1.61,4.18,4.18,0,0,1,7.08-2.32.351.351,0,0,0,.25.07,8.178,8.178,0,0,0,2.3-.86l.2-.1a4.33,4.33,0,0,1-1.72,2.26,7.9,7.9,0,0,0,2.24-.6v.05c-.34.4-.66.81-1,1.18s-.62.54-.92.82a.38.38,0,0,0-.13.26,12,12,0,0,1-5.21,10.3,10.779,10.779,0,0,1-5,1.88,12.18,12.18,0,0,1-5.06-.36,11.49,11.49,0,0,1-3-1.32Z" fill="#fff"/>
  </g>
</svg>
