<svg xmlns="http://www.w3.org/2000/svg" xmlns:xlink="http://www.w3.org/1999/xlink" viewBox="0 0 1926.8 403.09"><defs><style>.cls-1{isolation:isolate;}.cls-2{opacity:0.99;mix-blend-mode:lighten;}.cls-10,.cls-11,.cls-12,.cls-13,.cls-14,.cls-15,.cls-16,.cls-17,.cls-18,.cls-19,.cls-20,.cls-21,.cls-22,.cls-23,.cls-3,.cls-4,.cls-5,.cls-6,.cls-7,.cls-8,.cls-9{mix-blend-mode:screen;}.cls-3{fill:url(#linear-gradient);}.cls-4{fill:url(#linear-gradient-2);}.cls-5{fill:url(#linear-gradient-3);}.cls-6{fill:url(#linear-gradient-4);}.cls-7{fill:url(#linear-gradient-5);}.cls-8{fill:url(#linear-gradient-6);}.cls-9{fill:url(#linear-gradient-7);}.cls-10{fill:url(#linear-gradient-8);}.cls-11{fill:url(#linear-gradient-9);}.cls-12{fill:url(#linear-gradient-10);}.cls-13{fill:url(#linear-gradient-11);}.cls-14{fill:url(#linear-gradient-12);}.cls-15{fill:url(#linear-gradient-13);}.cls-16{fill:url(#linear-gradient-14);}.cls-17{fill:url(#linear-gradient-15);}.cls-18{fill:url(#linear-gradient-16);}.cls-19{fill:url(#linear-gradient-17);}.cls-20{fill:url(#linear-gradient-18);}.cls-21{fill:url(#linear-gradient-19);}.cls-22{fill:url(#linear-gradient-20);}.cls-23{fill:url(#linear-gradient-21);}</style><linearGradient id="linear-gradient" x1="688.37" y1="140.29" x2="688.37" y2="18.59" gradientUnits="userSpaceOnUse"><stop offset="0" stop-color="#911184"/><stop offset="0.04" stop-color="#88127d" stop-opacity="0.93"/><stop offset="0.18" stop-color="#661463" stop-opacity="0.65"/><stop offset="0.34" stop-color="#49164d" stop-opacity="0.41"/><stop offset="0.49" stop-color="#33183c" stop-opacity="0.23"/><stop offset="0.65" stop-color="#231930" stop-opacity="0.11"/><stop offset="0.82" stop-color="#1a1a28" stop-opacity="0.03"/><stop offset="1" stop-color="#171a26" stop-opacity="0.01"/></linearGradient><linearGradient id="linear-gradient-2" x1="590.67" y1="289.18" x2="590.67" y2="33.3" xlink:href="#linear-gradient"/><linearGradient id="linear-gradient-3" x1="714.58" y1="208.2" x2="714.58" y2="26.71" xlink:href="#linear-gradient"/><linearGradient id="linear-gradient-4" x1="755.82" y1="111.33" x2="755.82" y2="13.96" xlink:href="#linear-gradient"/><linearGradient id="linear-gradient-5" x1="1309.6" y1="334.93" x2="1309.6" y2="36.1" xlink:href="#linear-gradient"/><linearGradient id="linear-gradient-6" x1="1224.86" y1="192.83" x2="1224.86" y2="25.13" xlink:href="#linear-gradient"/><linearGradient id="linear-gradient-7" x1="1211.28" y1="263.55" x2="1211.28" y2="31.47" xlink:href="#linear-gradient"/><linearGradient id="linear-gradient-8" x1="1052.07" y1="222.75" x2="1052.07" y2="28.09" xlink:href="#linear-gradient"/><linearGradient id="linear-gradient-9" x1="988.59" y1="128.77" x2="988.59" y2="16.85" xlink:href="#linear-gradient"/><linearGradient id="linear-gradient-10" x1="1514.51" y1="364.66" x2="1514.51" y2="37.66" xlink:href="#linear-gradient"/><linearGradient id="linear-gradient-11" x1="1202.95" y1="403.09" x2="1202.95" y2="39.45" xlink:href="#linear-gradient"/><linearGradient id="linear-gradient-12" x1="993.18" y1="334.93" x2="993.18" y2="36.1" xlink:href="#linear-gradient"/><linearGradient id="linear-gradient-13" x1="924.15" y1="222.75" x2="924.15" y2="28.09" xlink:href="#linear-gradient"/><linearGradient id="linear-gradient-14" x1="875.35" y1="128.77" x2="875.35" y2="16.85" xlink:href="#linear-gradient"/><linearGradient id="linear-gradient-15" x1="801.18" y1="289.18" x2="801.18" y2="33.3" xlink:href="#linear-gradient"/><linearGradient id="linear-gradient-16" x1="779.09" y1="160.19" x2="779.09" y2="21.3" xlink:href="#linear-gradient"/><linearGradient id="linear-gradient-17" x1="693.35" y1="403.09" x2="693.35" y2="39.45" xlink:href="#linear-gradient"/><linearGradient id="linear-gradient-18" x1="370.34" y1="334.93" x2="370.34" y2="36.1" xlink:href="#linear-gradient"/><linearGradient id="linear-gradient-19" x1="575.96" y1="181.49" x2="575.96" y2="0" xlink:href="#linear-gradient"/><linearGradient id="linear-gradient-20" x1="644.04" y1="202.52" x2="644.04" y2="55.02" xlink:href="#linear-gradient"/><linearGradient id="linear-gradient-21" x1="1087.84" y1="160.19" x2="1087.84" y2="21.3" xlink:href="#linear-gradient"/></defs><g class="cls-1"><g id="Layer_1" data-name="Layer 1"><g class="cls-2"><polygon class="cls-3" points="647.09 140.29 562.25 140.29 782.17 18.59 814.49 18.59 647.09 140.29"/><polygon class="cls-4" points="516.85 289.18 367.75 289.18 774.92 33.3 813.59 33.3 516.85 289.18"/><polygon class="cls-5" points="695.5 208.2 581.34 208.2 812 26.7 847.82 26.7 695.5 208.2"/><polygon class="cls-6" points="740.63 111.33 668.28 111.33 813.03 13.96 843.35 13.96 740.63 111.33"/><polygon class="cls-7" points="1584.16 334.93 1415.31 334.93 1035.05 36.1 1074.92 36.1 1584.16 334.93"/><polygon class="cls-8" points="1407.29 192.83 1299.77 192.83 1042.43 25.13 1077.57 25.13 1407.29 192.83"/><polygon class="cls-9" points="1408.28 263.55 1270.24 263.55 1014.28 31.47 1052.16 31.47 1408.28 263.55"/><polygon class="cls-10" points="1152.12 222.75 1031.69 222.75 952.02 28.09 988.44 28.09 1152.12 222.75"/><polygon class="cls-11" points="1041.94 128.77 962.07 128.77 935.24 16.85 966.81 16.85 1041.94 128.77"/><polygon class="cls-12" points="1926.8 364.66 1745.12 364.66 1102.21 37.66 1142.77 37.66 1926.8 364.66"/><polygon class="cls-13" points="1424.14 403.09 1225.87 403.09 981.76 39.45 1023.08 39.45 1424.14 403.09"/><polygon class="cls-14" points="1077.61 334.93 908.75 334.93 915.42 36.1 955.3 36.1 1077.61 334.93"/><polygon class="cls-15" points="984.37 222.75 863.93 222.75 901.29 28.09 937.71 28.09 984.37 222.75"/><polygon class="cls-16" points="914.24 128.77 834.37 128.77 884.77 16.85 916.34 16.85 914.24 128.77"/><polygon class="cls-17" points="851.18 289.18 702.08 289.18 861.62 33.3 900.29 33.3 851.18 289.18"/><polygon class="cls-18" points="782.51 160.19 689.07 160.19 835.61 21.3 869.1 21.3 782.51 160.19"/><polygon class="cls-19" points="710.6 403.09 512.33 403.09 833.04 39.45 874.36 39.45 710.6 403.09"/><polygon class="cls-20" points="168.85 334.93 0 334.93 700.81 36.1 740.68 36.1 168.85 334.93"/><polygon class="cls-21" points="498.13 181.49 383.97 181.49 732.13 0 767.95 0 498.13 181.49"/><polygon class="cls-22" points="559.05 202.51 461.36 202.51 792.68 55.02 826.71 55.02 559.05 202.51"/><polygon class="cls-23" points="1192.95 160.19 1099.52 160.19 982.73 21.3 1016.23 21.3 1192.95 160.19"/></g></g></g></svg>